<svg id="aab2b160-afb7-4d1e-b773-94245008c2bd" data-name="Layer 1" xmlns="http://www.w3.org/2000/svg" xmlns:xlink="http://www.w3.org/1999/xlink" viewBox="0 0 1920 1080"><defs><style>.a7d0a68e-ff18-469f-b990-fa0039874cac{isolation:isolate;opacity:0.62;fill:url(#bf444286-7225-4e5d-b425-6769cdb6367f);}.beffaf3d-0dcc-4b32-ad22-a2796f224e3a{fill:#6150a1;}.ea38a0ae-44c1-484b-b69b-3c5709fac09e{fill:#a693c6;}.e49d68a4-51b3-4b64-a80e-902cc66d5577{fill:#979acc;}.a41b84b7-b767-4fed-b836-31ea91b9716d{fill:url(#b6062145-d673-4d5a-ad7b-43314f47467f);}.a6b68581-2ee2-4d15-beaf-716c949307f3{fill:#4b3090;}.a16f6ad5-1e25-4d1c-bfe9-20d5e32c3017{fill:#0e0b18;}.f22f289d-35dc-4f2d-9c0a-2a463eba1ef2{fill:#412e84;}.a6a06cf8-2b86-4c54-80d6-90fc5c043763{fill:#3a2a7b;}.ba1c9c0a-45b0-4f0e-b6a6-af86a0cf187e{fill:#5c60ab;}.b1ae3a83-68ed-4a67-a8f8-acb3b3c958fb{fill:#332f74;}.a2b0f651-2d00-4516-9681-917c2e317e1e{fill:#5c85c4;}.e821b105-f702-42cb-b7e1-d4b4f599f5dc{fill:#5870b5;}.ed35af9f-6f06-429d-92cc-240b7f3bdd59{fill:#1b1447;}.b3e3c886-92c2-43cf-870e-6b2afc7be63a{fill:#79a2d6;}.fdef636e-e3eb-401e-a226-bc9b524c85ae{fill:#201955;}.b60b977b-4485-4296-965f-a1bcf91fb96c{fill:#322770;}.aab1900f-3643-4149-807b-af1b991ded26{fill:#32296b;}.a4af14a0-9e1d-4ac7-a5f0-33ba043249fa{fill:#47b1dc;}.ad6b3ea5-62fa-487e-b74d-aa1bcf8e45ae{fill:#574099;}.b4bd5f9a-7975-4e9a-8709-02267ae4efbd{fill:#c9e8f1;}.a7578737-ad71-4d6c-991e-57287d2a8918{fill:#28b9d2;}.f9c59779-38af-4b99-b829-cf49254f9acd{fill:#261e5e;}.ae0cd842-97a3-404a-8af7-e77533e58d32{fill:#fff;}.a11f0561-5731-4e9d-969e-737c35e770ff{fill:#c5bdde;}.f49b2509-8c97-47bf-bd96-460a3743b9d4{fill:#bdabd3;}.a1a579c9-98af-42a5-a315-ae798770ee99{fill:#c2b4d8;}.b1e6c600-42a0-4615-b91e-19cfdf45f6f7{fill:#6e57a4;}.f6f59e4f-1b51-4ac0-81c6-1eeb9dc0d0c1{fill:#9684be;}.bbce57db-dfc8-44b7-8a50-dc5faf5d88ef{fill:#7b79b9;}.f33b0f39-5b8d-4304-a828-6416dd18dffb{fill:#151130;}.e9c56b4d-0b5c-444b-a7d1-6a1755a646ea{fill:url(#ab78aae6-adf0-403e-afb2-e84b32fef8d7);}.be487cba-1ffa-43a5-a12b-905f50754087{fill:#72cbd7;}.ffa3f466-b8c9-4cb4-96d6-764acbf9acd4{fill:url(#efb3823b-7f09-43ec-aafb-1c6e9cccaeda);}</style><linearGradient id="bf444286-7225-4e5d-b425-6769cdb6367f" x1="964.47978" y1="1636.6283" x2="966.08222" y2="1630.11169" gradientTransform="matrix(116.55278, 0, 0, -107.1586, -111637.74931, 175560.68)" gradientUnits="userSpaceOnUse"><stop offset="0" stop-color="#1cbec8" stop-opacity="0.33"/><stop offset="1" stop-color="#aa91c4"/></linearGradient><linearGradient id="b6062145-d673-4d5a-ad7b-43314f47467f" x1="855.0765" y1="465.30536" x2="1398.8365" y2="465.30536" gradientUnits="userSpaceOnUse"><stop offset="0" stop-color="#4a83c4"/><stop offset="1" stop-color="#a990c3"/></linearGradient><linearGradient id="ab78aae6-adf0-403e-afb2-e84b32fef8d7" x1="367.50643" y1="639.18531" x2="470.63655" y2="639.18531" gradientUnits="userSpaceOnUse"><stop offset="0" stop-color="#d0bddc"/><stop offset="1" stop-color="#72cbd7"/></linearGradient><linearGradient id="efb3823b-7f09-43ec-aafb-1c6e9cccaeda" x1="882.96639" y1="644.43611" x2="985.31649" y2="644.43611" xlink:href="#ab78aae6-adf0-403e-afb2-e84b32fef8d7"/></defs><path id="e0fc088d-ee13-4a6b-adfe-5c3764bc8a4d" data-name="Path 82676" class="a7d0a68e-ff18-469f-b990-fa0039874cac" d="M1195.49675,817.08972,551.26014,923.63708A112.67485,112.67485,0,0,1,420.203,811.31326l4.18925-410.28717A165.113,165.113,0,0,1,555.01445,241.2394l614.38534-131.19452a115.98648,115.98648,0,0,1,140.17581,113.4379v459.116A136.31468,136.31468,0,0,1,1195.49675,817.08972Z"/><path class="beffaf3d-0dcc-4b32-ad22-a2796f224e3a" d="M1421.86653,566.72028c.08-6.7.51-13.3899.78992-20.08985q.165-9.015.33-18.03-4.60493-8.43017-9.19995-16.85009c-1.22,1.31-2.27,2.88012-3.72,3.85009-1.11.74-2.73.74-4.13,1.06995q-2.13006,10.455-4.27,20.91-2.025,9.98988-4.02991,19.99-3.97521,4.99494-7.95007,10c.25,1.06006,1.05994,2.68995.67,3.06006a26.31306,26.31306,0,0,1-4.57006,2.90992c-2.6.38-5.21,1.11-7.81006,1.11q-60.40485.10492-120.78992-.03992c-2.83-.01-5.66-1.30005-8.49-1.99q-2.32507-1.92-4.64-3.83007-4.20007-4.86-8.4-9.72-7.365-10.23009-14.73-20.45c-4.46008-6.07006-8.98-12.10009-13.34-18.24-.92-1.28-1.25-2.9801-1.85009-4.4801q-31.37988-.04487-62.76-.1,6.99023,1.99511,13.97009,3.99c.39.24.7699.48,1.16.72l.03-.01c12.57,3.47,23.34986,10.3,33.32,18.39,5.13,4.16,9.61,9.12,14.39,13.72009q6.59986,6.95985,13.2,13.93995c5,4.85,10.01,9.71,16.16,15.67993-3.54.63012-5.52,1.29-7.51,1.30005-29.77.06-59.55994.75-89.29-.40992-8.35-.33007-16.57-5.9801-24.69995-9.51-2.49011-1.09008-4.5-3.27-6.72009-4.96008-10.17993-5.52991-18.44995-13.34-25.85987-22.07-2.70007-3.18-4.69006-6.96-7.01-10.47q-1.905-1.47-3.84008-2.92c-.6399-.4801-1.28-.97009-1.91993-1.45007q-1.935-1.43994-3.83007-2.92994c-1.89991-1.48-3.75-3.01-5.54-4.61a9.01457,9.01457,0,0,1-2.51-6.62c.1001-1.14,3.39013-2.76,5.32007-2.87011,6.41992-.34986,12.87-.11988,19.32006-.10987,10.59986-.1101,21.2-.20007,31.79993-.34008,1.97009-.03,3.94006-.24,5.91-.37-14.59009-.11-29.18995-.53992-43.77-.19995a46.30271,46.30271,0,0,1-22.95-5.14l-8.07006-4.89q-6.945-6.225-13.89-12.46l-15-7.71008c-2.32995-.97-4.65-1.93994-6.98-2.90992q-1.06494,5.08485-2.14,10.16993,9.07508,5.38512,18.15,10.77,7.94989,6.045,15.88,12.09008,8.56494,9.98988,17.14,19.99c12.92,17.24,19.66,36.90992,22.82,57.99.52,17.36,1.03,34.71,1.57006,52.86h8.54q.39-3.015.77991-6.05c2.04-1.62,4.08-3.25,6.12-4.87,7.46-4.99,15.58007-7.99,24.66-7.99h310.05994q0-24.4801.01-48.96C1421.8365,576.6004,1421.7264,576.6004,1421.86653,566.72028Zm-41.06005,50.54a7.54757,7.54757,0,0,1-2.95.21q-55.86.015-111.72-.05994c-2.21008-.01-6.77,1.33-4.05005-4.03992q-.57-2.91009-1.12011-5.82006v-6.99q-.04486-3.4951-.07-6.99c-.03992-.59008-.04993-1.17-.08-1.75-.03-.58007-.06006-1.16-.14-1.74-.57-4.35009,1.28992-5.85009,5.65-5.84008,37.13989.12011,74.28.05,111.41992.12011,1.70007,0,3.4.79993,5.10009,1.22.21.35.41993.71.62989,1.05994q-.015,3.45008-.03992,6.89-.045,3.51012-.09,7.02c-.01,2.29-.02,4.59-.02,6.88-.18995,1.69006-.38,3.37-.57007,5.05994C1384.96639,615.23029,1382.81649,616.33038,1380.80648,617.26032Z"/><path class="ea38a0ae-44c1-484b-b69b-3c5709fac09e" d="M919.15645,464.66034q-.015,6.99-.03992,13.97009-11.47521.01484-22.93017.0199-68.53491.07508-137.06983.15-103.35021.10509-206.68017.2-112.095.045-224.16992.03a57.82874,57.82874,0,0,0-5.85987.59008q-12-.015-24-.05c3.05982-12.12,10.3899-20.44995,22.10987-24.9,1.6101.67,3.23,1.93,4.85009,1.93q230.97.11994,461.94.05994c6.78,6.11,11.51,5.55994,16.93994-1.97h64.91992q.97523.57,1.95019,1.14c.16993.16993.33008.35.49.53,1.57007,1.77991,3.01,4.21,4.76,4.90992a1.17487,1.17487,0,0,0,.2.07006,2.24674,2.24674,0,0,0,.34985.09c6.12012,1.05994,12.45019.84,18.69018,1.27991C903.46639,463.28034,911.30648,464.00031,919.15645,464.66034Z"/><path class="e49d68a4-51b3-4b64-a80e-902cc66d5577" d="M787.30648,456.66034q-230.97.015-461.93995-.05994c-1.62011,0-3.24-1.26-4.85009-1.93,1.02-.47,2.03-1.34,3.06006-1.36,9.77-.26,16.68994-5.85009,23.3-12.12a14.3972,14.3972,0,0,1,2.5-1.55994,15.12384,15.12384,0,0,0,3.78,1c12.10987.07984,24.21.09986,36.31983-.03.99-.01,1.97021-1.15,2.96-1.76,3.64014.2,7.27.58,10.90014.58q96.11976.05988,192.25.03c10.34009,0,10.34009,0,13.51-9.8a3.93175,3.93175,0,0,0,.08008-.98c.25-.33.48975-.66.73975-.99q7.20008,2.93994,14.40015,5.88v.01q-.45008,2.54994-.90992,5.1a30.89005,30.89005,0,0,0,5.1399.88q46.66515.07506,93.33007.02c3.82007,0,7.62989-.21,11.45-.32006q21-.165,41.99-.33,4.92.42,9.8601.84Q786.24153,448.22034,787.30648,456.66034Z"/><path class="a41b84b7-b767-4fed-b836-31ea91b9716d" d="M1398.8365,494.46027c-.39,2.04-.77,4.07007-1.16,6.10009a2.31735,2.31735,0,0,0-.82.26c-1.33007-.05-2.66-.13-3.99-.13q-157.42511-.015-314.84008,0c-1.33,0-2.65992.1-3.99.15q-4.96509-.45006-9.95-.9c-.3601-.04-.72-.08-1.07006-.12-1.62-.22-3.25-.43994-4.87-.66q-13.99492-3.99-28-7.96l-15-7.71008c-2.32995-.97-4.65-1.93994-6.98-2.90992a26.163,26.163,0,0,0-3.38-1.98c-17.55005-7.08007-35.67994-11.51-54.69-11.91-.64.78992-1.68,1.51-1.85009,2.39-.6,3.08.17,7.58-1.6,8.97-2.06994,1.63-6.25989.57006-9.52991.65-1.31005.02991-2.62011-.01-3.93005-.02-.17-4.39,1.32-10.61-.95007-12.69006-2.60987-2.35987-8.56995-1.04993-13.08-1.33-7.85-.66-15.69006-1.38-23.54993-1.95007-6.24-.43994-12.57006-.22-18.69018-1.27991a2.24674,2.24674,0,0,1-.34985-.09,1.17487,1.17487,0,0,1-.2-.07006c-1.75-.7-3.18994-3.13-4.76-4.90992-.15991-.19006-.32006-.3601-.49-.53v-.01c-.65014-.37-1.3-.75-1.95019-1.13q-7.04992-8.97015-14.08984-17.93a6.763,6.763,0,0,0,.03-.89991c11.22,4.80994,23.07984,3.67994,34.80982,3.69q143.58032.015,287.17016,0c8.01,0,10.12989-2.4,8.75-9.78,15.02,7.15,31.58,8.68,47.41993,12.8,13.17,3.41993,26.51,6.17994,39.75,9.31006a23.30211,23.30211,0,0,1,3.99,1.74q14.52008,3.08991,29.05005,6.14991c1.91992.41,3.87.68,5.81005,1.01,1.46.52,2.92994,1.03,4.3899,1.55,20.96008,5.16993,42.93005,6.91993,62.09008,18.21Q1388.58144,487.50037,1398.8365,494.46027Z"/><path class="a6b68581-2ee2-4d15-beaf-716c949307f3" d="M1080.015,591.5946c.51689,17.35333,1.03378,34.70661,1.57446,52.85975,2.73816,0,5.63747,0,8.53635.00037q.58365.42948,1.16815.85817c-10.33576.65644-10.33576.65644-10.17046,10.151-.02769,6.81988.18714,7.04576,6.92713,7.04588q162.21356.0023,324.42712.042a72.842,72.842,0,0,1,8.34659.93794c-6.09141,5.91036-13.69713,7.295-21.79034,7.49638-5.03409.12532-10.05829.64369-15.08762.98837a16.39349,16.39349,0,0,0-3.296-.68443c-13.56611-.011-27.13234.04318-40.69856.081a42.99586,42.99586,0,0,0-4.87879-.5441q-75.15151-.0441-150.30291.00384a36.27391,36.27391,0,0,0-4.83133.63643c-1.48309-.119-2.966-.3412-4.44913-.342q-56.27982-.02873-112.55965-.00006c-1.31315.00067-2.62611.22168-3.93913.33974q-2.51018-.44017-5.02048-.88c-.56654-24.01526,1.85864-48.1128-1.98009-72.03817q-.478-2.99348-.95588-5.987Q1065.52469,592.07716,1080.015,591.5946Z"/><path class="a16f6ad5-1e25-4d1c-bfe9-20d5e32c3017" d="M511.20638,616.53034q-4.455.54-8.92993,1.08007-2.01014-6.51012-4.02-13.02a94.78194,94.78194,0,0,0-18.97-33.97c-18.22-20.67-40.46-31.29-68.57007-28.22009-21.12989,2.3-37.8,12.2301-51.33985,28.13a85.824,85.824,0,0,0-19.78,36.05c-.57006,1.72-1.28,3.39991-1.68017,5.15992-3.02,13.12011-4.88989,26.33007-2.40991,39.79l2.97,18.96a43.40269,43.40269,0,0,1-24.77-9.75c9.90014-.77,11.73-2.82,11.78-12.91993.10009-19.55-1.43994-39.25,4.9602-58.27,5.04981-11.97,11.23-23.25,20.02979-32.92994q12.65991-9.96019,25.33008-19.91015c2.55-1.07,5.10009-2.12989,7.6499-3.2a91.54793,91.54793,0,0,1,34.28-7.01c12.99-.22,25.22,2.94006,37.28,7.20007.49.25989.97.50989,1.46.7699a1.14508,1.14508,0,0,0,.8.25q11.44518,7.485,22.90014,14.97009c15.25,14.63,25.59986,32.01,29.73,52.89Q510.55147,609.55525,511.20638,616.53034Z"/><path class="f22f289d-35dc-4f2d-9c0a-2a463eba1ef2" d="M486.52645,697.4903c-6.65992,11.39013-15.94995,20.21008-26.92994,27.3601-9.43994,6.14991-19.93017,9.49-30.91015,11.47-1.09986.14991-2.2.3-3.29.45-1.29981.01-2.58984.01-3.88989.01-.7-.01-1.39991-.01-2.09986-.02-1.03-.02-2.07007-.05-3.1101-.08-29.82007-2.12-51.56006-17-66.74-42.25,12.60986.02,25.23.16,37.83007-.08,2.02979-.04,4.02-1.82006,6.04-2.8,13.66992,8.40991,28.02,10.22,43.15991,4.48,2.3899.48,4.78,1.36,7.17994,1.38C458.01644,697.55036,472.27645,697.4903,486.52645,697.4903Z"/><path class="a6a06cf8-2b86-4c54-80d6-90fc5c043763" d="M1081.12346,655.46386c-.1653-9.49453-.1653-9.49453,10.16937-10.15q49.89453-.316,99.791-.62881,98.826-.53624,197.65222-1.01539c14.31223-.07013,28.62481-.04824,42.93728-.06873q-2.479,6.1957-4.95833,12.39141c-2.64934-.15856-5.29856-.45489-7.94767-.45586Q1249.94544,655.47556,1081.12346,655.46386Z"/><path class="ba1c9c0a-45b0-4f0e-b6a6-af86a0cf187e" d="M1097.02411,633.53011c7.46494-4.99133,15.57937-7.9848,24.65878-7.985q155.02969-.00293,310.05939-.00189-.01337,4.48683-.0266,8.97348-164.44422.0064-328.88831-.029A35.223,35.223,0,0,1,1097.02411,633.53011Z"/><path class="f22f289d-35dc-4f2d-9c0a-2a463eba1ef2" d="M1081.12346,655.46386q168.822.02643,337.64389.07263c2.64911.001,5.29833.2973,7.94767.45586q-2.94542,3.74889-5.891,7.49747a72.79171,72.79171,0,0,0-8.34634-.93812q-162.21357-.07236-324.42712-.042C1081.3106,662.50962,1081.09577,662.28374,1081.12346,655.46386Z"/><path class="b1ae3a83-68ed-4a67-a8f8-acb3b3c958fb" d="M747.06649,479.70038c-7.27,1.1-14.53,1.53992-21.78,1.98-11.08008.69006-22.15992,1.33-33.23,2.08-19,1.27-37.99,2.64-56.98,3.91-10.91016.74-21.82007,1.33-32.73,2.07q-28.98009,1.93506-57.96,3.96008c-5.03.64-10.04,1.42-15.08007,1.88-5.60987.51-11.24.71-16.85987,1.08q-29.47521,1.94989-58.94018,3.94006-8.68506.58485-17.34986,1.17994a138.05547,138.05547,0,0,0-53.3601,3.99q-8.1299,3.48009-16.27,6.96-5.985,2.95514-11.98,5.91c-.34986.31006-.71.62-1.06006.92-.3.13-.59986.24-.89991.35q-8.61,7.35-17.21,14.69006-3.90013,3.525-7.82006,7.04993-4.515,6.46491-9.03,12.94006-4.99476,8.5049-10,17.01c-1.36011,4.21-2.55,8.48-4.13013,12.6-1.68994,4.41.67017,5.33,4.19018,5.36,7.28.05005,14.57007,0,21.86011-.01-6.40014,19.02-4.86011,38.72-4.9602,58.27-.05,10.1-1.87989,12.14991-11.78,12.91993-10.71-7.65992-16.56006-18.25-16.73-31.22-.37989-27.45-.08985-54.89991-.06006-82.35a11.20664,11.20664,0,0,1,.36011-1.94006c.04-1.19995.08007-2.3899.1101-3.59q.01466-11.52007.04-23.02991c-.03027-1.89013-.07007-3.77-.10009-5.66.16992-.77.33007-1.53.49-2.3q-.015-9.47993-.04-18.97c-.13013-2.28-.25-4.54993-.38013-6.83v-.01c.33008-1.76.67017-3.51,1.01025-5.27q12,.03,24,.05c2.32984.02991,4.66993.08985,7,.08985q204.345,0,408.68994-.00989Z"/><path class="f22f289d-35dc-4f2d-9c0a-2a463eba1ef2" d="M1413.78646,511.75031c-1.22,1.31-2.27,2.88012-3.72,3.85009-1.11.74-2.73.74-4.13,1.06995-.05994-6.64-2.72009-9.07-10.07-9.07q-90.16515,0-180.33007.01c-1.82007,0-3.64991.2-5.47.29993-1.3501-.43-2.68995-1.22-4.03-1.22q-75.015-.08991-150.03.02991c-1.29993,0-2.6,1.19006-3.89991,1.83008l-8.07006-4.89c2.26-.68,4.54-1.33,6.8-2.04993,2.45-.79,4.87989-1.63012,7.30994-2.45007,1.62.22009,3.25.44006,4.87.66.35009.04.71.08,1.07006.12q4.97993.4499,9.95.9a34.41439,34.41439,0,0,0,5.27.79q156.15.05988,312.29,0a34.35136,34.35136,0,0,0,5.26-.81006,2.31735,2.31735,0,0,1,.82-.26c2.4.03,4.78992.06006,7.19006.09Q1409.32149,506.20044,1413.78646,511.75031Z"/><path class="a2b0f651-2d00-4516-9681-917c2e317e1e" d="M1431.67335,643.60094c-14.31247.02049-28.62505-.0014-42.93728.06873q-98.82616.484-197.65222,1.01539-49.89618.27076-99.791.62881-.58265-.43039-1.16706-.85915.39-3.02677.78009-6.0516c1.164.04159,2.32692.11734,3.48989.11734q168.662-.00174,337.324-.01476Q1431.69646,641.05332,1431.67335,643.60094Z"/><path class="a6a06cf8-2b86-4c54-80d6-90fc5c043763" d="M393.42659,691.55036c-2.02.98-4.01025,2.76-6.04,2.8-12.60009.24-25.22021.1-37.83007.08q-5.53492-11.97-11.08008-23.94006l-2.97-18.96q16.47-.045,32.92993-.07007,3.90015,10.18506,7.8,20.37011,2.5653,3.86994,5.1101,7.74,4.01991,4.14,8.02,8.29Q391.39132,689.70538,393.42659,691.55036Z"/><path class="e821b105-f702-42cb-b7e1-d4b4f599f5dc" d="M1431.71983,638.5057q-168.662.00987-337.32408.01476c-1.163,0-2.32588-.07575-3.48989-.11734q3.05815-2.43757,6.11825-4.87289a35.23533,35.23533,0,0,0,5.80326.95752q164.44421.06384,328.88831.029Q1431.71769,636.51117,1431.71983,638.5057Z"/><path class="ed35af9f-6f06-429d-92cc-240b7f3bdd59" d="M1339.95187,671.37052c13.5661-.03738,27.13233-.09153,40.69844-.08056a16.39349,16.39349,0,0,1,3.296.68443q-5.23391,11.23268-10.469,22.471-21.80687.01381-43.61324.02732Q1334.9082,682.92181,1339.95187,671.37052Z"/><path class="b3e3c886-92c2-43cf-870e-6b2afc7be63a" d="M392.4385,438.83576c-.98751.61615-1.96968,1.7583-2.96332,1.76833-12.1048.12221-24.21153.109-36.31706.03073a15.40162,15.40162,0,0,1-3.78148-1.00941q23.01612-17.34289,46.03385-34.686c-.08494,3.45419,2.46386,2.64962,4.48493,2.832,4.88992.44144,9.77255.9631,14.65814,1.45238-6.5445,4.43042-13.03763,8.93914-19.647,13.27068C387.275,427.496,386.55259,431.88708,392.4385,438.83576Z"/><path class="fdef636e-e3eb-401e-a226-bc9b524c85ae" d="M1329.86381,694.47261q21.80668-.01355,43.61349-.0272-5.28369,7.49916-10.56835,14.99922c-12.44949.00933-24.89874.06446-37.347-.02153a33.45568,33.45568,0,0,1-5.76422-1.0346Q1324.83162,701.43135,1329.86381,694.47261Z"/><path class="b60b977b-4485-4296-965f-a1bcf91fb96c" d="M1300.104,736.69432q-14.65374-.18084-29.306-.3617c13.08252-2.92133,25.35195-7.69146,36.13159-15.855,3.76327.328,7.52069.79542,11.29116.957,9.92422.42518,19.85417.71736,29.78192,1.06253-12.60089,9.34768-26.84638,13.7366-42.43746,14.069C1303.74464,736.605,1301.92437,736.65145,1300.104,736.69432Z"/><path class="aab1900f-3643-4149-807b-af1b991ded26" d="M1348.00262,722.49723c-9.92775-.34523-19.8577-.63741-29.78192-1.06259-3.77047-.16155-7.52789-.629-11.29141-.95709q5.54061-5.44908,11.081-10.89888.89244-.59623,1.78672-1.1909a33.40884,33.40884,0,0,0,5.765,1.03533c12.44827.086,24.89752.03086,37.347.02159Z"/><path class="a4af14a0-9e1d-4ac7-a5f0-33ba043249fa" d="M414.55356,409.22393c-4.88559-.48934-9.76822-1.011-14.65814-1.45244-2.02107-.18243-4.56987.62214-4.48493-2.832q11.00418-7.12035,22.01008-14.24274,1.50537-.50577,3.01133-1.01081c1.43755.68205,2.833,1.82962,4.31984,1.96351,5.89805.53111,11.82464.74538,17.74017,1.07729q-6.51348,3.99231-13.026,7.98413Q422.00976,404.96736,414.55356,409.22393Z"/><path class="ad6b3ea5-62fa-487e-b74d-aa1bcf8e45ae" d="M1431.75606,576.57928c-9.9219.01793-10.02486.01658-9.89433-9.85715.08857-6.69906.51677-13.39362.79309-20.09019q2.59079,1.39309,5.18169,2.78632c.98864,1.21968,2.74634,2.38326,2.84015,3.66814C1431.24686,560.902,1431.43827,568.74529,1431.75606,576.57928Z"/><path class="b4bd5f9a-7975-4e9a-8709-02267ae4efbd" d="M1427.83651,549.41826q-2.59079-1.3932-5.18169-2.78632.16578-9.01509.33182-18.03063C1426.958,534.99168,1428.28314,541.99866,1427.83651,549.41826Z"/><path class="beffaf3d-0dcc-4b32-ad22-a2796f224e3a" d="M297.81649,510.65033c-.15992.77-.32007,1.53-.49,2.3q.03-14.055.06982-28.1c.13013,2.28.25,4.54993.38013,6.83Q297.80648,501.16029,297.81649,510.65033Z"/><path class="ad6b3ea5-62fa-487e-b74d-aa1bcf8e45ae" d="M1404.86653,500.65033c-2.40014-.02991-4.79-.05994-7.19006-.09.39-2.03.77-4.06,1.16-6.10009Q1401.85152,497.56538,1404.86653,500.65033Z"/><path class="f22f289d-35dc-4f2d-9c0a-2a463eba1ef2" d="M1177.0865,439.55036q-143.595.015-287.17016,0c-11.73-.01-23.58984,1.12-34.80982-3.69q-4.14-4.53-8.3-9.05a51.18581,51.18581,0,0,1,7.3-1.06q64.67982-.08991,129.36988-.07c2.12011,0,4.24-.44006,7.63012-.80994-5.28-7.20007-9.65-13.17-14.02-19.14013q-7.5-10.485-15.01-20.97-7.485-10.485-14.99-20.99-9.54015-13.86-19.08007-27.73,38.01012.33,76.03.64c24.41,11.9,48.87,23.70007,73.22,35.72,13.27,6.55994,26.39,13.43,39.52,20.28q25.695,13.39507,51.27,26.99c6.01,3.20007,11.86,6.72,17.79,10.1C1187.21639,437.15033,1185.09651,439.55036,1177.0865,439.55036Z"/><path class="a7578737-ad71-4d6c-991e-57287d2a8918" d="M1004.03646,336.68036q-38.025-.31512-76.03-.64c-.83-.06006-1.64991-.19-2.48-.19q-64.01991-.015-128.05-.01a18.74592,18.74592,0,0,0-2.49.05994c-7.93994,1.08-11.94995,9.46008-7.36988,16.04,3.39991,4.88,7.43995,9.30994,11.18995,13.94006q7.72485,10.27479,15.46,20.55994h-.01c-1.62989.77991-3.22,2.1-4.8899,2.2-5.10009.31006-10.23.14-15.34008.15-8.23-10.64-16.49-21.25-24.67994-31.91993-8.68994-11.33007-19.83007-19.41015-34.16992-20.03-24.59009-1.06-49.23-.74-73.85009-.84008a4.19218,4.19218,0,0,0-3.02,2.3601c-3.43995,9.49-6.66016,19.04993-9.93995,28.59q-1.53,3.38983-3.04,6.77991-7.455-2.01-14.89991-4.02c0-.61988-.01025-1.23-.02-1.84986,3.71-10.18,7.41993-20.37011,11.47-31.48-11.38012,1.16993-21.78,2.11988-32.14013,3.32-35.89991,4.15-70.92993,12.28992-104.59009,25.29993-21.26978,8.23-41.7898,18.42-62.6499,27.73-5.91992-.34-11.8501-.54993-17.74-1.08-1.49-.13-2.8899-1.27991-4.32007-1.96,22.44018-13.8,46.37012-24.51,70.96-33.78a469.50387,469.50387,0,0,1,95.17017-24.78992c13.59008-2.07006,27.34985-4.04,41.05-4.15014,84.54981-.7,169.10987-.87989,253.66993-1.16992,23.31-.08008,46.63-.46,69.92993.17993C969.3265,326.48029,987.11653,329.71027,1004.03646,336.68036Z"/><path class="a6a06cf8-2b86-4c54-80d6-90fc5c043763" d="M938.49642,479.69037c-2.1399-.04-4.28-.13-6.42993-.16l-42.17017.03q21.09009-.015,42.17017-.04C934.2065,479.56036,936.35652,479.65033,938.49642,479.69037Z"/><path class="ed35af9f-6f06-429d-92cc-240b7f3bdd59" d="M1210.06418,507.91006c1.82551-.10355,3.65091-.29718,5.47643-.29766q90.16228-.0237,180.32468-.0086c7.34819.001,10.01315,2.42931,10.07475,9.06806q-2.13879,10.452-4.278,20.90421-86.97384.01593-173.948.07416a47.28736,47.28736,0,0,0-6.78836.97069c-4.46278-6.06928-8.9812-12.09923-13.34322-18.24017-.91154-1.28317-1.24605-2.9761-1.847-4.48186Q1207.89915,511.90283,1210.06418,507.91006Z"/><path class="fdef636e-e3eb-401e-a226-bc9b524c85ae" d="M1220.92567,538.62092a47.28736,47.28736,0,0,1,6.78836-.97069q86.97421-.09678,173.948-.07416-2.01492,9.9951-4.029,19.99079-78.02118.01381-156.04334.08934c-1.97972.00336-3.95785.91959-5.93672,1.41045Q1228.2893,548.84379,1220.92567,538.62092Z"/><path class="b4bd5f9a-7975-4e9a-8709-02267ae4efbd" d="M1074.11582,536.10531c-5.08112-3.9269-10.36809-7.625-15.1294-11.90737a8.97169,8.97169,0,0,1-2.50777-6.61662c.09771-1.145,3.39094-2.76436,5.31308-2.87016,6.42342-.35347,12.87916-.12063,19.32167-.11222.22556,1.75178-.12913,3.94313.79631,5.166,2.08836,2.75954,4.8783,4.9762,7.26121,7.52729,8.67836,9.291,19.7753,14.97885,30.87237,20.60667,2.996,1.51937,6.11117,2.8817,9.57812-.28888,7.19631-6.58143,14.7464-12.78848,22.34138-18.91374,2.08805-1.6839,2.33375-2.971.78748-4.90052q3.09418.36627,6.18387.73468c2.93726,1.79239,6.106,3.29571,8.76918,5.43q13.28424,10.64613,26.18334,21.7644c.99962.86427.7427,3.18179,1.06831,4.8255-21.774.00378-43.54871.10173-65.32148-.06037a89.66,89.66,0,0,1-14.82692-1.55047C1099.60977,552.25677,1086.326,545.30816,1074.11582,536.10531Z"/><path class="ad6b3ea5-62fa-487e-b74d-aa1bcf8e45ae" d="M1080.015,591.5946q-14.49033.48253-28.98036.96513c-.9923-2.74435-2.15777-5.44016-2.94774-8.24179a94.49519,94.49519,0,0,0-17.959-34.74564q-7.0533-8.449-14.1066-16.89821,20.58732.46407,41.1747.92806C1070.11264,550.84425,1076.85477,570.515,1080.015,591.5946Z"/><path class="f9c59779-38af-4b99-b829-cf49254f9acd" d="M1235.653,559.06665c1.97887-.49086,3.957-1.40709,5.93672-1.41045q78.02192-.131,156.04334-.08934-3.976,5.00285-7.94986,10.00576c-4.54843.69327-9.09576,1.97108-13.64821,1.98888q-60.31149.23639-120.62456.05379c-3.78645-.00573-7.5723-.53965-11.35838-.82835Q1239.85244,563.92679,1235.653,559.06665Z"/><path class="ad6b3ea5-62fa-487e-b74d-aa1bcf8e45ae" d="M1219.04391,566.54552c5.00628,4.85924,10.01267,9.71853,16.159,15.68438-3.53429.63192-5.51986,1.292-7.507,1.29641-29.76729.06592-59.56227.752-89.28441-.40726-8.35977-.32608-16.57351-5.97378-24.70966-9.5127-2.487-1.08168-4.49243-3.27016-6.71784-4.95248a45.40537,45.40537,0,0,1,6.76994-1.0113c33.21227-.06586,66.42479-.02811,99.63706-.09019A32.21954,32.21954,0,0,0,1219.04391,566.54552Z"/><path class="ae0cd842-97a3-404a-8af7-e77533e58d32" d="M1152.74807,523.79691c1.54847,1.92832,1.30277,3.21546-.78528,4.89936-7.595,6.12526-15.14507,12.33231-22.34138,18.91374-3.46695,3.17058-6.58207,1.80825-9.57812.28888-11.09707-5.62782-22.194-11.3157-30.87237-20.60667-2.38291-2.55109-5.17285-4.76775-7.26121-7.52729-.92544-1.22286-.57075-3.41421-.79631-5.166,10.60006-.10812,21.19952-.19978,31.79824-.33852,1.97289-.02592,3.94333-.24089,5.91574-.36847q3.61553.30855,7.22912.6168,11.37051,3.61762,22.74152,7.23524,1.06629.45381,2.1327.90763l.06527.04348,1.09026.95465A4.2338,4.2338,0,0,1,1152.74807,523.79691Z"/><path class="a6b68581-2ee2-4d15-beaf-716c949307f3" d="M1219.04391,566.54552a32.21954,32.21954,0,0,1-5.653,1.00686c-33.21227.06208-66.42479.02433-99.63706.09019a45.40537,45.40537,0,0,0-6.76994,1.0113c-10.17467-5.53195-18.44746-13.34038-25.85475-22.0695-2.70181-3.18393-4.696-6.96794-7.01326-10.47857,12.21008,9.20236,25.49383,16.151,40.69063,18.83367a89.66,89.66,0,0,0,14.82692,1.55047c21.77277.1621,43.54749.06415,65.32135.06037q2.88852.13383,5.77716.26785c2.976.13971,5.12789-.71968,5.11289-4.21012Q1212.44445,559.57681,1219.04391,566.54552Z"/><path class="a6a06cf8-2b86-4c54-80d6-90fc5c043763" d="M1126.05687,514.50875q-3.61444-.30837-7.22949-.6168c-14.59074-.11-29.18818-.54507-43.76745-.20307a46.23337,46.23337,0,0,1-22.95227-5.13769c1.29954-.63869,2.59738-1.832,3.89747-1.83447q75.01692-.14189,150.0341-.02708c1.34156.00171,2.68216.79335,4.02409,1.21859q-2.16332,3.99642-4.328,7.99066-31.37767-.04922-62.75753-.10234-5.57391-.66091-11.14526-1.321-1.85993-.16456-3.72-.32907Q1127.08473,514.32757,1126.05687,514.50875Z"/><path class="a11f0561-5731-4e9d-969e-737c35e770ff" d="M1383.47813,586.64425q-.01848,3.44482-.03635,6.88977-61.27476.01582-122.55036.03147c-.06747-1.16181-.0649-2.33284-.21471-3.48385-.566-4.34788,1.28947-5.85359,5.65332-5.84,37.1389.11551,74.27817.04928,111.41731.12008,1.701.00323,3.40034.79408,5.10045,1.2181Q1383.1629,586.112,1383.47813,586.64425Z"/><path class="a6b68581-2ee2-4d15-beaf-716c949307f3" d="M1057.196,533.60215q-20.58732-.46406-41.17421-.92855-2.88843-2.05318-5.77783-4.10534-9.61627-6.45038-19.23254-12.90081-.96767-.56423-1.93532-1.12839c1.738-.63357,3.46854-1.791,5.21519-1.81581,11.56382-.164,23.133-.19911,34.69572.001,2.64861.04586,5.2566,1.31549,7.92864,1.73018.9801.152,2.09146-.5405,3.14293-.84774Q1048.6273,523.60438,1057.196,533.60215Z"/><path class="f49b2509-8c97-47bf-bd96-460a3743b9d4" d="M1260.96632,607.54712q-.002-3.49485-.00415-6.98966,61.19332-.00567,122.38652-.0114-.013,3.44244-.02378,6.88531Q1322.14788,607.48974,1260.96632,607.54712Z"/><path class="a1a579c9-98af-42a5-a315-ae798770ee99" d="M1383.34869,600.54606q-61.19331.00576-122.38652.0114-.03531-3.49595-.07075-6.99191,61.27548-.01583,122.55036-.03153Q1383.39474,597.04,1383.34869,600.54606Z"/><path class="b1e6c600-42a0-4615-b91e-19cfdf45f6f7" d="M1008.16646,480.58038q-1.06494,5.08485-2.14,10.16993c-7.05-2.33-14.04-4.87989-21.16993-6.94-13.67-3.93994-27.71008-4.61-41.84008-4.14-1.51.04993-3.01.03992-4.52.02-.53992-.01-1.06995-.02-1.60987-.04-.53-.01-1.07006-.02991-1.60009-.03992a.0098.0098,0,0,0-.01-.01c-.46-.01-.91993-.02-1.3899-.03-.08007,0-.15014-.01-.2301-.01l-1.59-.03v-.01a7.19083,7.19083,0,0,0,.07995-.8c.35-.01.69006-.02991,1.04-.03992,1.30994.01,2.62.04993,3.93005.02,3.27-.08,7.46.98,9.52991-.65,1.77-1.39,1-5.89,1.6-8.97.17-.88,1.21008-1.60009,1.85009-2.39,19.01.4,37.1399,4.83,54.69,11.91A26.163,26.163,0,0,1,1008.16646,480.58038Z"/><path class="ea38a0ae-44c1-484b-b69b-3c5709fac09e" d="M1260.96632,607.54712q61.18034-.05763,122.35859-.11575-.28749,2.52787-.57069,5.05652a27.8074,27.8074,0,0,1-5.19061,1.02448c-10.78525.09531-21.57172.06568-32.3577.04451q-41.56167-.08159-83.12322-.19088Q1261.52457,610.4566,1260.96632,607.54712Z"/><path class="f22f289d-35dc-4f2d-9c0a-2a463eba1ef2" d="M1040.05648,513.61041c-1.05005.29993-2.16,1-3.14.84-2.67-.41-5.27991-1.68005-7.93-1.7301-11.55994-.2-23.12989-.15992-34.69995,0-1.74.03-3.47,1.19006-5.21,1.82007q-13.5-5.19-27-10.37c4.06994-.5,8.13-1.4,12.19995-1.45007,14.93005-.17993,29.87-.02991,44.80005-.11988a25.09335,25.09335,0,0,0,5.1-1.08007Q1032.12637,507.56538,1040.05648,513.61041Z"/><path class="a6a06cf8-2b86-4c54-80d6-90fc5c043763" d="M1262.08269,613.366q41.56167.09725,83.12322.19088c10.786.02117,21.57245.0508,32.3577-.04451a27.8074,27.8074,0,0,0,5.19061-1.02448c2.20943,2.74259.05843,3.84336-1.94691,4.76806a7.4244,7.4244,0,0,1-2.952.21448q-55.85967.01245-111.71936-.06C1263.92382,617.40487,1259.366,618.74488,1262.08269,613.366Z"/><path class="e821b105-f702-42cb-b7e1-d4b4f599f5dc" d="M1244.05209,568.78694c3.78608.2887,7.57193.82262,11.35838.82835q60.3124.0912,120.62456-.05379c4.55245-.0178,9.09978-1.29561,13.64833-1.98888.25777,1.05454,1.06427,2.69094.6756,3.05641a25.87522,25.87522,0,0,1-4.57148,2.90762,19.2435,19.2435,0,0,0-4.17293-.93886q-66.45725-.044-132.91461.02141Q1246.376,570.70313,1244.05209,568.78694Z"/><path class="b3e3c886-92c2-43cf-870e-6b2afc7be63a" d="M1205.84489,552.608c.015,3.49044-2.13685,4.34983-5.11289,4.21012q-2.88852-.13566-5.77716-.26785c-.32548-1.64371-.06856-3.96123-1.06818-4.8255q-12.87708-11.13215-26.18334-21.7644c-2.66313-2.13427-5.83192-3.63759-8.76844-5.42876q-.39765-2.01633-.797-4.03515c12.56966,3.47659,23.3471,10.30818,33.32012,18.39019C1196.59005,543.04558,1201.07016,548.00842,1205.84489,552.608Z"/><path class="a2b0f651-2d00-4516-9681-917c2e317e1e" d="M1248.69994,572.6192q66.45725-.03129,132.91461-.02141a19.24015,19.24015,0,0,1,4.17293.93892c-2.60506.38865-5.2089,1.112-7.81421,1.11656q-60.39293.10667-120.78571-.04123C1254.35619,574.60277,1251.5291,573.31332,1248.69994,572.6192Z"/><path class="ad6b3ea5-62fa-487e-b74d-aa1bcf8e45ae" d="M1058.14644,499.16034c-2.43.82-4.86,1.66-7.30994,2.45007-2.26.72-4.54,1.36988-6.8,2.04993q-6.945-6.225-13.89-12.46Q1044.1564,495.17541,1058.14644,499.16034Z"/><path class="a11f0561-5731-4e9d-969e-737c35e770ff" d="M1158.13789,520.4965q.39892,2.01815.797,4.03515-3.092-.36975-6.18461-.7359a4.4422,4.4422,0,0,0-.66536-.14606q-.54569-.47733-1.08892-.95459l-.06514-.04348q-1.06649-.45381-2.13283-.90763-11.37089-3.61763-22.74152-7.23524,1.02841-.18122,2.05475-.36249,1.85937.16448,3.7213.32925,5.5719.66029,11.14526,1.321,6.98715,1.99712,13.97173,3.99326.57845.36243,1.15651.72547Z"/><path class="b3e3c886-92c2-43cf-870e-6b2afc7be63a" d="M1158.10605,520.51528q-.57825-.36289-1.15651-.72547Q1157.52761,520.1528,1158.10605,520.51528Z"/><path class="ea38a0ae-44c1-484b-b69b-3c5709fac09e" d="M1383.47813,586.64425q-.3151-.5322-.63034-1.06442Q1383.1629,586.112,1383.47813,586.64425Z"/><path class="e49d68a4-51b3-4b64-a80e-902cc66d5577" d="M869.16634,454.69037H804.24642q-.46509-6.015-.90992-12.02c1.01-1.03,1.84986-2.53,3.07007-2.97,1.86988-.67,4-.6,6.02-.85q2.75977-1.125,5.52979-2.25,18.55518.0749,37.12012.15992Q862.11141,445.71528,869.16634,454.69037Z"/><path class="a6b68581-2ee2-4d15-beaf-716c949307f3" d="M803.33205,442.66585q.457,6.01376.914,12.02757c-5.429,7.52565-10.16411,8.07664-16.93912,1.97138q-1.06665-8.44977-2.13343-16.89958Q794.25286,441.21553,803.33205,442.66585Z"/><path class="f6f59e4f-1b51-4ac0-81c6-1eeb9dc0d0c1" d="M933.18648,478.68036c-.35.01-.69006.02991-1.04.03992q-6.50994-.04487-13.02991-.08985.015-6.97521.03992-13.97009c4.51.28,10.47009-1.02991,13.08,1.33C934.50643,468.07037,933.01644,474.29035,933.18648,478.68036Z"/><path class="bbce57db-dfc8-44b7-8a50-dc5faf5d88ef" d="M932.14644,478.72028a7.19083,7.19083,0,0,1-.07995.8v.01l-42.17017.03q-42.16479.03-84.32983.06006-21.09009.015-42.17017.01a22.15492,22.15492,0,0,1-4.27979-.83007q68.53492-.07508,137.06983-.15,11.46021-.015,22.93017-.0199Q925.62649,478.6753,932.14644,478.72028Z"/><path class="ed35af9f-6f06-429d-92cc-240b7f3bdd59" d="M831.50643,670.55036c-4.01,13.83007-10.07984,26.53-20.22,37.01a33.76193,33.76193,0,0,0-5.74-1.03c-9.11988-.11-18.34986.8-27.34986-.28-9.99023-1.19-14.80029,4.87011-19.9602,11.23-4.57007,2.98-8.82984,6.69006-13.78,8.77-9.21,3.88012-18.81983,6.81-28.25977,10.14a89.19006,89.19006,0,0,1-37.01025-4.75c-2.6499-1.27991-5.29981-2.54993-7.95-3.83a84.74251,84.74251,0,0,1-32.77-31.42993q66.61522.05988,133.2102.06995c1.35987-.01,3.39991-.39,3.96973-1.31006,4.70019-7.58,9.68018-15.09,10.45019-24.38q14.06984-.11994,28.12989-.22,8.49023-.51,16.98-1.02C831.30648,669.86041,831.40657,670.20038,831.50643,670.55036Z"/><path class="f22f289d-35dc-4f2d-9c0a-2a463eba1ef2" d="M1005.2065,691.6004c-7.5,16.11988-20.18005,27.42994-35.31006,35.72-7.81994,4.28-16.97,6.12-25.5199,9.06995-12.5,1.13-24.68-.59-36.67993-4.00989q-3.4801-1.48517-6.9602-2.97009c-1.34009-.94006-2.61988-1.96-4.02-2.78992-14.42993-8.63012-25.8999-20.07006-33.55005-35.16015a37.534,37.534,0,0,1,5.79-.92993c10.09009-.09,20.18994.02,30.29-.09a37.59808,37.59808,0,0,0,6.23-1.13c20.5,14.96,43.32007,12.04,57.68-.69995a4.36059,4.36059,0,0,0,.95007-.21008,25.23838,25.23838,0,0,0,5.06995,1.04c9.39.11,18.78992-.1,28.17.15C999.98641,689.66034,1002.59651,690.90033,1005.2065,691.6004Z"/><path class="fdef636e-e3eb-401e-a226-bc9b524c85ae" d="M944.37312,736.38879c8.54922-2.94615,17.70024-4.79331,25.51951-9.07282,15.13275-8.28235,27.81672-19.59677,35.3174-35.71841q2.90736-5.088,5.817-10.17468a17.35263,17.35263,0,0,0,4.10864,1.04039c13.22318.05745,26.44685.00293,39.67034-.01958-8.2554,20.03263-22.00669,35.16333-40.83556,45.76533q-3.89176,1.736-7.78353,3.47172c-11.78274,4.55742-24.06522,5.27642-36.52618,4.93C961.236,736.37659,952.80266,736.45191,944.37312,736.38879Z"/><path class="ed35af9f-6f06-429d-92cc-240b7f3bdd59" d="M1318.01111,709.57953q-5.54115,5.449-11.08182,10.898c-10.77939,8.16361-23.04882,12.93374-36.13134,15.85507q-14.45611-.85274-28.90943-1.70555-5.91865-1.62919-11.83732-3.25833c-.51458-.33145-1.01536-.687-1.54579-.99069-9.65534-5.52768-19.14014-11.278-26.33645-20.03628a34.83377,34.83377,0,0,1,5.35213-.81865Q1262.76611,709.49677,1318.01111,709.57953Z"/><path class="fdef636e-e3eb-401e-a226-bc9b524c85ae" d="M428.68294,736.3186c10.98849-1.98,21.46913-5.316,30.91382-11.46872,10.98132-7.15364,20.267-15.965,26.9325-27.35916q3.4417-5.4937,6.88523-10.98748c1.89029.666,3.77312,1.88313,5.67214,1.90887,12.48036.16941,24.96416.08172,37.44687.07794-3.67562,5.82418-7.01347,11.898-11.09786,17.42005-8.29526,11.21514-19.62027,18.73463-31.98257,24.82l-11.90949,3.954Z"/><path class="aab1900f-3643-4149-807b-af1b991ded26" d="M716.20023,736.38678c9.44057-3.32572,19.0473-6.25718,28.25487-10.136,4.94917-2.08475,9.21317-5.79541,13.78624-8.77254a40.87122,40.87122,0,0,0,5.67663.967c11.77907.38371,23.56181.65326,35.34339.96062q-6.50388,4.51419-13.00762,9.02825-3.0705,1.38613-6.141,2.77222C759.33971,739.48314,737.60452,735.89451,716.20023,736.38678Z"/><path class="b1ae3a83-68ed-4a67-a8f8-acb3b3c958fb" d="M630.42659,369.71027q-3.54015,10.02007-7.10009,20.04c-.39991.65-.79,1.29-1.18018,1.94006q-2.48986,7.02008-4.98,14.03992-2.03979,5.95513-4.07984,11.91-1.59008,5.025-3.17016,10.04c-.25.33-.48975.66-.73975.99q-93.66027.015-187.31006,0a28.25242,28.25242,0,0,1-5.24-.98c-.13012-.69006-.25-1.38-.38012-2.06995q10.59009-4.95008,21.16992-9.91015,9.51014-4.99476,19.02-9.97c2.01025-.65992,4.01025-1.30994,6.02-1.97,11.21-4.27,22.40014-8.58,33.64013-12.77a42.80558,42.80558,0,0,1,6.23-1.32c8.33984-2.59,16.54-5.85,25.06005-7.64,21.18995-4.42994,42.42994-8.81006,63.83985-11.99,12.88012-1.91993,26.1101-1.54,39.18017-2.19C630.41634,368.48029,630.42659,369.09039,630.42659,369.71027Z"/><path class="f22f289d-35dc-4f2d-9c0a-2a463eba1ef2" d="M609.17659,428.67035a3.93175,3.93175,0,0,1-.08008.98c-3.16992,9.8-3.16992,9.8-13.51,9.8q-96.13512,0-192.25-.03c-3.63012,0-7.26-.38-10.90014-.58-5.87988-6.95007-5.15991-11.34008,2.47021-16.35009,6.60987-4.33,13.09986-8.84,19.64991-13.27q7.455-4.24494,14.90991-8.51c-.3,3.01,1.67016,3.06006,3.84009,3.04,5.99-.04993,11.98-.16993,17.96.07006,1.75.06995,3.45,1.25,5.16992,1.91993q-9.50977,4.98009-19.02,9.97-10.58973,4.95008-21.16992,9.91015c.13012.68994.25,1.37989.38012,2.06995a28.25242,28.25242,0,0,0,5.24.98Q515.51144,428.7154,609.17659,428.67035Z"/><path class="f22f289d-35dc-4f2d-9c0a-2a463eba1ef2" d="M733.24642,438.58038q-54.9148.045-109.83985.09.46473-2.5501.90992-5.1v-.01q1.935-4.56,3.8601-9.11c1.66992.42,3.33985,1.21,5.02,1.22q40.75488.10492,81.50977,0a8.856,8.856,0,0,0,2.31006-.38c.58007-.15992,1.16015-.34,1.73-.5.18994-.06006.39013-.11.58008-.15v.01c.31982.34.6499.68.97,1.02C722.42659,432.17035,727.70638,435.50031,733.24642,438.58038Z"/><path class="ad6b3ea5-62fa-487e-b74d-aa1bcf8e45ae" d="M812.42659,438.8504c-2.02.25-4.15014.17994-6.02.85-1.22021.43994-2.06006,1.93994-3.07007,2.97q-9.09008-1.455-18.15991-2.91-4.93506-.42-9.8601-.84c-1.65015-1.07-3.17017-2.66-4.97-3.1-8.12011-1.96-16.29-3.68994-24.48-5.34008-8.5-1.7-17.04-3.21-25.57006-4.80994-.32007-.34-.65015-.68-.97-1.02v-.01c-.37989-4.31995-.75-8.62-1.12989-12.93994.08985-1.04.16992-2.09.25-3.13.32984.31006.65991.62.98975.91993v.01c-.96,3.35009,1.14014,4.47,3.81006,5.05,7.27,1.57006,14.57007,3.02,21.84008,4.62,17.93995,3.94006,35.86988,7.86,53.77,11.98,2.59009.6,3.41993.07,3.32984-2.41.31006.55.83008,1.06006.90014,1.64013,1.09009,8.0199,1.07984,8.0199,8.84986,8.40992C812.09651,438.80036,812.25643,438.83038,812.42659,438.8504Z"/><path class="b3e3c886-92c2-43cf-870e-6b2afc7be63a" d="M638.12654,394.75031c-.29,1.3-.57006,2.59008-.85009,3.89q-2.09987,5.94012-4.21,11.87-2.4452,6.975-4.8899,13.94006-1.93506,4.55988-3.8601,9.11v.01q-7.20008-2.955-14.40015-5.89,1.59009-5.025,3.17016-10.04,2.04017-5.955,4.07984-11.91,2.49024-7.0199,4.98-14.03992c.39014-.65.78027-1.29,1.18018-1.94006Q630.7214,392.25537,638.12654,394.75031Z"/><path class="a6b68581-2ee2-4d15-beaf-716c949307f3" d="M720.2999,425.67351c8.52281,1.59571,17.06283,3.10581,25.5635,4.8116,8.18976,1.64344,16.36776,3.37054,24.48378,5.33747,1.79953.43607,3.31781,2.03206,4.96625,3.09529q-20.9931.16892-41.98779.33584a4.76027,4.76027,0,0,0-.07991-.66948C727.7111,435.50281,722.42468,432.17261,720.2999,425.67351Z"/><path class="ad6b3ea5-62fa-487e-b74d-aa1bcf8e45ae" d="M733.24573,438.58423a4.76027,4.76027,0,0,1,.07991.66948c-3.815.11038-7.63.31453-11.44512.31773q-46.66575.03924-93.33138-.02421a30.51375,30.51375,0,0,1-5.13942-.87433Q678.328,438.62848,733.24573,438.58423Z"/><path class="ad6b3ea5-62fa-487e-b74d-aa1bcf8e45ae" d="M1396.85652,500.82037a34.35136,34.35136,0,0,1-5.26.81006q-156.15014.05988-312.29,0a34.41439,34.41439,0,0,1-5.27-.79c1.33007-.05,2.66-.15,3.99-.15q157.42493-.015,314.84008,0C1394.19649,500.69037,1395.52645,500.77033,1396.85652,500.82037Z"/><path class="f33b0f39-5b8d-4304-a828-6416dd18dffb" d="M1202.169,710.34177c-10.74621-11.05109-17.79576-24.21517-22.23012-38.8744a36.22928,36.22928,0,0,1,4.83121-.63668q75.15151-.05113,150.30291-.00384a43.001,43.001,0,0,1,4.87891.5441q-5.04378,11.55056-10.08781,23.10178-5.033,6.95816-10.06634,13.91577-.89484.594-1.78746,1.19017-55.24374-.04518-110.48917-.05555A34.83377,34.83377,0,0,0,1202.169,710.34177Z"/><path class="beffaf3d-0dcc-4b32-ad22-a2796f224e3a" d="M1051.99024,598.54669c3.83873,23.92531,1.41355,48.02285,1.98119,72.03775-3.63378-.81823-7.5138-1.08235-10.85632-2.561-8.9052-3.93928-13.3753-11.64374-16.03264-20.60807.00445-8.07372.1481-16.15183-.03721-24.22249-.12-5.23075-.72056-10.45052-1.10575-15.67517q-.36379-3.98088-.72764-7.96175Q1038.60106,599.0513,1051.99024,598.54669Z"/><path class="b1e6c600-42a0-4615-b91e-19cfdf45f6f7" d="M1051.99024,598.54669q-13.38918.50458-26.77837,1.00929a100.7106,100.7106,0,0,0-27.2589-47.9074c7.34093-.34737,14.68522-.63851,22.02139-1.067,3.3926-.19813,6.76951-.66454,10.15351-1.00929a94.49519,94.49519,0,0,1,17.959,34.74564c.79,2.80163,1.95544,5.49744,2.94774,8.24179Q1051.51222,595.553,1051.99024,598.54669Z"/><path class="ed35af9f-6f06-429d-92cc-240b7f3bdd59" d="M1027.08216,647.41417c2.65765,8.96555,7.12775,16.67,16.033,20.60929,3.34252,1.47863,7.22254,1.74275,10.85632,2.561q2.50861.44045,5.01938.88036-2.09259,5.49024-4.18494,10.97938c-13.22331.022-26.447.07654-39.67016.01909a17.37023,17.37023,0,0,1-4.10827-1.03984q2.99922-11.44335,5.99808-22.88791,1.00746-5.50524,2.01412-11.01012Z"/><path class="a6b68581-2ee2-4d15-beaf-716c949307f3" d="M1024.17647,501.52033a25.09335,25.09335,0,0,1-5.1,1.08007c-14.93006.09-29.87-.06-44.80005.11988-4.06995.05-8.13.95007-12.19995,1.45007a124.1448,124.1448,0,0,0-59.96,1.1c-.32006.06-.65014.12-.97021.18994-.65991.07007-1.30982.14013-1.96973.21008-.70019.35-1.38012.73-2.10009,1.04993q-9.54017,4.35021-19.1001,8.68005-2.81984,1.155-5.62989,2.30994-7.66515,5.92511-15.33007,11.8601l-14.81983,14.04q-3.51013,4.97992-7.02,9.94995-6.4801,12.015-12.98,24.02c-1.83008,6.67994-4.15014,13.27-5.34009,20.05005-.95,5.3899-.67016,11.0199-.64013,16.53992.02,3.29993,2.3,4.43005,5.41015,4.39,6.46-.07006,12.91993-.02,19.3899-.02.05005,10.27-.17994,20.56005.25,30.81005.34008,8.16993-2.41993,14.5-8.98,19.25-.35987.30994-.72.60987-1.08008.90992v.01q-8.48986.51012-16.98,1.02c-.02-8.8.03-17.6-.09986-26.4a49.42344,49.42344,0,0,0-.99-6.68q.50977-3.72,1.00977-7.39991c-4.94971-.57006-9.02979-1.31-13.12988-1.46-21.37012-.77-42.74-1.38012-64.10987-2.05-10.27-.32007-20.54-.73-30.81006-.98-28.52-.71-57.04-1.33007-85.56-2.03-11.77-.28-23.53-.65992-35.30005-1-.5-.01-.99-.08008-1.49-.1q-21.07471-.945-42.15992-1.89c-3.55-.16-3.46,1.59-2.22,4.03q-.51012,8.45985-1.03,16.93995c.02,2.35009.04,4.71.05982,7.06005q-.04468,10.96491-.08984,21.93995-.93018.09008-1.85987.18005c-.36011-.03-.72021-.06006-1.08008-.08a25.00772,25.00772,0,0,1-8.68994-2.71008c-.47021-.25-.93017-.52-1.38012-.78992a29.0252,29.0252,0,0,1-3.22-2.3c-.41016-.33007-.81006-.68005-1.21-1.04-.39013-.36-.78-.73-1.16015-1.11a49.91767,49.91767,0,0,1-5.27979-6.28992c-1.01025-5.97009-2.48-11.91015-2.93017-17.92016-.54981-7.27991-.23-14.61988-.29-21.92993q-.6449-6.97486-1.29981-13.95,9.43506,0,18.86988-.02c6.10009-.01,7.59008-1.82006,6.13012-7.83007-1.40014-5.74-3.01025-11.42993-4.53-17.1399q-7.57506-13.65013-15.19018-27.3a8.57224,8.57224,0,0,0-1.75-1.7c-1.02-1.66-2.02979-3.32006-3.04981-4.98-2.84008-2.99-5.62011-6.06005-8.56-8.95007a36.31148,36.31148,0,0,0-4.32007-3.20007q-8.53491-6.49476-17.05982-12.98-5.04017-2.80482-10.09009-5.60987-8.48986-3.55516-16.99-7.1101c-.65014-.12989-1.3-.25-1.96-.37-.43017-.22-.85009-.43994-1.28-.66q-6.99023-1.47-13.97-2.95,8.66968-.585,17.34986-1.17994,29.47521-1.98009,58.94018-3.94006c5.61988-.37,11.25-.57,16.85987-1.08,5.04-.46,10.05-1.24,15.08007-1.88q28.97974-1.97992,57.96-3.96008c10.90992-.74,21.81983-1.33,32.73-2.07,18.99-1.27,37.98-2.64,56.98-3.91,11.07006-.75,22.1499-1.3899,33.23-2.08,7.25-.44006,14.51-.88,21.78-1.98h-8.97q-204.345,0-408.68994.00989c-2.33007,0-4.67016-.05994-7-.08985a57.82874,57.82874,0,0,1,5.85987-.59008q112.08-.045,224.16992-.03,103.33521-.06006,206.68017-.2a22.15492,22.15492,0,0,0,4.27979.83007q21.09009,0,42.17017-.01,42.16515-.015,84.32983-.06006l42.17017-.03,1.59.03c.08,0,.15.01.2301.01.47.01.92994.02,1.39991.04.53.01,1.07006.02991,1.60009.03992.53992.02,1.06995.03,1.60987.04,1.51.0199,3.01.02991,4.52-.02,14.13-.47,28.17.20007,41.84008,4.14,7.12989,2.06006,14.11988,4.61,21.16993,6.94Q1015.10153,496.13543,1024.17647,501.52033Z"/><path class="f9c59779-38af-4b99-b829-cf49254f9acd" d="M498.25643,604.59039q-18.39-.045-36.79-.08007-6.91481-7.635-13.84986-15.26c-20.90014-18.61988-57.37011-10.79993-70.16015,15.04-.77,1.07006-1.54981,2.14-2.31983,3.2a64.76548,64.76548,0,0,0-7.29-.8899c-9.41992-.10009-18.84008-.03-28.25-.02a85.824,85.824,0,0,1,19.78-36.05l119.90992.09008A94.78194,94.78194,0,0,1,498.25643,604.59039Z"/><path class="fdef636e-e3eb-401e-a226-bc9b524c85ae" d="M479.28364,570.61855q-59.952-.04455-119.90489-.08953c13.53668-15.89483,30.20793-25.828,51.33312-28.13128C438.8287,539.33206,461.06334,549.95211,479.28364,570.61855Z"/><path class="e821b105-f702-42cb-b7e1-d4b4f599f5dc" d="M497.50643,531.46027a25.11715,25.11715,0,0,1-5.11011,1.1101c-9.81982.1-19.63989-.06005-29.46.1399-1.8999.04-3.77,1.31006-5.65991,2.01a1.14508,1.14508,0,0,1-.8-.25c-.49-.26-.97-.51-1.46-.7699-12.06006-4.26-24.29-7.42-37.28-7.20007a91.54793,91.54793,0,0,0-34.28,7.01c-2.54981,1.07006-5.09986,2.13-7.6499,3.2-2.75-.36988-5.5-.95-8.26-1.05994-10.72-.43005-21.44-.71-32.16993-1.04993q8.61-7.35,17.21-14.69006c.3-.11.59986-.22.89991-.35.35009-.3.7102-.61,1.06006-.92q6-2.955,11.98-5.91c1.3.64013,2.6101,1.83007,3.90991,1.84008q47.95531.15,95.90014,0c1.34009,0,2.67994-1.1101,4.02-1.7q5.03981,2.80482,10.09009,5.60987Q488.98152,524.97539,497.50643,531.46027Z"/><path class="b1e6c600-42a0-4615-b91e-19cfdf45f6f7" d="M528.77645,602.56036q-9.43506.015-18.86988.02c-4.13012-20.88-14.48-38.26-29.73-52.89,7.81983-.03,15.6399.03992,23.46-.13,3.27-.07006,6.52979-.63,9.79981-.97a8.57224,8.57224,0,0,1,1.75,1.7q7.65015,13.6201,15.19018,27.3c1.51978,5.71,3.12989,11.39991,4.53,17.1399C536.36653,600.7403,534.87654,602.55036,528.77645,602.56036Z"/><path class="aab1900f-3643-4149-807b-af1b991ded26" d="M371.41634,617.52033q-1.94971,13.42493-3.90991,26.85009c.26,1.74.52,3.47.78,5.2q.07506.945.1499,1.8899-16.455.03-32.92993.07007c-2.48-13.46-.61011-26.66993,2.40991-39.79.40015-1.76,1.11011-3.43994,1.68017-5.15992,9.40992-.01,18.83008-.08007,28.25.02a64.76548,64.76548,0,0,1,7.29.8899Q373.27621,612.50042,371.41634,617.52033Z"/><path class="aab1900f-3643-4149-807b-af1b991ded26" d="M503.40657,636.53034c-3.15014,0-6.32007-.09-9.47021.02-7.77.27-15.54.62-23.29981.93994q-.18017-.95985-.3601-1.91993-1.515-8.53491-3.03-17.07006-2.8949-7.0049-5.78-13.99,18.405.045,36.79.08007,2.01012,6.51,4.02,13.02Q502.84663,627.06031,503.40657,636.53034Z"/><path class="b1e6c600-42a0-4615-b91e-19cfdf45f6f7" d="M350.4764,556.62042c-8.79981,9.67994-14.98,20.96-20.02979,32.92994-7.29.01-14.58008.06005-21.86011.01-3.52-.03-5.88012-.94995-4.19018-5.36,1.58008-4.12,2.77-8.39,4.13013-12.6q4.9951-8.50506,10-17.01c2.49.66993,4.97,1.83,7.48,1.90992C334.15657,556.75031,342.31649,556.61041,350.4764,556.62042Z"/><path class="ba1c9c0a-45b0-4f0e-b6a6-af86a0cf187e" d="M375.80648,536.71027q-12.65992,9.94518-25.33008,19.91015c-8.15991-.01-16.31983.12989-24.47-.12011-2.51-.08-4.99-1.24-7.48-1.90992q4.515-6.46507,9.03-12.94006,3.91479-3.525,7.82006-7.04993c10.73.34,21.45.61988,32.16993,1.04993C370.30648,535.76032,373.05648,536.34039,375.80648,536.71027Z"/><path class="ba1c9c0a-45b0-4f0e-b6a6-af86a0cf187e" d="M513.43636,548.59039c-3.27.34-6.52979.89991-9.79981.97-7.82006.16993-15.64013.1-23.46.13q-11.46019-7.485-22.90014-14.97009c1.88989-.7,3.76-1.97,5.65991-2.01,9.82007-.2,19.64014-.03992,29.46-.1399a25.11715,25.11715,0,0,0,5.11011-1.1101,36.31148,36.31148,0,0,1,4.32007,3.20007c2.93994,2.89,5.72,5.96008,8.56,8.95007C511.40657,545.27033,512.41634,546.93036,513.43636,548.59039Z"/><path class="f33b0f39-5b8d-4304-a828-6416dd18dffb" d="M514.42659,656.38043c-3.35009,4.2699-8,1.18994-11.95019,2.09986q.46509-10.96491.93994-21.94995-.56982-9.46509-1.13989-18.91993,4.47-.54015,8.92993-1.08007c.06006,7.31-.25977,14.65.29,21.92993C511.94661,644.47028,513.41634,650.41034,514.42659,656.38043Z"/><path class="ba1c9c0a-45b0-4f0e-b6a6-af86a0cf187e" d="M455.01975,533.69967q.72566.3852,1.45207.77041Q455.74653,534.08506,455.01975,533.69967Z"/><path class="a6a06cf8-2b86-4c54-80d6-90fc5c043763" d="M500.36653,665.52033q-3.48009,10.485-6.95019,20.98-3.44971,5.50506-6.88989,10.99c-14.25,0-28.51.06006-42.76-.08-2.39991-.02-4.79-.9-7.17994-1.38q5.80482-3.795,11.61011-7.59,3.10474-3.06006,6.18994-6.12c1.73-2.18994,3.45-4.38,5.17994-6.57006q3.45006-6.10493,6.88989-12.2c1.43994.65,2.87012,1.84,4.33008,1.86C480.63655,665.59039,490.50643,665.51032,500.36653,665.52033Z"/><path class="a2b0f651-2d00-4516-9681-917c2e317e1e" d="M470.35652,512.87042c-1.34008.58985-2.67993,1.7-4.02,1.7q-47.955.15-95.90014,0c-1.29981-.01-2.60986-1.2-3.90991-1.84008q8.13024-3.47992,16.27-6.96a138.05547,138.05547,0,0,1,53.3601-3.99q6.97487,1.485,13.97,2.95c.42994.22009.84986.44006,1.28.66.65992.12,1.30982.24011,1.96.37Q461.87142,509.31549,470.35652,512.87042Z"/><path class="a6a06cf8-2b86-4c54-80d6-90fc5c043763" d="M641.87654,336.38043c-4.05,11.10987-7.76,21.29993-11.47,31.48-13.07007.64991-26.3.27-39.18017,2.19-21.40991,3.17993-42.6499,7.56-63.83985,11.99-8.52,1.79-16.72021,5.05-25.06005,7.64a42.80558,42.80558,0,0,0-6.23,1.32c-11.24,4.19006-22.43017,8.5-33.64013,12.77-2.00977.66-4.00977,1.31-6.02,1.97-1.72-.66993-3.41992-1.85-5.16992-1.91993-5.98-.24-11.97-.12-17.96-.07006-2.16993.02-4.14014-.03-3.84009-3.04q6.51014-3.98986,13.03-7.98c20.8601-9.30994,41.38012-19.5,62.6499-27.73,33.66016-13.01,68.69018-21.14991,104.59009-25.29993C620.09651,338.50031,630.49642,337.55036,641.87654,336.38043Z"/><path class="b1ae3a83-68ed-4a67-a8f8-acb3b3c958fb" d="M991.10652,424.87042c-3.39013.36988-5.51.80994-7.63012.80994q-64.67982.05988-129.36988.07a51.18581,51.18581,0,0,0-7.3,1.06q-3.24024-3.63006-6.5-7.25-4.26013-5.865-8.51-11.73-7.545-9.57-15.09009-19.13h-.00977a.76561.76561,0,0,1-.37011-.72009c-.39014-.40992-.78-.83-1.16993-1.24-.26025-.09-.51025-.17994-.77-.26a.56375.56375,0,0,0-.12011-.03992q-7.73988-10.29-15.46-20.55994c-3.75-4.63012-7.79-9.06006-11.18995-13.94006-4.58007-6.58-.57006-14.96008,7.36988-16.04a18.74592,18.74592,0,0,1,2.49-.05994q64.02025,0,128.05.01c.83007,0,1.65.12989,2.48.19q9.54015,13.875,19.08007,27.73,7.5,10.5,14.99,20.99,7.515,10.485,15.01,20.97C981.4565,411.70038,985.8265,417.67035,991.10652,424.87042Z"/><path class="f9c59779-38af-4b99-b829-cf49254f9acd" d="M798.80648,365.88043q7.72485,10.27479,15.46,20.55994h-.01Q806.53157,376.15039,798.80648,365.88043Z"/><path class="f9c59779-38af-4b99-b829-cf49254f9acd" d="M962.0865,384.76032h-.01q-7.485-10.485-14.99-20.99Q954.5865,374.27033,962.0865,384.76032Z"/><path class="b60b977b-4485-4296-965f-a1bcf91fb96c" d="M816.70638,388.70038q7.545,9.57,15.09009,19.13-7.545-9.57-15.09986-19.13Z"/><path class="b60b977b-4485-4296-965f-a1bcf91fb96c" d="M977.0865,405.73029q-7.5-10.485-15.01-20.97h.01Z"/><path class="b3e3c886-92c2-43cf-870e-6b2afc7be63a" d="M855.10652,435.86041a6.763,6.763,0,0,1-.03.89991q-18.56984-.08991-37.12012-.15992,6.09009-7.86.32007-15.95007,11.01012-.54,22.03-1.09,3.25488,3.6299,6.5,7.25Q850.96151,431.34039,855.10652,435.86041Z"/><path class="a6a06cf8-2b86-4c54-80d6-90fc5c043763" d="M807.13655,406.81036q-6.045.98988-12.08007,2a3.35233,3.35233,0,0,0-.95.06006c-.90014-1.05-1.79-2.09008-2.69018-3.14013-2.07984-2.29993-3.92993-4.87989-6.2898-6.84986-11.98022-9.99011-26.17016-11.28-40.94995-9.99011q-8.50524-.165-17-.34c5.75-.41993,11.48975-.83008,18.06983-1.3-1.23-1.46-2.10987-2.48-2.98-3.5-7.98-10.87989-18.94995-16.55994-32.19995-16.82-20.56006-.39-41.1399-.02-61.7.02,3.27979-9.54,6.5-19.1,9.93995-28.59a4.19218,4.19218,0,0,1,3.02-2.3601c24.62011.10009,49.26-.22,73.85009.84008,14.33985.61988,25.48,8.7,34.16992,20.03,8.19,10.66993,16.45,21.27991,24.67994,31.91993Q800.58126,397.80537,807.13655,406.81036Z"/><path class="b1ae3a83-68ed-4a67-a8f8-acb3b3c958fb" d="M745.24642,387.25031c-6.58008.47-12.31983.88012-18.06983,1.3-3.73.98-6.79,2.74-7.90014,6.78-.3899,1.47-.78,2.92994-1.16993,4.39991.11988,2.95007.23,5.89013.34009,8.84008-.08008,1.04-.16015,2.09-.25,3.13.37989,4.32.75,8.62,1.12989,12.93994-.18995.04-.39014.09-.58008.15-.56983.16-1.14991.34008-1.73.5a8.856,8.856,0,0,1-2.31006.38q-40.75488.10492-81.50977,0c-1.68017-.01-3.3501-.79993-5.02-1.22q2.44483-6.975,4.8899-13.94006,2.11486-5.93994,4.21-11.87c.28-1.29993.56005-2.59.85009-3.89q2.58-6.58485,5.15992-13.16993c.67993-2.62011,1.35986-5.23,2.04-7.85009q1.515-3.39,3.04-6.77991c20.56006-.04,41.1399-.41,61.7-.02,13.25.26,24.22,5.94006,32.19995,16.82C743.13655,384.77033,744.01644,385.79035,745.24642,387.25031Z"/><path class="a4af14a0-9e1d-4ac7-a5f0-33ba043249fa" d="M840.30648,419.56036q-11.01013.54-22.03,1.09-5.56494-6.915-11.1399-13.84-6.55517-9.015-13.1101-18.02c5.1101-.01,10.24.16,15.34008-.15,1.66993-.1,3.26-1.42,4.8899-2.2h.01a.56375.56375,0,0,1,.12011.03992c.25977.08007.50977.16.77.26.3899.41.77979.83007,1.16993,1.24a.76561.76561,0,0,0,.37011.72009h.00977q7.545,9.57,15.09009,19.13Q836.04158,413.69526,840.30648,419.56036Z"/><path class="a4af14a0-9e1d-4ac7-a5f0-33ba043249fa" d="M645.3265,373.73029c-.68018,2.62011-1.36011,5.23-2.04,7.85009q-2.58,6.58485-5.15992,13.16993-7.41027-2.48988-14.8-5,3.55516-10.01991,7.10009-20.04Q637.88118,371.72041,645.3265,373.73029Z"/><path class="a2b0f651-2d00-4516-9681-917c2e317e1e" d="M991.00643,515.67035c-1.59.66-3.16993,1.86-4.76,1.87q-51.59986.165-103.19995-.02c-1.7,0-3.38013-1.38-5.07007-2.12q9.55516-4.335,19.1001-8.68005c.72-.32,1.3999-.7,2.10009-1.04993.65991-.07,1.30982-.14,1.96973-.21008.32007-.07.65015-.12989.97021-.18994a124.1448,124.1448,0,0,1,59.96-1.1q13.5,5.19012,27,10.37C989.71639,514.91034,990.35652,515.29035,991.00643,515.67035Z"/><path class="ba1c9c0a-45b0-4f0e-b6a6-af86a0cf187e" d="M1030.12787,549.5723c-3.384.34475-6.76091.81116-10.15351,1.00929-7.33617.42848-14.68046.71962-22.02139,1.067a113.16922,113.16922,0,0,0-32.06108-19.81241c1.696-.40274,3.38875-1.1373,5.08862-1.154,10.7847-.10636,21.57319.06349,32.35478-.1477,2.31483-.04531,4.60637-1.27958,6.90864-1.9662q2.88916,2.05237,5.77783,4.10534Q1023.07433,541.12348,1030.12787,549.5723Z"/><path class="b4bd5f9a-7975-4e9a-8709-02267ae4efbd" d="M1148.798,521.744q1.06647.45381,2.13283.90763Q1149.86436,522.19781,1148.798,521.744Z"/><path class="b4bd5f9a-7975-4e9a-8709-02267ae4efbd" d="M1150.996,522.6951q.54385.47724,1.08892.95459Q1151.54179,523.17247,1150.996,522.6951Z"/><path class="beffaf3d-0dcc-4b32-ad22-a2796f224e3a" d="M1131.83255,514.47551q-1.86138-.16466-3.7213-.32925Q1129.97319,514.3111,1131.83255,514.47551Z"/><path class="e821b105-f702-42cb-b7e1-d4b4f599f5dc" d="M1010.24642,528.57037c-2.29993.67994-4.6,1.91993-6.90992,1.96-10.78.22-21.57006.05-32.3601.15-1.7.02-3.3899.75-5.08,1.16-11.14-3.34008-22.46-6.3-34.14-5.09008-9.79993,1.02-19.48,3.26-29.21,4.96-.47.24011-.95.49011-1.41993.7301a1.57112,1.57112,0,0,1-.90014.19995,9.53142,9.53142,0,0,0-2.67993-.97c-11.40992-.4-22.83008-.66-34.24-1.08a50.55418,50.55418,0,0,1-6.29-1.02q7.66515-5.93994,15.33007-11.8601,2.80482-1.15485,5.62989-2.30994c1.68994.74,3.37011,2.12,5.07007,2.12q51.6.195,103.19995.02c1.59008-.01,3.17-1.21,4.76-1.87h.01Q1000.63149,522.12025,1010.24642,528.57037Z"/><path class="f22f289d-35dc-4f2d-9c0a-2a463eba1ef2" d="M807.13357,406.80953q5.57163,6.92115,11.14312,13.84183,5.779,8.09452-.32438,15.94853-2.76535,1.126-5.53011,2.253c-.16079-.02143-.32133-.05534-.48322-.06348-7.7745-.39152-7.76-.39323-8.84811-8.40617a5.40017,5.40017,0,0,0-.90086-1.64353q-1.02686-4.02391-2.05347-8.047Q798.669,417.23209,797.2,413.771q-1.073-2.48244-2.146-4.96492Q801.09382,407.8078,807.13357,406.80953Z"/><path class="aab1900f-3643-4149-807b-af1b991ded26" d="M814.2264,670.54035q-14.05482.10509-28.12989.21-77.625-.06006-155.25-.09a13.83131,13.83131,0,0,0-3.63012,1.04993,28.59814,28.59814,0,0,0-4.7898-.82984q-37.095-.07508-74.19018,0a29.85141,29.85141,0,0,0-4.82007.7699c-1.69995-.38-3.3999-.75-5.10986-1.13q.045-10.96509.08984-21.93995c2.45019-.02,4.91016.05005,7.36011-.08007,5.65991-.32,11.31006-.74,16.97-1.11988,5.73.71,11.46,1.97,17.20019,2.0199,11.10987.1,22.21973-.53992,33.33985-.74,21.58007-.39,43.16015-.68005,64.74-1.02q39.58483-.615,79.19018-1.25c14.05982-.25,28.12989-.25,42.17993-.92,3.32984-.14991,6.55005-2.5199,9.82007-3.86988q1.96473-2.07018,3.93994-4.14013a49.42344,49.42344,0,0,1,.99,6.68C814.25643,652.94037,814.20638,661.7403,814.2264,670.54035Z"/><path class="a16f6ad5-1e25-4d1c-bfe9-20d5e32c3017" d="M1025.93648,607.52033c-3.66.03-7.32.07006-10.99.10009q-2.025-5.01012-4.04-10.01c-3.94995-10.03-9.21-19.24-16.71-27.08007-1.42-1.82007-2.62-3.89-4.30005-5.44-19.0199-17.54-40.93994-26.75-67.21-22.41-19.55994,3.23-35.72009,12.67-48.43,27.93005a86.57571,86.57571,0,0,0-17.27,29.85987,83.93273,83.93273,0,0,0-6.76,33.07007q.96019,13.485,1.93017,26.97c.60987,3.32006,1.23,6.64,1.83985,9.96q-11.25.045-22.49.08008c-.09986-.35-.2-.68995-.30005-1.03v-.01c.36011-.3.72021-.6,1.08008-.90992,6.56-4.75,9.32006-11.08007,8.98-19.25-.42994-10.25-.19995-20.54-.25-30.81005.12011-3.8-.29-7.72.46-11.39,3.89013-19.26,11.46-36.80994,24.90014-51.49,9.76-9.91,21.23-17.30994,33.84986-23.02a1.57112,1.57112,0,0,0,.90014-.19995c.47-.24.95-.49,1.41993-.7301,9.73-1.7,19.41-3.93994,29.21-4.96,11.68-1.21,23,1.75,34.14,5.09008a113.08839,113.08839,0,0,1,32.06006,19.80994,100.80212,100.80212,0,0,1,27.25989,47.91Q1025.57656,603.53523,1025.93648,607.52033Z"/><path class="f33b0f39-5b8d-4304-a828-6416dd18dffb" d="M627.215,671.71374a13.60216,13.60216,0,0,1,3.63121-1.05362q77.62674-.01107,155.25264.09489c-.769,9.28621-5.74952,16.80582-10.45075,24.38965-.56995.91952-2.613,1.30067-3.97371,1.30152q-66.60208.04089-133.20459-.06238Q632.842,684.04763,627.215,671.71374Z"/><path class="fdef636e-e3eb-401e-a226-bc9b524c85ae" d="M811.284,707.557q-6.01243,5.925-12.02373,11.84962c-11.78048-.30809-23.56322-.57764-35.34229-.96135a40.86251,40.86251,0,0,1-5.67663-.96709c5.15913-6.3542,9.96746-12.41568,19.957-11.22325,8.99712,1.07405,18.22445.16667,27.34851.27583A34.28581,34.28581,0,0,1,811.284,707.557Z"/><path class="a6a06cf8-2b86-4c54-80d6-90fc5c043763" d="M1017.02645,658.54035q-3,11.43-6,22.88-2.90992,5.085-5.81995,10.18005c-2.61-.70007-5.22009-1.94006-7.86-2.01-9.38012-.25-18.78-.04-28.17-.15a25.23838,25.23838,0,0,1-5.06995-1.04q3.55482-3.85493,7.11988-7.72,3.06006-4.53,6.12011-9.06995,2.05482-4.485,4.11-8.97009,1.275-3.195,2.54993-6.37c1.57007.75,3.12011,2.1101,4.69006,2.14C998.13655,658.62042,1007.5865,658.53034,1017.02645,658.54035Z"/><path class="a6a06cf8-2b86-4c54-80d6-90fc5c043763" d="M905.4764,689.31036a37.59808,37.59808,0,0,1-6.23,1.13c-10.1001.11-20.19995,0-30.29.09a37.534,37.534,0,0,0-5.79.92993q-4.57471-10.5-9.16992-20.99c-.60987-3.31995-1.23-6.6399-1.83985-9.96,9.46,0,18.92993.10009,28.39991-.1,1.58007-.02991,3.12988-1.41,4.7-2.16q1.41027,3.15013,2.84008,6.3,3.87012,7.0199,7.75,14.03.28493.45008.56983.89991c.25.34008.49023.68005.74023,1.02q4.0049,3.96,8.02,7.93A4.56006,4.56006,0,0,1,905.4764,689.31036Z"/><path class="ed35af9f-6f06-429d-92cc-240b7f3bdd59" d="M543.41634,671.65033q-3.4347,8.415-6.87988,16.84c-12.49,0-24.97.09008-37.45-.08-1.90014-.02-3.78-1.24-5.67016-1.91q3.4801-10.485,6.95019-20.98c.7-2.35,1.39991-4.68995,2.10987-7.04,3.95019-.90992,8.6001,2.17,11.95019-2.09986a49.91767,49.91767,0,0,0,5.27979,6.28992c.38012.38.77.75,1.16015,1.11.39991.36.79981.71,1.21,1.04a29.0252,29.0252,0,0,0,3.22,2.3c.44995.27991.90991.53992,1.38012.78992a25.00772,25.00772,0,0,0,8.68994,2.71008c.35987.0199.72.04993,1.08008.08q.92982-.09009,1.85987-.18005C540.01644,670.90033,541.71639,671.27033,543.41634,671.65033Z"/><path class="a6a06cf8-2b86-4c54-80d6-90fc5c043763" d="M719.3265,424.64032v.01c-.18995.04-.39014.09-.58008.14C718.93636,424.73029,719.13655,424.68036,719.3265,424.64032Z"/><path class="beffaf3d-0dcc-4b32-ad22-a2796f224e3a" d="M800.13575,420.69252q1.0273,4.02341,2.05426,8.04716c.08966,2.47654-.74362,3.01018-3.33575,2.41364-17.89342-4.11825-35.83167-8.04344-53.76577-11.98361-7.26993-1.59724-14.571-3.05245-21.847-4.62267-2.663-.57475-4.76259-1.69409-3.803-5.05021q2.35089.56117,4.70617,1.11937c9.23794,1.69927,18.44416,3.60954,27.733,4.94583,2.31563.33313,4.89788-1.1859,7.35759-1.85362a61.72975,61.72975,0,0,1,6.91346.51437C777.4903,416.31083,788.809,418.52358,800.13575,420.69252Z"/><path class="bbce57db-dfc8-44b7-8a50-dc5faf5d88ef" d="M752.25643,402.79035c-.68994.98-1.36988,1.96-2.05982,2.93994-7.54.65014-15.1001,1.18-22.62011,2.07007a2.17845,2.17845,0,0,0-1.11011.52,3.68655,3.68655,0,0,0-.42993.37,2.075,2.075,0,0,0-.21.21c-.41993.42-.83008.89-1.26,1.30994-.1399.14013-.28.28-.42017.40014q-2.35473-.55516-4.71-1.1101-.49476-.46491-.98975-.92994c-.11011-2.95-.22021-5.89-.34009-8.84008.3899-1.47.78-2.92993,1.16993-4.39991l.28.22c-.79,7.41992-.82007,7.17993,6.08984,6.38,6.15015-.71008,12.37012-.80994,18.56006-1.17C746.88655,401.43036,749.5765,402.11041,752.25643,402.79035Z"/><path class="f33b0f39-5b8d-4304-a828-6416dd18dffb" d="M1014.94138,607.6253q5.49906-.0535,10.99813-.10733c.38519,5.22441.98571,10.44418,1.10575,15.67493.18531,8.07066.04166,16.14877.03721,24.22249q-4.0217.05379-8.04258.11-.50688-10.48612-1.01377-20.97227Q1016.48415,617.08917,1014.94138,607.6253Z"/><path class="b60b977b-4485-4296-965f-a1bcf91fb96c" d="M1019.03646,647.53034c-.66993,3.67-1.34,7.33007-2.01,11.01-9.43995-.01-18.8899.08007-28.33-.13-1.57-.02991-3.12-1.39-4.69006-2.14a47.95651,47.95651,0,0,0,.71-4.8899c.2301-4.82007.38012-9.64013.54-14.46008.02-.55994.04-1.13.06006-1.69006-.1001-2.86988-.19-5.75-.28-8.61988q16.485-.03,32.99-.06005Q1018.53657,637.03535,1019.03646,647.53034Z"/><path class="ba1c9c0a-45b0-4f0e-b6a6-af86a0cf187e" d="M814.14632,630.06036q-.49474,3.67494-1.00977,7.39991-1.98009,2.07018-3.93994,4.14013c-1.37011-.69006-2.7102-1.91-4.11011-1.99-9.44018-.49-18.88012-.78-28.32006-1.07006q-17.90991-.555-35.81006-1-20.1449-.525-40.29981-1-24.39038-.54-48.78-1.01c-15.60009-.32007-31.19995-.69-46.79-1q-27.2699-.525-54.52-.96a27.05911,27.05911,0,0,0-5.17994.95q-3.015-4.97992-6.02-9.93995c-1.24-2.44006-1.33007-4.19006,2.22-4.03q21.07508.975,42.15992,1.89c.5.0199.99.09,1.49.1,11.77.34008,23.53.72,35.30005,1,28.52.7,57.04,1.32006,85.56,2.03,10.27.25,20.54.65992,30.81006.98,21.36988.66992,42.73975,1.28,64.10987,2.05C805.11653,628.75031,809.19661,629.4903,814.14632,630.06036Z"/><path class="b1e6c600-42a0-4615-b91e-19cfdf45f6f7" d="M841.4764,607.15033c-.75,3.67-.33985,7.59-.46,11.39-6.47,0-12.92994-.05-19.3899.02-3.1101.04-5.39013-1.09008-5.41015-4.39-.03-5.52-.30982-11.15.64013-16.53992,1.18995-6.78,3.51-13.37011,5.34009-20.05005q6.49476-12,12.98-24.02c1.69995.67994,3.36988,1.89991,5.07984,1.95,8.69995.21,17.40991.13,26.12011.15C852.93636,570.34039,845.36653,587.89032,841.4764,607.15033Z"/><path class="a6a06cf8-2b86-4c54-80d6-90fc5c043763" d="M562.72782,647.37611c-5.657.37969-11.31168.80158-16.97221,1.11955-2.44689.13728-4.90587.05983-7.35923.0805q-.02745-3.52578-.05474-7.05259,6.04085-.51985,12.08089-1.03978a7.13475,7.13475,0,0,0,.86936.149Q557.00986,644.00441,562.72782,647.37611Z"/><path class="a6b68581-2ee2-4d15-beaf-716c949307f3" d="M550.42253,640.48379q-6.04026.51995-12.08086,1.03978.5104-8.4742,1.02145-16.948,3.01089,4.97112,6.02191,9.94167Q547.90367,637.50061,550.42253,640.48379Z"/><path class="e9c56b4d-0b5c-444b-a7d1-6a1755a646ea" d="M470.63655,637.4903q-1.69518,11.02513-3.39013,22.04c-.26,1.34008-.53,2.67993-.79,4.02q-3.44972,6.09008-6.88989,12.2c-1.73,2.19006-3.45,4.38012-5.17994,6.57006q-3.09008,3.06006-6.18994,6.12-5.80517,3.79486-11.61011,7.59c-15.13989,5.74-29.49,3.92993-43.15991-4.48q-2.04015-1.845-4.06006-3.68995-4.00488-4.14-8.02-8.29-2.55029-3.8701-5.1101-7.74-3.89979-10.185-7.8-20.37011-.07471-.94484-.1499-1.8899c.04-1.34008.08007-2.68994.12011-4.03q-.45007-.585-.90014-1.16993,1.95007-13.42511,3.90991-26.85009,1.86034-5.01,3.72021-10.03c.77-1.05994,1.54981-2.12989,2.31983-3.2,12.79-25.84,49.26-33.65992,70.16015-15.04-.74,1.63012-1.3601,3.33007-2.25,4.87011-3.93994,6.83-7.96,13.60987-11.95019,20.40992,1.31006.16,2.62012.33007,3.93017.48q14.94,1.75506,29.89991,3.49,1.515,8.53509,3.03,17.07006Q470.45626,636.53022,470.63655,637.4903Z"/><path class="a7578737-ad71-4d6c-991e-57287d2a8918" d="M467.24642,618.50031q-14.955-1.73988-29.89991-3.49c-1.31005-.14991-2.62011-.31995-3.93017-.48,3.99023-6.80005,8.01025-13.58,11.95019-20.40992.8899-1.54,1.51-3.24,2.25-4.87011q6.92982,7.63512,13.84986,15.26Q464.36129,611.50037,467.24642,618.50031Z"/><path class="a6a06cf8-2b86-4c54-80d6-90fc5c043763" d="M368.40657,645.54035c-.04,1.34008-.08007,2.68994-.12011,4.03-.26-1.73-.52-3.46-.78-5.2Q367.95651,644.95527,368.40657,645.54035Z"/><path class="b60b977b-4485-4296-965f-a1bcf91fb96c" d="M503.40657,636.53034q-.46509,10.98009-.93017,21.94995c-.71,2.35009-1.40991,4.69006-2.10987,7.04-9.8601-.01-19.73.07006-29.58007-.11-1.46-.02-2.89014-1.21-4.33008-1.86.26-1.34009.53-2.67994.79-4.02q1.69518-11.01,3.39013-22.04c7.75977-.32,15.52979-.66993,23.29981-.93994C497.0865,636.44037,500.25643,636.53034,503.40657,636.53034Z"/><path class="a4af14a0-9e1d-4ac7-a5f0-33ba043249fa" d="M744.1753,388.89242c14.78239-1.2964,28.96847.00058,40.95079,9.991,2.36,1.96769,4.20934,4.54779,6.29373,6.84528-1.80008-.19262-3.62749-.246-5.39488-.5996q-20.36077-4.07349-40.70253-8.24727-3.07388-.66129-6.1463-1.319Q741.67568,392.2277,744.1753,388.89242Z"/><path class="e821b105-f702-42cb-b7e1-d4b4f599f5dc" d="M750.19937,405.73123q1.02886-1.4692,2.05743-2.93917c11.80036,1.88457,23.59646,3.79862,35.4056,5.62867,2.1202.32856,4.29407.31057,6.44318.4526a3.41441,3.41441,0,0,1,.94924-.06763q1.07178,2.48309,2.14532,4.96491c-2.01052-.18749-4.04355-.24427-6.02839-.58288-12.32268-2.10232-24.63463-4.26793-36.95011-6.41251Z"/><path class="a2b0f651-2d00-4516-9681-917c2e317e1e" d="M794.10558,408.87333c-2.14911-.142-4.323-.124-6.44318-.4526-11.80914-1.83-23.60524-3.7441-35.40566-5.6287q-4.02471-1.01736-8.04929-2.03645.55839-1.93623,1.11563-3.872,20.3487,4.13382,40.70186,8.2455c1.76739.35359,3.5948.407,5.39488.5996Q792.76316,407.30121,794.10558,408.87333Z"/><path class="be487cba-1ffa-43a5-a12b-905f50754087" d="M744.17659,388.89032c-1.67016,2.2301-3.33008,4.45007-5,6.67q-9.81006,0-19.62011-.01l-.28-.22c1.1101-4.04,4.17016-5.8,7.90014-6.78Q735.66646,388.71533,744.17659,388.89032Z"/><path class="ba1c9c0a-45b0-4f0e-b6a6-af86a0cf187e" d="M900.2264,532.64032c-12.61988,5.71008-24.08985,13.11-33.84986,23.02-8.7102-.02-17.42016.05994-26.12011-.15-1.71-.05-3.37989-1.27-5.07984-1.95q3.50977-4.96507,7.02-9.94995l14.81983-14.04a50.55418,50.55418,0,0,0,6.29,1.02c11.40991.41993,22.83007.67994,34.24,1.08A9.53142,9.53142,0,0,1,900.2264,532.64032Z"/><path class="ba1c9c0a-45b0-4f0e-b6a6-af86a0cf187e" d="M902.54379,531.70761q-.70727.36856-1.415.73712Q901.83587,532.07625,902.54379,531.70761Z"/><path class="ba1c9c0a-45b0-4f0e-b6a6-af86a0cf187e" d="M754.22164,406.77522c12.31548,2.14458,24.62743,4.31019,36.95011,6.41251,1.98484.33861,4.01787.39539,6.02839.58288q1.46842,3.46157,2.9364,6.92209c-11.32751-2.16912-22.64624-4.38187-33.98785-6.46992a61.6871,61.6871,0,0,0-6.9134-.51419Q756.72849,410.242,754.22164,406.77522Z"/><path class="e821b105-f702-42cb-b7e1-d4b4f599f5dc" d="M550.42253,640.48379q-2.51883-2.98323-5.0375-5.96659a26.642,26.642,0,0,1,5.1798-.94221q27.26019.38613,54.51766.96008c15.59682.30742,31.19254.67034,46.789.99709,16.26163.34072,32.524.64473,48.78518,1.0074q20.15134.44961,40.30044,1,17.905.469,35.80843,1c9.44191.29029,18.8856.57753,28.31757,1.07437,1.40226.07385,2.74413,1.29335,4.11345,1.98345-3.27176,1.3516-6.495,3.71937-9.82278,3.87677-14.043.66455-28.11731.67028-42.17987.91721-1.14912-.62052-2.28245-1.7483-3.45012-1.785-14.42823-.45312-28.86178-.7337-43.29331-1.08619-12.76851-.31182-25.5361-.66351-38.30431-.98734-13.45655-.34127-26.91384-.65272-40.37-1.00984-11.51917-.30571-23.03657-.6793-34.55573-.98337-13.59935-.359-27.199-.7184-40.80067-.95612-1.70268-.02969-3.41831.68144-5.1279,1.04924A7.123,7.123,0,0,1,550.42253,640.48379Z"/><path class="a2b0f651-2d00-4516-9681-917c2e317e1e" d="M551.29189,640.63271c1.70959-.3678,3.42522-1.07893,5.1279-1.04924,13.60166.23772,27.20132.59716,40.80067.95612,11.51916.30407,23.03656.67766,34.55573.98337,13.45613.35712,26.91342.66857,40.37,1.00984,12.76821.32383,25.5358.67552,38.30431.98734,14.43153.35249,28.86508.63307,43.29331,1.08619,1.16767.03671,2.301,1.16449,3.45012,1.785q-39.595.625-79.18952,1.24939c-21.58045.33742-43.16181.62691-64.74128,1.0149-11.11555.19978-22.23079.84841-33.341.74394-5.73864-.05391-11.46592-1.31012-17.19632-2.02333Q557.01087,644.00431,551.29189,640.63271Z"/><path class="f9c59779-38af-4b99-b829-cf49254f9acd" d="M1010.90645,597.61041q-19.03509.52479-38.07995,1.04993-4.83-4.58991-9.66-9.18005c-11.57-9.60987-24.72-12.64991-39.32-9.30994-12.52,2.87-21.78,10.51-29.3999,20.45007q-18.73535-.07507-37.4602-.15014a86.57571,86.57571,0,0,1,17.27-29.85987q59.97-.045,119.94006-.08007C1001.69649,578.37042,1006.9565,587.58038,1010.90645,597.61041Z"/><path class="fdef636e-e3eb-401e-a226-bc9b524c85ae" d="M994.19647,570.534q-59.96938.03823-119.938.0766c12.712-15.25865,28.868-24.696,48.43061-27.93077,26.26306-4.34263,48.18564,4.86911,67.21208,22.40888C991.57976,566.63621,992.77615,568.70656,994.19647,570.534Z"/><path class="aab1900f-3643-4149-807b-af1b991ded26" d="M894.44661,600.62042q-2.6704,5.33991-5.36011,10.65992-2.58,9-5.17016,18c-.31983,1.42-.62988,2.84008-.94995,4.26h-32.74a83.93273,83.93273,0,0,1,6.76-33.07007Q875.7214,600.54536,894.44661,600.62042Z"/><path class="aab1900f-3643-4149-807b-af1b991ded26" d="M985.03646,626.61041l.01-.02c-.24-.68-.48-1.35009-.71-2.03q-1.515-4.59007-3.01-9.18994-4.24512-8.35509-8.5-16.71008,19.03491-.525,38.07995-1.04993,2.01,5.01,4.04,10.01,1.52985,9.46491,3.08,18.92994Q1001.52645,626.58038,985.03646,626.61041Z"/><path class="b60b977b-4485-4296-965f-a1bcf91fb96c" d="M885.25643,658.25031c-1.57007.75-3.11988,2.13012-4.7,2.16-9.47.20007-18.93995.1-28.39991.1q-.97521-13.485-1.93017-26.97h32.74q.22521,6.4951.44018,12.99Q884.33639,652.38037,885.25643,658.25031Z"/><path class="b3e3c886-92c2-43cf-870e-6b2afc7be63a" d="M985.25643,636.92035c.02-.55994.04-1.13.06006-1.69006A7.54487,7.54487,0,0,1,985.25643,636.92035Z"/><path class="b1e6c600-42a0-4615-b91e-19cfdf45f6f7" d="M754.22164,406.77522q2.50679,3.46679,5.01365,6.93331c-2.45977.6676-5.042,2.18663-7.35765,1.8535-9.28887-1.33629-18.49509-3.24656-27.733-4.94583,1.13759-.97935,2.19217-2.673,3.42889-2.81854,7.51934-.88458,15.08011-1.41673,22.62648-2.06646Q752.21022,406.25326,754.22164,406.77522Z"/><path class="e49d68a4-51b3-4b64-a80e-902cc66d5577" d="M719.55324,395.54962q9.81207.00879,19.62348.0154,3.07177.65538,6.14569,1.31684-.55656,1.93848-1.115,3.87372c-6.18955.368-12.40967.46565-18.5592,1.17523C718.74143,402.72778,718.76918,402.96825,719.55324,395.54962Z"/><path class="a4af14a0-9e1d-4ac7-a5f0-33ba043249fa" d="M985.25643,636.92035c.02-.55994.04-1.13.06006-1.69006A7.54487,7.54487,0,0,1,985.25643,636.92035Z"/><path class="be487cba-1ffa-43a5-a12b-905f50754087" d="M963.16646,589.48029q-6.03,10.545-12.05994,21.08007c-1.10009,1.64-2.56005,3.13-3.25,4.92994-2.05,5.39013-5.92,5.94006-10.94006,5.09008-14.6-2.47-29.25012-4.64-43.86-7.07006-1.41016-.23-2.64991-1.46-3.97-2.23q2.68506-5.32508,5.36011-10.65992c7.61988-9.94006,16.87989-17.58007,29.3999-20.45007C938.44649,576.83038,951.59651,579.87042,963.16646,589.48029Z"/><path class="ffa3f466-b8c9-4cb4-96d6-764acbf9acd4" d="M985.31649,635.23029c-.02.56006-.04,1.13012-.06006,1.69006-.15992,4.82-.30994,9.64-.54,14.46008a47.95651,47.95651,0,0,1-.71,4.8899q-1.275,3.18-2.54993,6.37-2.055,4.48517-4.11,8.97009-3.06,4.53-6.12011,9.06995-3.56984,3.86994-7.11988,7.72a4.36059,4.36059,0,0,1-.95007.21008c-14.36,12.74-37.18,15.65992-57.68.69995a4.56006,4.56006,0,0,0-.29981-.88q-4.00524-3.96-8.02-7.93c-.25-.34-.49023-.67994-.74023-1.02q-.28491-.44989-.56983-.89991-3.88512-7.02007-7.75-14.03-1.42529-3.15-2.84008-6.3-.92982-5.86488-1.84986-11.72-.21019-6.49494-.44018-12.99c.32007-1.41993.63012-2.84.94995-4.26q2.58032-9,5.17016-18c1.32007.77,2.55982,2,3.97,2.23,14.60986,2.43005,29.26,4.60009,43.86,7.07006,5.02.85,8.89.30005,10.94006-5.09008.68995-1.79993,2.14991-3.28992,3.25-4.92994q6.03-10.53,12.05994-21.08007,4.83014,4.59009,9.66,9.18005,4.24492,8.35492,8.5,16.71008,1.5,4.58991,3.01,9.18994c.23.67994.47,1.35.71,2.03l-.01.02C985.12654,629.48029,985.21639,632.36041,985.31649,635.23029Z"/></svg>