<svg id="ff37af2f-d1e3-4fb6-8b35-c35ea9cb1e18" data-name="Layer 1" xmlns="http://www.w3.org/2000/svg" xmlns:xlink="http://www.w3.org/1999/xlink" viewBox="0 0 1920 1080"><defs><style>.f33ae553-938b-4aa1-af0d-6a27d18e3181{isolation:isolate;opacity:0.62;fill:url(#ffc5ac58-4478-427c-b512-881f5a591935);}.b650f27b-d2f9-4d95-8246-a4f090f54384{fill:#191849;}.a838f25b-7cb0-40cd-85b0-d83287913be5{fill:url(#b679e386-2b02-4fb4-be75-da9baa245bd9);}.b179c62a-1228-4ff1-8da3-80358f73608a{fill:url(#a5f63eec-505a-47c7-8615-7d8242c3ab56);}.ab44c1ad-1350-414e-ad2c-e138c5c21606{fill:#39398e;}.b2267609-1b1d-4efb-a632-3eb76b5e05c3{fill:url(#b7356c22-42e3-4e49-88b8-19fc8f283e5e);}.a469d4f8-202b-4232-a314-9a4227746499{fill:url(#acfae7d4-3c79-43e5-9b43-280bf5464fc3);}.fa87e151-27ce-4bb2-994d-33ddb96950e3{fill:#1e1c4f;}.b1dbe1c8-608b-4ef0-b229-fc9fd8bc5505{fill:#16afc6;}.a7be2b90-aea1-4606-abd8-41268058572c{fill:#10133b;}.a3ec69d5-18bd-4aa8-be3a-cbeffc9f34e1{fill:#9ec9eb;}.b23a2f62-6ee8-46c7-b95a-39087e36b3b5{fill:#fdcd9c;}.ee443ce0-2735-46a5-9eb5-726223459c15{fill:#955634;}.a5d5dfbe-96a3-41e5-ba9b-ecc5d9a0693b{fill:#0271af;}.a0294dee-7694-410a-a363-98f294b61b0c{fill:#fff;}.a5f6afe5-a27b-4f3d-ba79-68b685e06af1{fill:#314c5b;}</style><linearGradient id="ffc5ac58-4478-427c-b512-881f5a591935" x1="-957.64193" y1="1636.6283" x2="-956.03948" y2="1630.11169" gradientTransform="matrix(116.55278, 0, 0, -107.1586, 112534.64418, 175560.68)" gradientUnits="userSpaceOnUse"><stop offset="0" stop-color="#1cbec8" stop-opacity="0.33"/><stop offset="1" stop-color="#aa91c4"/></linearGradient><linearGradient id="b679e386-2b02-4fb4-be75-da9baa245bd9" x1="-951.779" y1="1637.03931" x2="-945.03596" y2="1637.03931" gradientTransform="matrix(65.40894, 0, 0, -38.44214, 62976.26061, 63512.57008)" gradientUnits="userSpaceOnUse"><stop offset="0" stop-color="#5d76ba"/><stop offset="1" stop-color="#2e2c74"/></linearGradient><linearGradient id="a5f63eec-505a-47c7-8615-7d8242c3ab56" x1="-919.45821" y1="1647.42899" x2="-912.71518" y2="1647.42899" gradientTransform="matrix(22.73572, 0, 0, -7.125, 21625.90576, 12472.745)" xlink:href="#b679e386-2b02-4fb4-be75-da9baa245bd9"/><linearGradient id="b7356c22-42e3-4e49-88b8-19fc8f283e5e" x1="-908.67781" y1="1647.43162" x2="-901.93476" y2="1647.43162" gradientTransform="matrix(22.73657, 0, 0, -7.12402, 21669.42056, 12471.15233)" xlink:href="#b679e386-2b02-4fb4-be75-da9baa245bd9"/><linearGradient id="acfae7d4-3c79-43e5-9b43-280bf5464fc3" x1="-906.10176" y1="1647.4914" x2="-899.35873" y2="1647.4914" gradientTransform="matrix(19.98206, 0, 0, -7.10693, 18980.3248, 12443.26375)" xlink:href="#b679e386-2b02-4fb4-be75-da9baa245bd9"/></defs><path id="aace5cca-2881-4be3-9cf9-33a203520600" data-name="Path 82676" class="f33ae553-938b-4aa1-af0d-6a27d18e3181" d="M1339.26146,817.08972,695.02485,923.63708A112.67485,112.67485,0,0,1,563.96769,811.31326l4.18925-410.28717A165.113,165.113,0,0,1,698.77916,241.2394L1313.1645,110.04488a115.98652,115.98652,0,0,1,140.17581,113.4379v459.116A136.31468,136.31468,0,0,1,1339.26146,817.08972Z"/><g id="b45ed8d3-d1df-4b1e-a514-1774dbdb30b9" data-name="Group 44119"><path id="ad2ca4dd-8326-40df-a3d2-49ef9abccce2" data-name="Path 92678" class="b650f27b-d2f9-4d95-8246-a4f090f54384" d="M826.89643,758.8425c0,10.66769-.59347,21.36172.08067,31.98249a22.86612,22.86612,0,0,1-14.34953,25.42137h-48.887c-11.33524-5.39475-14.53143-14.71993-13.87046-26.6149.56631-10.26271,0-20.58633,0-30.8828Z"/><path id="ade42e96-4820-4491-b6e2-5a671c38b3b7" data-name="Path 92679" class="b650f27b-d2f9-4d95-8246-a4f090f54384" d="M1070.09748,816.246a29.26018,29.26018,0,0,0-2.85212-2.178,19.2563,19.2563,0,0,1-10.229-17.81488c.0675-12.47445,0-24.9489-.04033-37.42417l77.05266-.0675c-.04033,11.02493-.479,22.063,0,33.041a22.252,22.252,0,0,1-15.03025,24.41634Z"/><path id="adad4e40-dce9-444f-887a-92a68e375811" data-name="Path 92680" class="a838f25b-7cb0-40cd-85b0-d83287913be5" d="M1115.6603,586.07247c1.5911,1.55077,3.0752,3.23653,4.7947,4.626,9.44042,7.61966,18.98866,15.05083,28.32042,22.77832a34.48441,34.48441,0,0,1,13.48606,26.25026c.42474,23.68128.06092,47.38314,0,71.07184l-153.06654.08725c-17.18107-.0675-34.35556-.19591-51.53-.18191q-41.50274,0-83.00714.18191l-153.06654-.09466c-.04692-23.51337-.3844-47.0325,0-70.53187A34.1347,34.1347,0,0,1,734.767,613.90066c10.3442-8.47571,20.937-16.64193,31.375-25.00322a13.91741,13.91741,0,0,0,2.11049-2.81838l14.88208-38.34113q12.037-31.01657,24.05252-62.07674a48.43489,48.43489,0,0,1,48.90016-33.91107c12.66377-.06091,25.32671-.05433,37.99048-.08067,18.96808.0675,37.92957.17533,56.89764.20249,25.62386.03375,51.30781-.04033,76.958,0a48.03072,48.03072,0,0,1,48.54951,33.39827c3.183,8.19914,6.51338,16.33819,9.77707,24.50441l14.44336,37.95014ZM970.81348,633.94785h-76.702c-6.12981-.05433-12.26537-.27-18.39518-.121a10.11444,10.11444,0,0,0-10.70309,9.4898c-.01975.32431-.023.65027-.01152.9754-.20907,5.94708-.22224,11.91473,0,17.86262a10.11144,10.11144,0,0,0,10.78869,10.438c6.1224.16216,12.25879-.06091,18.39518-.10783h95.475c6.13639.05433,12.27937.27657,18.40835.10783a10.25776,10.25776,0,0,0,10.78869-10.98459q.22224-8.38846,0-16.79009a10.11377,10.11377,0,0,0-10.72778-10.98459c-6.12981-.15475-12.272.06749-18.40835.121Zm-181.1787-48.19228h304.48848a17.95913,17.95913,0,0,0-.55314-2.81838c-11.97564-31.15937-23.81628-62.37306-36.04791-93.43119a28.22691,28.22691,0,0,0-28.42165-18.67833q-87.13307-.0815-174.26035,0a29.23762,29.23762,0,0,0-28.93446,19.62246q-17.48441,45.17841-34.7877,90.44407C790.55832,582.39722,790.1945,583.948,789.63478,585.75557Zm-1.09229,48.091c-5.78574,0-11.56407-.07409-17.34981,0a10.39211,10.39211,0,0,0-11.61182,11.77973q-.10865,7.58591,0,15.17841c.11442,7.61966,3.65467,11.52374,11.20025,11.65215q17.88321.31731,35.77875,0a9.66846,9.66846,0,0,0,10.54587-10.9706q.121-8.40081,0-16.80326a9.73829,9.73829,0,0,0-10.67428-10.78869c-5.94707-.149-11.91472-.04116-17.87579-.04774Zm306.808,0c-6.143,0-12.29254-.14817-18.42893.04033a9.56791,9.56791,0,0,0-10.18452,8.9095,9.44426,9.44426,0,0,0,.00247,1.31288c-.12841,5.96106-.11441,11.92872,0,17.889a9.43832,9.43832,0,0,0,9.9598,10.43145q18.42276.426,36.857,0a9.94667,9.94667,0,0,0,10.67427-11.03151q.18275-8.13288,0-16.26411a10.23681,10.23681,0,0,0-11.52374-11.2875c-5.75857-.07409-11.54431,0-17.32265.01317Z"/><path id="bb9aed43-7da6-4e15-886e-0d15e7124ad3" data-name="Path 92681" class="b179c62a-1228-4ff1-8da3-80358f73608a" d="M721.60447,710.79139l153.06654.09466q-.05431,23.87142-.11441,47.74038l-47.64655.20907-77.05266-.09466a28.68488,28.68488,0,0,1-28.49327-28.87519q.00371-.64945.03786-1.29972C721.3814,722.646,721.523,716.7187,721.60447,710.79139Z"/><path id="bd1bc715-0734-4d0d-b8ce-0c54feb2088a" data-name="Path 92682" class="ab44c1ad-1350-414e-ad2c-e138c5c21606" d="M783.14122,547.73778,768.25913,586.0789c-3.43243-.05432-6.878.04692-10.303-.18849a18.88032,18.88032,0,0,1-17.32923-18.88083,18.67848,18.67848,0,0,1,17.02632-19.09648C766.13547,547.45462,774.64493,547.76494,783.14122,547.73778Z"/><path id="e393936d-2f87-43de-b8d5-216e09222f0b" data-name="Path 92683" class="b2267609-1b1d-4efb-a632-3eb76b5e05c3" d="M1009.20183,710.87936l153.06654-.08725c.04692,7.36367.49223,14.74709.06091,22.0836a28.66457,28.66457,0,0,1-28.28008,25.88643l-77.05266.0675-47.68689-.21566Q1009.24793,734.74256,1009.20183,710.87936Z"/><path id="e0654191-cf2c-4344-84d3-6df79f3aa12d" data-name="Path 92684" class="ab44c1ad-1350-414e-ad2c-e138c5c21606" d="M1115.6676,586.06563l-14.94218-38.32713c7.77441,0,15.55623-.17533,23.324,0a19.12312,19.12312,0,1,1,.414,38.244q-.3309.00369-.66344-.00412C1121.0887,586.03847,1118.37815,586.03847,1115.6676,586.06563Z"/><path id="a852b9d8-9bdb-4e96-9ff8-1e5b5a0224db" data-name="Path 92685" class="a469d4f8-202b-4232-a314-9a4227746499" d="M1009.20141,710.88574q.04692,23.864.08726,47.72721H874.549q.06051-23.87142.121-47.74038,41.49658-.10125,82.99974-.18191C974.84585,710.69066,992.02693,710.81824,1009.20141,710.88574Z"/><path id="b67efbfc-8eb0-4cf7-a33c-b3b9150391ea" data-name="Path 92686" class="fa87e151-27ce-4bb2-994d-33ddb96950e3" d="M789.65516,585.75536c.54656-1.80675.917-3.37151,1.47669-4.835q17.36216-45.23274,34.7877-90.44407A29.23763,29.23763,0,0,1,854.854,470.8538q87.13306-.06667,174.26035,0a28.22693,28.22693,0,0,1,28.42166,18.67834c12.225,31.05812,24.07227,62.27182,36.0479,93.43119a17.95764,17.95764,0,0,1,.55314,2.81837Z"/><path id="a01b08fc-8a76-4b7f-9904-3627176173a4" data-name="Path 92687" class="b1dbe1c8-608b-4ef0-b229-fc9fd8bc5505" d="M788.55579,633.85345c5.96107,0,11.92872-.10783,17.889,0A9.73576,9.73576,0,0,1,817.119,644.64214q.1284,8.402,0,16.80326a9.67044,9.67044,0,0,1-10.54587,10.9706q-17.88319.32965-35.77874,0c-7.54558-.135-11.07843-4.04566-11.19367-11.65215q-.11359-7.58592,0-15.17841a10.39218,10.39218,0,0,1,11.6044-11.78714C776.99172,633.77278,782.76347,633.84686,788.55579,633.85345Z"/><path id="ebc1c5b6-0626-49b5-83e3-f70005b13ae2" data-name="Path 92688" class="b1dbe1c8-608b-4ef0-b229-fc9fd8bc5505" d="M1095.38376,633.85324c5.77915,0,11.56407-.08066,17.34981,0a10.23465,10.23465,0,0,1,11.52374,11.2875c.11442,5.39476.121,10.843,0,16.26412a9.93732,9.93732,0,0,1-10.67427,11.03151q-18.42276.405-36.857,0a9.44237,9.44237,0,0,1-9.9598-10.43146c-.10125-5.96106-.121-11.92871,0-17.89636a9.56842,9.56842,0,0,1,8.86916-10.21991,9.70511,9.70511,0,0,1,1.31289-.00247C1083.09122,633.71166,1089.24161,633.85324,1095.38376,633.85324Z"/><path id="e640c433-c625-4f4f-9110-ab9e7fe64a05" data-name="Path 92689" class="b1dbe1c8-608b-4ef0-b229-fc9fd8bc5505" d="M989.73422,633.95428c6.13639-.05433,12.27936-.27657,18.40835-.121a10.11563,10.11563,0,0,1,10.72778,10.98459q.21606,8.39465,0,16.79668a10.25478,10.25478,0,0,1-10.78869,10.98459c-6.12981.16874-12.272-.06091-18.40835-.10783Q989.6943,653.22033,989.73422,633.95428Z"/><path id="a461b7ea-ddf1-48e5-855a-c63a6248452d" data-name="Path 92690" class="b1dbe1c8-608b-4ef0-b229-fc9fd8bc5505" d="M894.18564,672.491c-6.1298.05433-12.26537.27-18.39518.10783a10.11767,10.11767,0,0,1-10.78869-10.438c-.22965-5.94707-.21566-11.91472,0-17.86262a10.11486,10.11486,0,0,1,9.7318-10.48331c.3276-.01152.656-.00823.98281.01153,6.1224-.14158,12.25879.06749,18.39518.121Q894.15232,653.22578,894.18564,672.491Z"/><path id="a21827db-073b-4a0f-84aa-2e2a13839f2f" data-name="Path 92691" class="a7be2b90-aea1-4606-abd8-41268058572c" d="M894.21939,672.48432l-.06749-38.52963h19.00182q-.05433,19.25863-.10125,38.51646Z"/><path id="e164ee3d-ece1-4648-8436-ca5397081a4c" data-name="Path 92692" class="a7be2b90-aea1-4606-abd8-41268058572c" d="M951.48147,672.46394H932.42532q-.04074-19.25123-.08066-38.50987H951.535Q951.50782,653.21147,951.48147,672.46394Z"/><path id="e0ca8064-ef74-4264-b2fe-b244ce45c6ca" data-name="Path 92693" class="a7be2b90-aea1-4606-abd8-41268058572c" d="M989.74111,633.9477q-.03951,19.2648-.07408,38.5362H970.88086q0-19.2574-.06091-38.51645Z"/><path id="a99c0870-fe08-4706-8257-9421762e08a3" data-name="Path 92694" class="b1dbe1c8-608b-4ef0-b229-fc9fd8bc5505" d="M932.33725,633.95459q.04074,19.25863.08066,38.50987H913.01852q.05556-19.25741.10124-38.51646Z"/><path id="e1afff57-3add-4d17-91a7-4b49cb43b12d" data-name="Path 92695" class="b1dbe1c8-608b-4ef0-b229-fc9fd8bc5505" d="M970.81352,633.9477l.06091,38.51645H951.475q0-19.25122.06091-38.50246Z"/><path id="a3fdea20-d3a5-4c92-ac51-c5e74eb33de1" data-name="Path 92696" class="a3ec69d5-18bd-4aa8-be3a-cbeffc9f34e1" d="M1277.60094,292.501V477.22a113.26562,113.26562,0,0,1-9.09635,18.07169c-8.46254,11.46283-21.15923,14.39645-34.61237,14.42361q-73.79474.17532-147.6117.08725c-3.26369-8.1728-6.58829-16.311-9.7639-24.511a48.043,48.043,0,0,0-48.54952-33.39169c-25.62385-.06091-51.30122,0-76.96458,0-18.95491,0-37.923-.135-56.89106-.20248q-.00123-77.39139.04033-154.79346A38.17276,38.17276,0,0,1,930.915,259.972q154.49631-.08766,308.97945.07408a33.33027,33.33027,0,0,1,29.588,15.16524A140.29076,140.29076,0,0,1,1277.60094,292.501Z"/><g id="bd355070-f4cc-4f6f-a860-bd1a5b44d553" data-name="Group 44117"><path id="a1e4b37d-e08b-49bf-b7aa-55a8b62fe68f" data-name="Path 92697" class="b23a2f62-6ee8-46c7-b95a-39087e36b3b5" d="M1225.47752,335.68954c2.81179,1.261,5.91333,1.94175,7.28959,5.361a8.24034,8.24034,0,0,1-6.93894,11.71965,3.46663,3.46663,0,0,0-3.37152,2.4883,29.33852,29.33852,0,0,1-12.81192,13.48607,8.55833,8.55833,0,0,0-4.90253,12.29254,41.84492,41.84492,0,0,0,5.55609,8.14563,15.80528,15.80528,0,0,1-5.33385,10.37055,15.00976,15.00976,0,0,1-24.60565-10.51212,13.93067,13.93067,0,0,0,5.77915-15.4484,6.39123,6.39123,0,0,0-2.93361-3.61434,31.13945,31.13945,0,0,1-15.40148-15.50931,3.37024,3.37024,0,0,0-2.299-1.55076c-5.03011-.67414-8.01723-3.304-8.21313-7.49866a8.00421,8.00421,0,0,1,6.74139-9.09306c.22471-.03292.44942-.05679.67578-.07079a4.70473,4.70473,0,0,0,.87663-.56631V324.96835a33.28476,33.28476,0,0,0,31.42277,2.178,36.69734,36.69734,0,0,1,8.76627-2.48831,15.42842,15.42842,0,0,1,19.0224,9.98615A5.00624,5.00624,0,0,0,1225.47752,335.68954Z"/><path id="b2df3721-dafc-4c7f-a189-ee8e2a1407b7" data-name="Path 92698" class="ee443ce0-2735-46a5-9eb5-726223459c15" d="M1225.47094,335.68954a5.01622,5.01622,0,0,1-.67414-1.03878,15.42842,15.42842,0,0,0-19.0224-9.98614,36.73523,36.73523,0,0,0-8.76628,2.4883,33.28917,33.28917,0,0,1-31.42277-2.178,31.82641,31.82641,0,0,1-9.21734-23.08123c-.16216-2.64964,1.90141-4.14032,4.0794-2.85871a42.28522,42.28522,0,0,0,22.67049,4.04565c8.52345-.03375,17.04608-.28974,25.563-.07408a27.20527,27.20527,0,0,1,9.17042,1.96891,16.67679,16.67679,0,0,1,9.87832,17.7548A121.63112,121.63112,0,0,1,1225.47094,335.68954Z"/><path id="edd5c8ee-a544-4589-8247-caf89871063a" data-name="Path 92699" class="a5d5dfbe-96a3-41e5-ba9b-ecc5d9a0693b" d="M1180.353,389.04693a15.01014,15.01014,0,0,0,24.60565,10.51212,15.79065,15.79065,0,0,0,5.33384-10.37054,125.43393,125.43393,0,0,1,13.2095.41814,19.39454,19.39454,0,0,1,16.18345,16.18345H1151.0284a15.67429,15.67429,0,0,1,4.28848-9.49392,20.65238,20.65238,0,0,1,15.87313-7.24184C1174.23721,388.94568,1177.29841,389.04034,1180.353,389.04693Z"/></g><g id="b0b4de7f-34d2-4ae7-9587-5344c5f05c15" data-name="Group 44118"><path id="bac58585-3468-4c31-91ee-e1ce5f3ff758" data-name="Path 92700" class="a0294dee-7694-410a-a363-98f294b61b0c" d="M939.83611,270.7615a21.93477,21.93477,0,1,0,22.212,22.14451A22.25168,22.25168,0,0,0,939.83611,270.7615Zm6.43931,36.871a24.7937,24.7937,0,0,1-3.37152.95071h-6.008a15.8187,15.8187,0,0,1-12.84568-17.82887,2.15353,2.15353,0,0,1,.3844-.63381,6.54885,6.54885,0,0,1,2.06357-5.5495,12.08557,12.08557,0,0,1,6.64179-6.1899,15.90659,15.90659,0,0,1,19.06932,4.221,11.73719,11.73719,0,0,1,1.0857,1.9895l2.46773,5.58325a16.1091,16.1091,0,0,1-9.46676,17.45764Z"/><path id="af1137b9-b04c-44d5-afd8-0302837927d8" data-name="Path 92701" class="a0294dee-7694-410a-a363-98f294b61b0c" d="M955.77674,290.17489l-6.63521,2.78463q-1.389-2.57556-2.77145-5.15194l6.94552-3.21677Q954.575,287.3775,955.77674,290.17489Z"/><path id="a38ea7d0-5124-4477-a8c2-b3d502d960e5" data-name="Path 92702" class="a0294dee-7694-410a-a363-98f294b61b0c" d="M933.49723,287.77466l-2.778,5.15852-6.23764-2.8118a6.54,6.54,0,0,1,2.06358-5.5495Z"/><path id="a7e3414f-1363-4126-822a-c305144c23ac" data-name="Path 92703" class="a0294dee-7694-410a-a363-98f294b61b0c" d="M942.95823,308.57665h-6.0014q.04691-2.541.10124-5.08444h5.79233Z"/><path id="bf280a08-1258-47dd-9e05-a141ebfbc689" data-name="Path 92704" class="a0294dee-7694-410a-a363-98f294b61b0c" d="M949.17446,292.95952q-1.389-2.57556-2.77146-5.15194a9.57575,9.57575,0,0,0-12.89918,0l-2.778,5.15852c.06091,1.03138.04691,2.07674.20248,3.08836a10.25587,10.25587,0,0,0,6.1364,7.4715H942.857A10.25576,10.25576,0,0,0,949.17446,292.95952Zm-9.36633,4.67287a3.14237,3.14237,0,1,1,.04856-6.28455c.08725.00082.17451.00494.26176.01317a3.30427,3.30427,0,0,1,3.048,3.20278,3.22321,3.22321,0,0,1-3.35753,3.06943Z"/></g><path id="fbb4094c-68fb-4be1-a206-24a7c1f7bbfc" data-name="Path 92705" class="a5f6afe5-a27b-4f3d-ba79-68b685e06af1" d="M1072.75494,333.02614c-.14816,5.71825-4.57163,9.44042-11.63815,9.44042q-36.35781.08766-72.69669,0c-7.20152,0-11.27433-3.61434-11.30808-9.59516s4.04565-9.64949,11.17309-9.69641c12.104-.07408,24.22125,0,36.33846,0h36.35164C1068.31748,323.22191,1072.91627,327.14,1072.75494,333.02614Z"/><path id="a1fe04fa-fc55-4e31-b6f3-d7b788c2b314" data-name="Path 92706" class="a5f6afe5-a27b-4f3d-ba79-68b685e06af1" d="M1133.14551,291.0311c-.24941,5.71824-7.80157,9.44041-19.86528,9.44041q-62.03559.08766-124.072,0c-12.286,0-19.24465-3.61434-19.29156-9.59516s6.85745-9.64949,19.06932-9.6964c20.65383-.07409,41.32824,0,62.03558,0h62.03558C1125.56618,281.226,1133.41467,285.14411,1133.14551,291.0311Z"/><path id="ba492e0f-5593-4a7a-b177-edecd7e2f332" data-name="Path 92707" class="a5f6afe5-a27b-4f3d-ba79-68b685e06af1" d="M1072.788,371.374a9.7836,9.7836,0,0,1-10.19357,9.35645c-.12923-.00493-.25764-.01317-.386-.02387-5.4285.04034-10.843.04034-16.27069.04034H986.862a8.90789,8.90789,0,0,1-9.35893-6.743,8.62415,8.62415,0,0,1,3.61434-10.4652,12.38261,12.38261,0,0,1,6.10923-1.63884q37.68016-.15434,75.34633,0a9.44047,9.44047,0,0,1,10.18369,8.63375C1072.77974,370.81259,1072.78962,371.09328,1072.788,371.374Z"/><path id="ef082278-19b2-4a7b-b703-fa89699ff3c9" data-name="Path 92708" class="a5f6afe5-a27b-4f3d-ba79-68b685e06af1" d="M1024.771,418.95932c-12.286,0-24.5645.05432-36.85045,0-6.91178-.04034-10.78869-3.46618-10.78869-9.326s3.82341-9.48733,10.6611-9.50133q37.11962-.08148,74.24746,0a9.48759,9.48759,0,1,1,.16215,18.81992C1049.70016,419.01364,1037.23229,418.95932,1024.771,418.95932Z"/><path id="b2fccf36-44a5-4763-b32d-1f8127133b1c" data-name="Path 92709" class="a5f6afe5-a27b-4f3d-ba79-68b685e06af1" d="M943.53817,322.94578a44.39545,44.39545,0,0,1,7.63283,1.005,8.6516,8.6516,0,0,1,6.4393,8.99511,8.13912,8.13912,0,0,1-6.67554,8.71853,52.93217,52.93217,0,0,1-14.95617.10124,8.24677,8.24677,0,0,1-6.9521-9.0626,8.81974,8.81974,0,0,1,7.16776-9.01568A52.83519,52.83519,0,0,1,943.53817,322.94578Z"/><path id="ae165133-2f1d-40de-ad56-e62929e33495" data-name="Path 92710" class="a5f6afe5-a27b-4f3d-ba79-68b685e06af1" d="M943.07269,380.70624c-9.48733,0-14.11987-3.08178-14.16021-9.44042s4.835-9.68982,14.059-9.68323a48.356,48.356,0,0,1,5.39475.135,9.4971,9.4971,0,1,1-.45848,18.98866h0C946.3158,380.78772,944.691,380.70624,943.07269,380.70624Z"/><path id="fbb4e632-ba73-4f9c-8792-237b623c3bf7" data-name="Path 92711" class="a5f6afe5-a27b-4f3d-ba79-68b685e06af1" d="M942.87689,418.93956q-14.11987.03458-13.94455-9.55483c.10783-6.20388,4.65971-9.28484,13.72231-9.29225,1.80017,0,3.60775-.05432,5.39475.04034a9.64892,9.64892,0,0,1,9.6355,9.5754,9.48083,9.48083,0,0,1-9.44042,9.21076C946.47806,419.03422,944.64331,418.93956,942.87689,418.93956Z"/></g></svg>