<svg id="a1789ce6-3dd0-4bbc-afa4-4f3eb36ff0e0" data-name="Layer 1" xmlns="http://www.w3.org/2000/svg" xmlns:xlink="http://www.w3.org/1999/xlink" viewBox="0 0 1920 1080"><defs><linearGradient id="e7de5e92-7982-43b1-8fcd-70d586ee82c7" x1="964.26175" y1="525.36407" x2="965.8642" y2="518.84746" gradientTransform="matrix(116.55278, 0, 0, -107.1586, -111637.74931, 56586.22016)" gradientUnits="userSpaceOnUse"><stop offset="0" stop-color="#1cbec8" stop-opacity="0.33"/><stop offset="1" stop-color="#aa91c4"/></linearGradient><linearGradient id="e902cb3a-2a4b-41d0-8aac-d398fe3e3f21" x1="970.11905" y1="547.58771" x2="977.68823" y2="549.168" gradientTransform="matrix(-44.47499, -23.64777, -16.83203, 31.65645, 53772.18839, 5892.71988)" gradientUnits="userSpaceOnUse"><stop offset="0" stop-color="#353188"/><stop offset="1" stop-color="#57c3d9"/></linearGradient><linearGradient id="ef5dd84a-dc4e-4e11-bdc2-6100bbe97cb8" x1="972.08485" y1="577.63485" x2="979.65404" y2="579.21514" gradientTransform="matrix(-25.02924, -13.30828, -6.44622, 12.12357, 29368.81648, 6214.1989)" xlink:href="#e902cb3a-2a4b-41d0-8aac-d398fe3e3f21"/><linearGradient id="bfd6e24e-f047-4263-a3a9-d8d4a9b12a18" x1="588.14319" y1="-661.80418" x2="596.24724" y2="-661.80418" gradientTransform="matrix(1.25403, 0, 0, -0.77701, 406.52332, 184.90427)" gradientUnits="userSpaceOnUse"><stop offset="0" stop-color="#1cbec8" stop-opacity="0.502"/><stop offset="1" stop-color="#573f99" stop-opacity="0.502"/></linearGradient><linearGradient id="bdf4800a-8ca9-466d-817c-70318bec7f20" x1="315.44779" y1="-1077.62687" x2="323.55184" y2="-1077.62687" gradientTransform="matrix(0.91699, 0, 0, -0.57599, 716.74963, 78.24004)" xlink:href="#bfd6e24e-f047-4263-a3a9-d8d4a9b12a18"/><linearGradient id="f562db60-b36f-4504-8e35-cede411b27a1" x1="686.21997" y1="-251.45353" x2="694.32403" y2="-251.45353" gradientTransform="matrix(1.70801, 0, 0, -1.23499, -35.17664, 433.38922)" xlink:href="#bfd6e24e-f047-4263-a3a9-d8d4a9b12a18"/><linearGradient id="e046c296-8298-4826-b101-49d456bcaa2c" x1="575.4661" y1="-353.48459" x2="583.57016" y2="-353.48459" gradientTransform="matrix(1.51196, 0, 0, -1.092, 139.46997, 357.47748)" xlink:href="#bfd6e24e-f047-4263-a3a9-d8d4a9b12a18"/><linearGradient id="aee2571c-376b-41d6-9a87-c9b3a455aba9" x1="909.99333" y1="464.99389" x2="918.09738" y2="464.99389" gradientTransform="matrix(8.75391, 0, 0, -14.88869, -6883.45007, 7678.02919)" xlink:href="#bfd6e24e-f047-4263-a3a9-d8d4a9b12a18"/><linearGradient id="ad2622e4-bae5-43ab-b4fe-451444d9f1c3" x1="-132.83176" y1="-1082.87639" x2="-124.72565" y2="-1082.87639" gradientTransform="matrix(0.41187, 0, 0, -0.593, 1227.85083, 91.55524)" xlink:href="#bfd6e24e-f047-4263-a3a9-d8d4a9b12a18"/><linearGradient id="a3d954fd-dfae-47d4-9f5e-fd360eaf6fa3" x1="-50.75172" y1="-501.74271" x2="-42.6488" y2="-501.74271" gradientTransform="matrix(0.60876, 0, 0, -0.92599, 1013.10071, 268.08328)" xlink:href="#bfd6e24e-f047-4263-a3a9-d8d4a9b12a18"/><linearGradient id="bc50c48a-16f3-4a9a-9ec9-1fb5964ec259" x1="900.99858" y1="464.99538" x2="909.10263" y2="464.99538" gradientTransform="matrix(8.58008, 0, 0, -14.88901, -6724.03381, 7678.19901)" xlink:href="#bfd6e24e-f047-4263-a3a9-d8d4a9b12a18"/><linearGradient id="f133f046-273b-408b-a2d9-f2893f50e500" x1="891.32135" y1="481.82332" x2="899.4254" y2="481.82332" gradientTransform="matrix(10.62573, 0, 0, -21.10297, -8744.99597, 10982.01314)" gradientUnits="userSpaceOnUse"><stop offset="0" stop-color="#1cbec8"/><stop offset="1" stop-color="#573f99" stop-opacity="0.502"/></linearGradient><linearGradient id="f7c14509-6ba4-4992-9dbc-c6992a08d849" x1="898.47574" y1="480.28317" x2="906.5798" y2="480.28317" gradientTransform="matrix(10.36499, 0, 0, -20.41499, -8478.45239, 10616.75542)" xlink:href="#f133f046-273b-408b-a2d9-f2893f50e500"/><linearGradient id="a0fbc440-00f9-485f-a12f-719c4e2eab84" x1="865.42242" y1="469.62219" x2="873.52648" y2="469.62219" gradientTransform="matrix(9.17102, 0, 0, -17.28101, -7349.58911, 8957.95512)" xlink:href="#f133f046-273b-408b-a2d9-f2893f50e500"/><linearGradient id="f3bd79fd-ae84-42d5-a035-9bc4a294baaa" x1="903.92981" y1="470.99853" x2="912.03386" y2="470.99853" gradientTransform="matrix(9.27295, 0, 0, -17.707, -7399.81287, 9184.16539)" xlink:href="#f133f046-273b-408b-a2d9-f2893f50e500"/></defs><path id="abea2a1f-6250-4461-b1db-fb4ab46cb077" data-name="Path 82676" d="M1170.085,924.14854,525.84838,1030.6959A112.67485,112.67485,0,0,1,394.79122,918.37208l4.18925-410.28716A165.113,165.113,0,0,1,529.60268,348.29823L1143.988,217.1037a115.98652,115.98652,0,0,1,140.17581,113.4379v459.116A136.31466,136.31466,0,0,1,1170.085,924.14854Z" opacity="0.62" fill="url(#e7de5e92-7982-43b1-8fcd-70d586ee82c7)" style="isolation:isolate"/><g id="b840f613-de13-400e-b6b1-23f5d1802df7" data-name="Group 42375"><path id="b27b0a76-9899-4508-b905-39bde7351f22" data-name="Path 82685" d="M1378.72,242.11869c1.53239.19065,2.76958.29777,3.99735.49168q27.291,4.37789,54.5743,8.77009a8.91445,8.91445,0,0,0,11.04706-9.57342,12.21289,12.21289,0,0,0-3.05324-6.34114c-5.53109-6.2727-11.33646-12.30573-17.0642-18.39846q-36.33987-38.67951-72.64776-77.33284-24.672-26.28932-49.2435-52.6813a13.01514,13.01514,0,0,0-7.871-4.18509q-79.66239-12.80276-159.31066-25.73572-20.538-3.32052-41.09253-6.55806c-5.38744-.86366-8.78182.47972-10.9112,4.29466a9.06845,9.06845,0,0,0,2.05972,11.55855c11.82656,12.71319,23.746,25.33805,35.62442,38.00539q48.74406,52.067,97.52954,104.07334c10.99872,11.74984,6.33609,9.16054,21.89342,11.73273,36.56648,6.04226,73.16839,11.828,109.76,17.73678,5.21388.84481,5.29685.86139,5.99124,5.99419a68.19564,68.19564,0,0,1-7.59627,43.02786,5.59182,5.59182,0,0,1-4.88974,3.29262,22.6022,22.6022,0,0,0-18.90447,32.34337,4.94349,4.94349,0,0,1-.61031,5.54968q-19.24924,25.8453-38.47412,51.73111c-1.95118,2.6339-3.72818,5.40631-5.76766,7.94737a7.69884,7.69884,0,0,0-.47214,10.0196,39.50728,39.50728,0,0,0,32.357,17.2045,7.75556,7.75556,0,0,0,7.9945-5.95563c8.13667-23.20888,16.45223-46.32264,24.60855-69.44764a5.87543,5.87543,0,0,1,4.76732-4.33979,22.69134,22.69134,0,0,0,15.55365-34.62066,5.38105,5.38105,0,0,1-.29678-4.36152,88.33411,88.33411,0,0,0,10.26579-52.48486A11.28183,11.28183,0,0,1,1378.72,242.11869Z" fill="url(#e902cb3a-2a4b-41d0-8aac-d398fe3e3f21)"/><path id="ac591ed3-3c24-4d39-bfb2-4a24dfd0c3e1" data-name="Path 82686" d="M1145.5579,144.69732c-1.36337,1.89092-2.6166,3.43657-3.63749,5.11492-9.52792,15.50273-18.85594,31.13009-28.57662,46.512a27.93468,27.93468,0,0,0-.89361,28.43684,105.44189,105.44189,0,0,0,25.0397,32.45083,250.1235,250.1235,0,0,0,42.33458,31.22,246.93861,246.93861,0,0,0,72.82175,29.86285,115.13414,115.13414,0,0,0,36.56492,2.92078,31.90566,31.90566,0,0,0,28.88443-21.75017c3.81915-9.61673,8.60411-18.8576,12.91879-28.28426,2.99166-6.54137,5.92227-13.106,8.871-19.67024,1.06341-2.36249.63667-3.5623-2.27375-4.02675-26.25285-4.138-52.49111-8.42426-78.73074-12.65618-8.25782-1.33435-16.49814-2.7879-24.78577-3.94535a24.72544,24.72544,0,0,1-15.03849-8.0879q-27.79539-29.68479-55.63462-59.3562c-5.05523-5.44143-10.119-10.83233-15.22188-16.25321C1147.4874,146.40244,1146.61362,145.68086,1145.5579,144.69732Z" fill="url(#ef5dd84a-dc4e-4e11-bdc2-6100bbe97cb8)"/></g><g id="e92922ad-e7a6-4804-8abe-9be0ae650229" data-name="Group 44123"><g id="bff258d0-405b-4201-9e30-6324ac15fe70" data-name="Group 44120"><path id="a4f2cb6d-20c6-452d-b1fe-aa2df144eb07" data-name="Path 92712" d="M1144.72049,595.4118c-3.97091-2.83647-3.82549,37.27869-20.26013,53.17876q-1.77474,1.70982-3.62269,3.33889c-1.11787.98061-2.31784,1.88009-3.48518,2.8121a54.40947,54.40947,0,0,0,13.71219,33.53458c17.15582-4.65177,31.13611-9.90316,28.23459-14.19026-6.24819-9.23057-4.27065-48.3164-4.22218-82.6613C1152.4041,595.84138,1148.91892,598.2239,1144.72049,595.4118Z" fill="#906a5e"/><path id="ac1d98f9-1f3f-4505-ad08-8bdb324bd328" data-name="Path 92713" d="M1034.23847,648.58252c-16.45146-15.884-16.313-56.01523-20.26013-53.17876-5.341,3.59-9.54639-1.24808-12.33414-8.02306-.12168,35.26072,2.27729,77.09385-4.22218,86.71334-2.99846,4.43289,12.01066,9.895,29.92821,14.65211a54.17754,54.17754,0,0,0,14.13362-33.86684A92.099,92.099,0,0,1,1034.23847,648.58252Z" fill="#906a5e"/><path id="f80ca228-f52d-4e1b-9047-118fe618fcd5" data-name="Path 92714" d="M961.82038,865.69c-2.13087-23.42887-2.14769-51.56614-3.963-77.47472a657.361,657.361,0,0,0-10.16271-71.8019c0-.08916.08112-.18636.12168-.28368a8.71172,8.71172,0,0,0-6.32932,0c-11.52393,3.47665-28.42057,39.84769-37.91849,81.13772-1.95281,8.49308-4.052,17.35887-6.09387,26.45973A268.01008,268.01008,0,0,0,961.82038,865.69Z" fill="#1cbec8"/><path id="ae8a7e8a-c40e-4578-aa25-32409fc3d7e7" data-name="Path 92715" d="M1212.42276,716.4134a657.35855,657.35855,0,0,0-10.16271,71.8019c-1.661,23.73678-1.82322,49.33745-3.46836,71.48584a268.37348,268.37348,0,0,0,60.03448-43.11362c-1.51555-6.58862-3.01428-13.03936-4.45762-19.28768-9.50584-41.29016-26.39456-77.66107-37.9185-81.13772a11.17515,11.17515,0,0,0-4.56248-.53482C1212.21205,715.911,1212.42276,716.15409,1212.42276,716.4134Z" fill="#1cbec8"/><path id="a843033c-72cb-415b-bf45-8a6dd7a27666" data-name="Path 92716" d="M1020.33239,695.01067l1.62041-.36467a8.32228,8.32228,0,0,0-2.65815,1.15076,11.05054,11.05054,0,0,0-3.24182,6.40215c-.42934,2.24476-3.8334,9.23057,10.24383,27.0027a449.38422,449.38422,0,0,1,49.79956,85.99216h6.40252a449.52549,449.52549,0,0,1,49.79956-86.00835c14.07723-17.77214,10.68108-24.74979,10.25174-27.00271-1.19107-6.27256-4.91961-7.53671-4.91961-7.53671s.15433-.04056.38878-.081a50.46191,50.46191,0,0,1-7.01784-6.31311,54.40944,54.40944,0,0,1-13.71219-33.53457,75.53752,75.53752,0,0,1-8.83314,6.19959,59.97614,59.97614,0,0,1-11.86424,5.34871,56.34178,56.34178,0,0,1-11.58033,2.43124,57.6596,57.6596,0,0,1-14.741-.42947,55.63021,55.63021,0,0,1-11.64561-3.16057,63.66393,63.66393,0,0,1-11.9701-6.32115c-1.8153-1.20752-3.54157-2.54464-5.251-3.89808a54.17757,54.17757,0,0,1-14.13362,33.86685,50.9263,50.9263,0,0,1-6.60433,5.87548l.276.05676A4.18955,4.18955,0,0,0,1020.33239,695.01067Z" fill="#f4ccb0"/><path id="b25e447f-e2ae-4e61-9843-5d3410fca69d" data-name="Path 92717" d="M1013.95361,595.4118c3.97091-2.83647,3.8334,37.27869,20.26013,53.17876,2.29312,2.21236,4.72473,4.29514,7.22856,6.28059,1.71043,1.35344,3.43571,2.69055,5.251,3.89807a63.68488,63.68488,0,0,0,11.9701,6.32115A55.5754,55.5754,0,0,0,1070.309,668.251a57.65951,57.65951,0,0,0,14.741.42946,56.34178,56.34178,0,0,0,11.58033-2.43124,60.01873,60.01873,0,0,0,11.86424-5.3487,75.61233,75.61233,0,0,0,8.83314-6.1996c1.16733-.932,2.36632-1.8315,3.48518-2.81211s2.43161-2.19616,3.62269-3.33889c16.45146-15.884,16.30505-56.01523,20.26013-53.17876,4.18953,2.82027,7.68262.42947,10.34077-3.99526a50.695,50.695,0,0,0,5.67244-18.8419c.85869-8.10405-1.72626-12.69906-4.99974-12.50455-1.53138,8.0149-4.40816,5.55126-6.59641,6.93709-3.12014,1.98546-7.00993-24.74978-22.0507-37.27869s-16.25658-20.9327-16.25658-20.9327c-15.04077,1.70994-29.766,7.15584-54.56484,26.88115-19.628,15.62456-37.14093,31.20065-45.0501,33.2833-2.18825.57538-2.26146-7.79614-9.72447-6.24819-.276.05676-.55893-.61594-.81021-1.8477a13.20136,13.20136,0,0,0-2.72344,11.66985,56.91352,56.91352,0,0,0,3.687,14.81423C1004.40721,594.14752,1008.61357,599.01,1013.95361,595.4118Z" fill="#fcd4b5"/><path id="aba925b6-c410-4fd0-9436-ea0e5856066d" data-name="Path 92718" d="M1153.49724,702.2799q.35613-2.34195.737-3.86567c-3.963-.95625-7.44718-1.7829-10.16271-2.43124a22.20642,22.20642,0,0,1,3.35459,2.099C1148.78142,699.11129,1151.00133,700.47276,1153.49724,702.2799Z" fill="url(#bfd6e24e-f047-4263-a3a9-d8d4a9b12a18)"/><path id="b4bb9906-9c8c-4c18-a3f2-45cb3d24bda8" data-name="Path 92719" d="M1011.248,698.09012a26.01508,26.01508,0,0,1,2.19616-1.483c-2.18034.51862-4.68416,1.10216-7.43135,1.77474.2028.81046.39669,1.75854.58367,2.8931C1008.5087,699.954,1010.19441,698.90058,1011.248,698.09012Z" fill="url(#bdf4800a-8ca9-466d-817c-70318bec7f20)"/><path id="aea54f5a-5b78-4714-a473-a39d721d59a4" data-name="Path 92720" d="M1176.08412,734.00734c1.11787.74553-.21071,1.44247-2.94207,2.099-1.72627,35.47959-2.59286,78.60928-2.59286,78.60928l-22.03487.10535s.276-19.30388.95661-42.35992a363.81409,363.81409,0,0,1-36.59782,28.83421,110.29552,110.29552,0,0,0-15.9321,13.858l74.88136-.41326a419.99542,419.99542,0,0,1,.52629,57.10119,266.66273,266.66273,0,0,0,26.45985-12.10748c1.62041-22.14839,1.80738-47.74906,3.46836-71.48583a657.60439,657.60439,0,0,1,10.16271-71.80191c0-.23508-.21863-.50242-.53519-.81046a170.90967,170.90967,0,0,0-36.61366-11.96156c-.71326,7.2936-1.35331,17.01856-1.90433,27.62669A10.46148,10.46148,0,0,0,1176.08412,734.00734Z" fill="#1cbec8"/><path id="aa81e1f4-0731-48df-8a0c-d5bc17301f2f" data-name="Path 92721" d="M957.85838,788.2153c1.8153,25.933,1.84,54.046,3.9709,77.47472a266.41682,266.41682,0,0,0,25.97313,10.38938,451.50392,451.50392,0,0,1,.51838-61.38013l73.74668.41326a119.27582,119.27582,0,0,0-17.46447-15.39765,356.50086,356.50086,0,0,1-33.79426-26.13562c.65687,22.52926.924,41.19284.924,41.19284l-22.04278-.10536s-.85868-42.82178-2.577-78.24461c-3.76811-.7375-5.85941-1.564-4.53875-2.43124a12.76518,12.76518,0,0,0,4.16579-5.07319c-.52628-9.72484-1.11786-18.534-1.78265-25.30081-17.97493,4.676-35.9093,9.91936-37.15676,12.49651-.04056.0972-.1296.19452-.1296.28367A657.4398,657.4398,0,0,1,957.85838,788.2153Z" fill="#1cbec8"/><path id="f7ca18fb-1d73-4ecb-be8d-7eb90af6ca72" data-name="Path 92722" d="M1020.3314,695.01067a6.8929,6.8929,0,0,0-1.02092.81045,8.33063,8.33063,0,0,1,2.65815-1.15076Z" fill="#1c2121"/><path id="bf4355a1-a3c3-43cf-b8c6-0dbdd5e8db02" data-name="Path 92723" d="M1150.73422,738.92645c-7.56094.64018-13.84178,1.00485-13.84178,1.00485l13.41244,9.00354C1150.41865,745.55551,1150.56407,742.20858,1150.73422,738.92645Z" fill="url(#f562db60-b36f-4504-8e35-cede411b27a1)"/><path id="a56e3441-8823-40fe-a012-5dabc7c2a8ec" data-name="Path 92724" d="M1009.55337,739.05617q.2033,4.368.38086,8.84959l11.87216-7.97434S1016.37731,739.61535,1009.55337,739.05617Z" fill="url(#e046c296-8298-4826-b101-49d456bcaa2c)"/><path id="e2943737-f26e-4d7e-9488-b88ac1c53469" data-name="Path 92725" d="M1001.4503,562.75248c7.49665-1.54783,7.56886,6.82357,9.72447,6.24819,7.90917-2.08277,25.4142-17.66678,45.0501-33.2833,24.79888-19.72531,39.52308-25.17121,54.56485-26.88115,0,0,1.2158,8.45252,16.25657,20.9327s18.93155,39.23175,22.0507,37.27869c2.18825-1.38583,5.065,1.06977,6.59642-6.93709A98.07787,98.07787,0,0,0,1156.7628,542.93c0-28.09671-11.40226-57.03627-29.79862-61.85819-8.85-2.30969-9.98464-10.908-29.65319-16.79969a74.69485,74.69485,0,0,0-85.00351,33.81825,108.93729,108.93729,0,0,0-11.70992,62.855C1000.91511,562.1447,1001.199,562.81727,1001.4503,562.75248Z" fill="#906a5e"/><path id="a7e7e812-3483-4ddb-933d-02687eced9e3" data-name="Path 92726" d="M1142.59753,702.19891c.42934,2.24476,3.82548,9.23057-10.25175,27.0027A449.52692,449.52692,0,0,0,1082.54622,815.21l14.38489-.081a110.30348,110.30348,0,0,1,15.9321-13.858,363.74282,363.74282,0,0,0,36.59783-28.8342c.22654-7.60967.50255-15.62457.81021-23.5017l-13.41245-9.00355s6.28876-.36466,13.84179-1.00484c.72117-15.27609,1.62041-28.98012,2.78775-36.64655-2.49592-1.80726-4.74946-3.18494-6.07013-4.18978a22.20692,22.20692,0,0,0-3.35459-2.099,10.19582,10.19582,0,0,0-6.00484-1.41007.90055.90055,0,0,0-.38878.081S1141.40645,695.93451,1142.59753,702.19891Z" fill="url(#aee2571c-376b-41d6-9a87-c9b3a455aba9)"/><path id="bb197ebb-687a-465b-97f9-c71d9dc672e3" data-name="Path 92727" d="M1176.08412,734.00734a10.44037,10.44037,0,0,1-2.69871-2.70675q-.12168,2.3746-.24336,4.80572C1175.87341,735.458,1177.202,734.75287,1176.08412,734.00734Z" fill="url(#ad2622e4-bae5-43ab-b4fe-451444d9f1c3)"/><path id="bfc4a86e-6fc2-434e-a032-d6e5723194f1" data-name="Path 92728" d="M982.59889,734.01537c-1.31276.87526.76964,1.69375,4.53874,2.43124-.12168-2.54463-.25127-5.05687-.38087-7.50431A12.75835,12.75835,0,0,1,982.59889,734.01537Z" fill="url(#a3d954fd-dfae-47d4-9f5e-fd360eaf6fa3)"/><path id="afe0834a-44f7-4172-bf4a-abcfe0ba1278" data-name="Path 92729" d="M1006.60437,701.27506c1.23163,7.45571,2.20408,21.75132,2.9579,37.78915,6.82394.55918,12.253.87525,12.253.87525l-11.87216,7.97433c.34822,8.59844.648,17.39943.88341,25.68983a356.50073,356.50073,0,0,0,33.79425,26.13562,119.27478,119.27478,0,0,1,17.46447,15.39765l14.0525.073a449.49968,449.49968,0,0,0-49.79956-85.99216c-14.07723-17.77213-10.68108-24.74978-10.24383-27.00271a11.05048,11.05048,0,0,1,3.24182-6.40214,6.96992,6.96992,0,0,1,1.02092-.81046,4.23789,4.23789,0,0,1,.6727-.34847l-.276-.05676a10.64018,10.64018,0,0,0-7.29384,2.00166,25.81043,25.81043,0,0,0-2.19617,1.483C1010.19441,698.90058,1008.51662,699.95414,1006.60437,701.27506Z" fill="url(#bc50c48a-16f3-4a9a-9ec9-1fb5964ec259)"/><path id="f51b75b5-124f-46d7-ab6c-2fb81f50fe03" data-name="Path 92730" d="M987.13763,736.44661c1.71835,35.42283,2.577,78.24462,2.577,78.24462l22.04279.10535s-.2671-18.63934-.924-41.19283c-.23544-8.29041-.53519-17.0914-.88341-25.68983q-.17806-4.48953-.38087-8.84959c-.75382-16.02979-1.72626-30.33344-2.9579-37.78915-.186-1.13456-.38878-2.099-.58366-2.8931a2.50447,2.50447,0,0,0-.12168-.543l-21.006,4.86248c0,.29171.05639.61594.089.92385.66478,6.76693,1.25636,15.576,1.78265,25.3008C986.88735,731.38974,987.00012,733.902,987.13763,736.44661Z" fill="#573f99"/><path id="b1190446-c7ee-490d-8d3b-f336f53023e9" data-name="Path 92731" d="M1150.70949,738.93461c-.15432,3.28213-.29974,6.62906-.42934,10.01655-.31557,7.869-.58366,15.87584-.81021,23.5017-.6727,23.056-.95661,42.35992-.95661,42.35992l22.03487-.10535s.86758-43.0973,2.59286-78.60928q.11425-2.43119.24336-4.80573c.551-10.64064,1.18316-20.33308,1.90433-27.62668,0-.31607.06529-.65638.089-.95625l-20.99713-4.86248c-.04847.17015-.089.389-.13751.57538q-.37988,1.53176-.737,3.86567C1152.34672,709.95449,1151.44748,723.65036,1150.70949,738.93461Z" fill="#573f99"/><path id="b2949a73-bfd6-48de-b1a6-90ba967a6194" data-name="Path 92732" d="M1171.80555,814.70755l-74.88136.41327-14.38489.081h-6.40252l-14.0525-.073-73.74667-.41326a451.50392,451.50392,0,0,0-.51838,61.38013,267.78986,267.78986,0,0,0,184.53734-4.27894A420.11366,420.11366,0,0,0,1171.80555,814.70755Z" fill="#573f99"/></g><g id="bc6ac333-8c19-4fd2-a2cf-552dc2c2542b" data-name="Group 44121"><path id="a608e0e9-64b9-40c9-9ebf-bd9c02865d8f" data-name="Path 92733" d="M653.88322,587.15379V585.614c-.25919-.72933-.52629-1.49119-.81021-2.30968A35.21642,35.21642,0,0,0,653.88322,587.15379Z" fill="none"/><path id="a9c1f45f-f324-4b15-8cf0-5057795df3ce" data-name="Path 92734" d="M545.15022,673.89952a87.8793,87.8793,0,0,0,11.94537,10.64869,59.16,59.16,0,0,0,11.45073,6.60482,49.62713,49.62713,0,0,0,11.13516,3.31453,50.24511,50.24511,0,0,0,25.17974-2.06657,54.78478,54.78478,0,0,0,11.34587-5.59986,77.1674,77.1674,0,0,0,11.77521-9.425q1.77474-1.70186,3.46045-3.49285c12.8446-13.55811,15.114-44.00494,17.58615-53.114a10.05306,10.05306,0,0,1-.06529-1.92066c.62422-10.746,4.45762-21.07058,4.92752-31.71111a35.22112,35.22112,0,0,1-.81021-3.84947,77.255,77.255,0,0,0-17.16472-31.37081c-14.69255-13.3312-15.87571-22.35094-15.87571-22.35094-14.68464,1.8153-29.06161,7.62587-53.27583,28.68829-18.48539,16.07839-35.00907,32.07578-43.10521,35.204.65687,8.28236,1.69362,16.52417,2.77192,24.77414C529.599,620.46145,530.40128,658.33172,545.15022,673.89952Z" fill="#fee5d3"/><path id="ffcfd9e5-d7e5-46b1-b16e-85f10e0283eb" data-name="Path 92735" d="M620.03258,529.5827s1.18316,9.01986,15.87571,22.35094a77.22863,77.22863,0,0,1,17.16472,31.3708c.29183.81045.55893,1.62078.81021,2.30968,0-.90765.04847-1.80726,0-2.72295-.48672-1.62078-.81021-3.9385-1.29693-6.48326-.38086-1.96122-.81021-3.90611-1.36914-5.82677q-1.21531-4.46133-2.73927-8.801a113.51862,113.51862,0,0,0-4.3676-10.58389A96.62289,96.62289,0,0,0,637.87,539.94783a77.51533,77.51533,0,0,0-8.39589-10.7946,61.86187,61.86187,0,0,0-10.79485-9.20621,53.89129,53.89129,0,0,0-29.92821-9.0765,56.663,56.663,0,0,0-17.01831,2.43124,54.03486,54.03486,0,0,0-13.55786,6.43467,61.116,61.116,0,0,0-10.876,9.18185,76.80836,76.80836,0,0,0-8.46019,10.78644,96.94419,96.94419,0,0,0-6.29667,11.28083A114.75064,114.75064,0,0,0,528.14181,561.61q-1.55661,4.368-2.77192,8.84959c-.52629,1.953-1.0051,3.93047-1.39388,5.92408s-.65687,3.76032-.97244,5.22715c.0732,3.95483.32448,7.8853.63214,11.81565,8.10405-3.12818,24.61981-19.11741,43.1052-35.204C590.972,537.20856,605.34794,531.398,620.03258,529.5827Z" fill="#554c44"/><path id="a1c65dae-a89a-4f25-a173-92d74630c647" data-name="Path 92736" d="M692.06189,910.82149c-.31558-6.11044-.55893-11.14307-.34822-15.08974,1.12677-20.949-2.74719-108.71581,35.55217-127.23359h.08112a1.57613,1.57613,0,0,0-.19488-.81046,214.97248,214.97248,0,0,0-35.90139-14.66028c2.73136,7.15585-10.72956,15.86768-44.32892,33.73713-36.46824,19.38488-60.14034,18.30707-60.14034,18.30707s-23.70475,1.07781-60.14034-18.30707c-31.96213-17.01856-45.73962-25.706-44.64549-32.68368a189.65344,189.65344,0,0,0-32.992,13.61474,5.74057,5.74057,0,0,1-.737.81046h.08112c38.29936,18.52583,34.42639,106.30089,35.55217,127.23359.21863,4.16555-.05639,9.50609-.4056,16.07839A241.50048,241.50048,0,0,0,692.052,910.8294Z" fill="#573f99"/><path id="a5b54cc2-a6ea-4329-affc-69c35ec58878" data-name="Path 92737" d="M526.649,786.75651c36.46823,19.38488,60.14033,18.30707,60.14033,18.30707s23.69585,1.07781,60.14034-18.30707c33.59145-17.82889,47.06029-26.57324,44.32893-33.73712a6.755,6.755,0,0,0-.99718-1.79094c-5.90789-7.52867-26.58944-12.91781-38.40521-33.37246s-2.9579-31.21685,9.84614-57.06063,13.77649-63.51954,13.77649-106.6412-45.38249-90.37645-88.69841-90.37645S498.082,511.02435,498.082,554.15416s.98828,80.80545,13.7765,106.6412,21.66191,36.606,9.84614,57.06063-32.49732,25.84379-38.40521,33.37246a6.12766,6.12766,0,0,0-1.32067,2.8445C480.91038,761.04244,494.68687,769.75427,526.649,786.75651Zm-3.6306-205.09734c.31557-1.46683.59158-3.29029.97244-5.22715s.8755-3.96287,1.40179-5.92408q1.20789-4.48973,2.77192-8.84959a114.45027,114.45027,0,0,1,4.40025-10.62445,96.94412,96.94412,0,0,1,6.29666-11.28083,76.80909,76.80909,0,0,1,8.46019-10.78644,61.1109,61.1109,0,0,1,10.876-9.18185,54.03918,54.03918,0,0,1,13.55786-6.43467,56.663,56.663,0,0,1,17.01832-2.43124,53.90162,53.90162,0,0,1,29.92821,9.0765,61.92006,61.92006,0,0,1,10.79485,9.20621,77.48661,77.48661,0,0,1,8.39588,10.7946,96.63353,96.63353,0,0,1,6.24028,11.24843,113.82764,113.82764,0,0,1,4.3676,10.58389c1.02092,2.88507,1.94489,5.82677,2.73927,8.801.51838,1.92066.98828,3.86568,1.36915,5.82677.50254,2.52843.8102,4.86248,1.29692,6.48326.04056.90765,0,1.8153,0,2.72295v1.53979c-.4699,10.65685-4.3033,20.96523-4.92752,31.71111a10.05222,10.05222,0,0,0,.06529,1.92066c-2.43161,9.1089-4.73264,39.55585-17.58615,53.114q-1.69313,1.79087-3.46045,3.49284a77.16807,77.16807,0,0,1-11.77521,9.425,54.78549,54.78549,0,0,1-11.34587,5.59985,50.24488,50.24488,0,0,1-25.17974,2.06657,49.62713,49.62713,0,0,1-11.13516-3.31453,59.15915,59.15915,0,0,1-11.45073-6.60482,87.8787,87.8787,0,0,1-11.94537-10.64869c-14.74894-15.56792-15.55123-53.43807-18.72875-55.65056-1.07829-8.25-2.115-16.49177-2.77191-24.77414-.32152-3.995-.57279-7.92549-.646-11.90456Z" fill="#1cbec8"/><path id="a1824399-0cdf-410f-b4b5-01f9c71a2d89" data-name="Path 92738" d="M691.71367,895.73175a145.3302,145.3302,0,0,0,.34822,15.08974,259.05857,259.05857,0,0,0,61.94772-41.89793C743.93594,814.9263,732.52576,766.52074,727.347,768.482h-.08112C688.96549,787.01594,692.83945,874.79088,691.71367,895.73175Z" fill="#1cbec8"/><path id="ad920487-c790-48ba-ae5e-5f80bb06b94a" data-name="Path 92739" d="M483.90884,895.73991c-1.12678-20.949,2.74718-108.7158-35.55218-127.23359h-.08112c-5.23519-1.95306-16.81551,47.40875-26.95448,102.03A258.53324,258.53324,0,0,0,483.51115,911.867C483.84354,905.23784,484.12746,899.90533,483.90884,895.73991Z" fill="#1cbec8"/></g><g id="bbcbf4e1-d993-4a24-a658-7141784d9f10" data-name="Group 44122"><path id="e4c4d266-e7ac-4531-b558-4ac5330f5f3c" data-name="Path 92741" d="M823.12752,754.19463c37.40012-28.68829,50.80465-47.34383,56.49292-50.79624a82.6789,82.6789,0,0,1-3.20126-19.5308c-18.34788,15.45441-26.45985,20.73832-50.80465,19.9035-26.265.90765-33.61519-5.29194-55.31866-23.71241-.1296-.11352-.22654-.24311-.34822-.34847a87.3565,87.3565,0,0,1-3.33086,23.68818C772.29121,706.82644,785.68684,725.482,823.12752,754.19463Z" fill="#f4ccb0"/><path id="a7b58d19-35b5-4c6d-a7aa-3694924810c3" data-name="Path 92742" d="M798.59674,899.62166c1.42652-9.44933,2.82039-18.63935,4.15689-27.27822h0l.0732-.48622c4.29539-27.886,7.86069-50.13974,9.23083-57.60362h0A5.46839,5.46839,0,0,1,810.372,812.722h0a3.32284,3.32284,0,0,1-.42934-.58354h0c-.72909-1.62078-1.475-3.16874-2.212-4.6436-.15432-.31607-.31557-.61595-.4699-.92385a77.09729,77.09729,0,0,1-9.00329-20.47889c-.12959-.68889-.23544-1.39387-.31558-2.107v-.21876a18.82932,18.82932,0,0,0-4.4408,12.21284c1.55611,16.42686-49.97763-44.11846-49.14269-67.377a173.81486,173.81486,0,0,1-18.41218,8.75239h0A1011.58328,1011.58328,0,0,0,798.59674,899.62166Z" fill="url(#f133f046-273b-408b-a2d9-f2893f50e500)"/><path id="a5ce435c-f171-479a-a2bd-45d2b5583b26" data-name="Path 92743" d="M623.5,772.25847h.05638l-.39669.154h.23544C623.43564,772.35567,623.45147,772.27467,623.5,772.25847Z" fill="#9b9a9a"/><path id="f44dc074-5026-4d1b-a76f-26156d43304a" data-name="Path 92744" d="M852.78863,795.96285a18.79438,18.79438,0,0,0-4.425-12.19664v.20255c-.0732.7213-.186,1.42627-.31557,2.11517a29.38409,29.38409,0,0,1-1.0694,4.18978h0a129.39557,129.39557,0,0,1-7.90125,16.20811l-.50255.97245c-.737,1.46683-1.475,2.99042-2.20408,4.6274a3.49311,3.49311,0,0,1-.43725.59158h0a5.40481,5.40481,0,0,1-1.69362,1.54783c1.35331,7.39092,4.86223,29.32043,9.11705,56.86612.05639.40523.12168.81045.186,1.23176h0c1.08621,7.091,2.22089,14.53056,3.37932,22.18078A962.67929,962.67929,0,0,0,918.23835,736.7706h0a172.66834,172.66834,0,0,1-16.20811-7.715C902.04508,752.66288,851.24834,812.27631,852.78863,795.96285Z" fill="url(#f7c14509-6ba4-4992-9dbc-c6992a08d849)"/><path id="a02f42ea-97bd-4aa2-8461-4607c6b0d233" data-name="Path 92745" d="M1020.81812,772.46919a22.11617,22.11617,0,0,1,2.90151.52678c-.95662-.42947-2.06657-.86709-3.34668-1.32092h0A1.092,1.092,0,0,1,1020.81812,772.46919Z" fill="#9b9a9a"/><path id="a77cf7bc-2573-4956-bac2-d8f4c449761f" data-name="Path 92746" d="M623.39508,772.38819h-.23544a22.10064,22.10064,0,0,0-3.874.68074c-13.9229,3.71975-23.50195,37.44884-32.068,75.03544a312.08927,312.08927,0,0,0,74.32243,64.33,150.83733,150.83733,0,0,0-1.937-21.39469C654.39269,862.2297,619.02649,776.23754,623.39508,772.38819Z" fill="url(#a0fbc440-00f9-485f-a12f-719c4e2eab84)"/><path id="e87d8b3c-29cb-4449-a688-db3141b4db0c" data-name="Path 92747" d="M1024.12424,773.04457a.80325.80325,0,0,1-.4056-.073,22.07656,22.07656,0,0,0-2.90151-.52679c1.78265,8.83339-31.4685,90.70057-36.51671,118.57036a163.33528,163.33528,0,0,0-2.0181,24.9281,311.76945,311.76945,0,0,0,75.14846-62.03651C1048.09609,814.15641,1038.7604,776.975,1024.12424,773.04457Z" fill="url(#f3bd79fd-ae84-42d5-a035-9bc4a294baaa)"/><path id="ed261f8a-15b2-401d-98f8-0d2a788df7b7" data-name="Path 92748" d="M807.70588,807.47059c.74591,1.475,1.48291,2.99846,2.212,4.6436h0C809.18879,810.46905,808.4508,808.94558,807.70588,807.47059Z" fill="#fff"/><path id="efd1438c-8ea6-4d24-b790-b17006da15e9" data-name="Path 92750" d="M848.01444,786.08393a30.87541,30.87541,0,0,1-1.06939,4.18978A29.39225,29.39225,0,0,0,848.01444,786.08393Z" fill="#fff"/><path id="a83df264-2d7d-472c-b529-5858f22b52fd" data-name="Path 92751" d="M848.35574,783.76621h0v.21875A.95075.95075,0,0,1,848.35574,783.76621Z" fill="#fff"/><path id="f9f44198-4826-44f7-93b2-1608287a8237" data-name="Path 92752" d="M838.53333,807.48679c-.737,1.46683-1.475,2.98226-2.20408,4.6274C837.05834,810.47709,837.7716,808.95362,838.53333,807.48679Z" fill="#fff"/><path id="a2fa842c-fb1c-4525-8b7f-f3f3dba9191b" data-name="Path 92753" d="M798.60465,899.62166c.23545.40523.4699.81045.70535,1.19936v-5.90789C799.07455,896.46108,798.8401,898.05763,798.60465,899.62166Z"/><path id="e7a161d4-df27-4948-bed5-af3bc8c2890b" data-name="Path 92754" d="M793.43476,795.96285A18.81948,18.81948,0,0,1,797.86765,783.75h0c.43725-.61594.91606-1.23176,1.40179-1.8477q1.6204-2.00159,3.44462-3.96286c1.23163-1.31288,2.49591-2.60956,3.81658-3.86568,2.52856-2.43124,5.09767-4.73276,7.50455-6.88033,2.90943-2.60139,5.50229-4.95152,7.33441-6.93709a18.54814,18.54814,0,0,0,1.71044-2.14757,17.58483,17.58483,0,0,0,1.72626,2.16377c1.82322,1.98545,4.41707,4.33569,7.29385,6.92089,2.43161,2.14757,4.98391,4.45725,7.51247,6.88033q1.978,1.9044,3.82548,3.88187t3.44462,3.96287c.48672.61594.96453,1.23176,1.4097,1.8477h0a18.79433,18.79433,0,0,1,4.425,12.19664c-1.53929,16.31346,49.2891-43.3,49.16742-66.907a14.1801,14.1801,0,0,0-.0732-1.67754c-.4056-3.33889-10.13007-8.38773-19.11753-23.58282-.71326-1.20753-1.69362-1.27232-3.15279-.38087-5.67244,3.46044-19.08488,22.10783-56.49292,50.79624C785.6077,725.49,772.21207,706.8346,766.53864,703.40655c-1.45026-.87525-2.43161-.81045-3.14388.39707-8.97955,15.19509-18.71193,20.26013-19.11753,23.58282-.04056.38086,0,.81045-.04847,1.20752C743.473,751.84439,794.99878,812.3897,793.43476,795.96285Z" fill="#573f99"/><path id="b3a36532-02dc-40df-aa3e-34359adc3b39" data-name="Path 92755" d="M802.908,947.90566a63.7719,63.7719,0,0,0,17.58615-15.21945c-2.19617-2.79591-4.425-5.79437-6.69435-9.03607-2.59286-3.71159-5.22727-7.69882-7.87751-11.913-1.05357-1.67755-2.115-3.37945-3.17653-5.12179-1.15051-1.88826-2.29311-3.817-3.44462-5.77817-.23544-.39707-.4699-.81046-.70534-1.19936h0a1011.9892,1011.9892,0,0,1-72.6852-162.25936h0c-2.24464-5.762-96.79455,32.41621-102.32948,34.896h-.05639c-.04848,0-.06529.09719-.10486.13775-4.37651,3.84948,30.98969,89.83347,36.209,118.65148a150.691,150.691,0,0,1,1.937,21.39469,308.51475,308.51475,0,0,0,139.20332,45.38275C801.31128,951.96585,802.02454,948.35145,802.908,947.90566Z" fill="#573f99"/><path id="f5f8dd43-5b87-4f61-a629-f4d9cecabf18" data-name="Path 92756" d="M1020.81812,772.46919a1.16051,1.16051,0,0,0-.41352-.81046h0c-5.40533-2.43124-100.166-40.78773-102.17615-34.90421h0a962.55251,962.55251,0,0,1-71.316,157.73731q-1.69016,2.86873-3.37933,5.67281c-2.43161,4.052-4.91961,7.87714-7.367,11.5645q-2.36978,3.574-4.70889,6.88849-3.318,4.69227-6.58059,8.801c-1.15051,1.45867-2.302,2.87691-3.44462,4.21414l-.91606,1.04541a63.772,63.772,0,0,1-17.58615,15.21946c-.88341.44566-1.62041,4.052-2.16352,9.95991,7.96655.61594,15.98157,1.02117,24.10936,1.02117A308.91213,308.91213,0,0,0,982.313,915.92721a163.08415,163.08415,0,0,1,2.0181-24.9281C989.34171,863.16975,1022.60077,781.31877,1020.81812,772.46919Z" fill="#573f99"/><path id="a7f32de0-e231-40a2-a40a-a6428e0edc0a" data-name="Path 92757" d="M825.61552,703.77926c24.31216.81045,32.45677-4.4491,50.80465-19.9035l4.514-3.817c22.78869-19.34432,11.30532-59.71878,25.12237-57.19035,13.5826,2.47984,29.01215-34.32882,19.27185-43.60788-4.73264-.45382-8.63034,4.052-12.26984,10.15443-4.052,6.87229-2.49591,17.48858-6.56476,17.23731a151.87722,151.87722,0,0,1-3.17652-54.50784c-38.13812,11.19167-77.41784,17.01856-109.194-6.32931a36.82441,36.82441,0,0,0-22.69175-10.9c-11.39434.18635-15.96474,6.95329-14.36807,17.89369.81021,5.48646,1.199,12.89357,1.51555,16.1433a46.69621,46.69621,0,0,1-8.59868,28.07248c-1.70154,1.7505-5.84259,9.01986-8.32268,9.62764-2.03393.50242-.648-11.34562-7.44718-21.6378-5.36478-8.10406-7.84487-6.305-7.84487-6.305-10.86706,8.39577,4.94336,46.67126,18.77723,44.15086s2.51273,37.36773,24.79,56.84189c.12168.10535.21863.23507.34822.34847C791.95976,698.47915,799.35056,704.67874,825.61552,703.77926Z" fill="#fcd4b5"/><path id="b5db5eca-efb3-4021-9369-9db504a85693" data-name="Path 92758" d="M734.2174,585.01426c6.79922,10.25162,5.41326,22.13219,7.44718,21.6378,2.48009-.60778,6.62115-7.87714,8.32268-9.62764A46.71076,46.71076,0,0,0,758.586,568.952c-.31558-3.24157-.71326-10.66489-1.51555-16.14331-1.62042-10.94052,2.97372-17.70733,14.36807-17.89369a36.82444,36.82444,0,0,1,22.69174,10.9c31.77615,23.32351,71.05588,17.521,109.194,6.32932a151.8774,151.8774,0,0,0,3.17653,54.50783c4.052.25128,2.48008-10.357,6.56475-17.23731,3.63852-6.12663,7.53721-10.60825,12.26985-10.15442a7.33982,7.33982,0,0,1,1.77474.35663,117.24366,117.24366,0,0,0,1.35331-87.40223c-11.20836-24.142-29.09327-35.45523-46.81693-55.57761,1.62042,5.45406-5.74564,13.61475-12.70709,14.25505a127.41434,127.41434,0,0,1-21.27314-3.29833c-29.33663-3.54144-46.07993-4.86248-70.08343,3.54144A89.55294,89.55294,0,0,0,744.25844,470.585,92.08819,92.08819,0,0,0,720.343,519.75225a121.62142,121.62142,0,0,0-.8102,29.43395,114.97834,114.97834,0,0,0,6.87241,29.48255S728.85262,576.92641,734.2174,585.01426Z" fill="#554c44"/></g></g></svg>