<svg xmlns="http://www.w3.org/2000/svg" xmlns:xlink="http://www.w3.org/1999/xlink" viewBox="0 0 2073.21391 1328.34411"><defs><style>.ba6d6e3f-0942-4f6d-b91f-bf166a8c60ce,.f47b878f-c0d9-4528-b9f2-85b779815de8{fill:#fff;}.ba6d6e3f-0942-4f6d-b91f-bf166a8c60ce{opacity:0.4;}.b3977e81-e7a2-434b-b7a2-e62f3f4344e5{fill:#bdd0fb;}.f628b3ee-de54-487f-a7f1-897b1daaf3ee{fill:#91b3fa;}.aac855ce-79a8-4c64-bcdf-c3bfe97addb6{fill:url(#a51e2551-1223-47f7-9547-ba832846114e);}.a7c446db-146b-42d8-afa7-d4c2f920af69{fill:url(#f20b8cce-25c3-4802-a834-47f7a6565979);}.e4b22541-1942-4222-a8e0-0337cec0e2c6{fill:url(#a2b8c25b-b42b-4663-9e48-476278d589c8);}.ae34742b-e036-47bb-b3de-10db4a69ab82{fill:url(#b7109c69-8cb2-44ff-a73d-0abfe16d1198);}.f008f767-74f4-48c7-8fbf-bbb769b3617c{fill:url(#f9b21314-8612-435c-9401-156eb4e6dee5);}.aefacc93-9c0c-41e5-af0e-e0f852b58ca4{fill:url(#ae96cb93-681d-4235-b6eb-579509f9f886);}.f03b527a-7634-423a-bf23-a7610bd9eb56{fill:url(#b7d41e98-c18d-4e27-835b-6650b25cfe61);}.bb5485c2-7a09-476d-9db6-464e41fcc9b4{fill:url(#ff57a936-f03e-4146-a6cf-8dc47472ebed);}.f981c4a8-47ce-4b47-9448-a7a123161e99{fill:url(#bb20d512-67fc-4e36-8077-bee243b20c3c);}.ec2bb98c-8928-456e-89a2-226d08a27b95{fill:url(#b6238f53-6ae2-42ac-9f3d-3b979a6bfc7e);}.e0e6ab42-eec4-4e47-9806-2062e5fad8f5{fill:url(#b80d1531-8eca-4a88-a985-fe01387ec211);}.ee30e3e7-1366-4c41-ad41-f568c838f891{fill:url(#f594c415-7de5-4af3-a78c-4f402d96c033);}.fcb1a563-1e95-4cdc-91a8-08384583318e{fill:url(#e2d4619b-34b0-41b2-8de5-ff43e1b77572);}.a07751b4-6fa7-437d-ae0f-dc8f8d8f7bde{fill:url(#a9ff00ab-9a49-4167-b19f-13c27ce7bff8);}.b1a476b3-0c3d-4426-9af0-f3434502f909{fill:url(#a90e2d7b-1cab-4254-9a6a-2fc6ff3ee0ad);}.bd4bd1ab-71cf-42df-9250-8b66549f052c{fill:url(#bea53ee0-01fd-4e21-90e5-2dad87d2c321);}.f7b0c46c-287c-41d2-a6c8-49da26922fe3{fill:url(#aa81a782-cdd2-49c7-8fa7-4314b20026a6);}.a3388faf-b839-4cc5-933e-97871c247fba{fill:url(#b5764df8-b201-41aa-bccd-4a0b86eb594e);}.ec34a3b1-d347-45de-8ea7-069b67b381dc{fill:url(#ad3ee6ba-8c57-46af-8f2a-50cf5d2fd2b2);}.ad77f605-9c0c-4ef0-892a-80bb4883d7a1{fill:url(#b4056035-cfba-4bff-926d-4edb2f18b1a3);}.e486d071-e4d8-4aac-927e-b337a83f0cff{fill:#7d97f4;}.ea739a88-c861-4091-acd0-505338aa9884{fill:url(#e24d1837-fbff-470f-9cd9-e76dcbdb8bea);}.e3eadaf3-31d1-462b-87db-44ff9a831cec{fill:url(#f64c7933-4ae6-4cdf-8185-039cabddaad7);}.f209081e-563e-4631-ab9b-ecb5eb5ee6b7{fill:url(#adb686e1-3c57-4a95-8558-04be40bf85c2);}.bceb0669-ffa0-496d-8bbb-72aa1377d343{fill:url(#ff30e6ca-4c93-4fd9-9049-0154872a089d);}.ecfceec7-39ed-4e5c-8f45-3ed6e3636931{fill:url(#a861342d-0dd5-48eb-a1e6-dcc38bd5d137);}.b8fce031-8e68-4654-aaad-86320c185f9e{fill:url(#be06704e-8e10-4567-bed0-14b9ec40e81a);}.af1bf10f-8772-4bea-9ed6-3fe79573d4dc{fill:url(#a96d76af-31a0-4a9b-aed0-e7364e0abdb9);}.ef664095-eb13-4ea5-9b23-224f093d4a01{fill:url(#a1003dda-3ea3-4477-a231-3f9d12269181);}.e9606825-1fca-4ace-bf95-2e716a2fe132{fill:url(#ff2b2292-fb94-45f5-a3d8-7d6522b5df29);}.b15e5c07-8289-4122-bcaf-2b655c38af23{fill:url(#e6d63976-ef78-4c95-8893-9cbf82a76e2d);}.bd4910f4-e3b2-4ad6-80e3-86c0ca9f38ab{fill:url(#a3519d91-4ce1-44ae-a74a-67375783c8db);}.bc578905-e6ed-47f2-905a-83c9ca48a1ed{fill:url(#bd0c9097-490c-403e-970c-0238c66104ea);}.e553f206-1e3a-4040-95c2-63824454e06d{fill:url(#faa879a9-2d02-4652-a388-e24bd0d5310b);}.fcaaf11d-e5bc-4ee9-a3dc-c2d473ce0fee{fill:url(#e415f178-ce29-42d5-96c3-702eb1146e26);}.be8f6290-6d81-4e1c-91a1-178f30a9ea4f{fill:url(#b3821635-35b3-4d2f-be95-9ed5f47c583b);}.b99eefeb-6b96-405b-9a63-ae54a4ee60ef{fill:url(#fe095a89-99fa-4eb9-af12-d5c905ad31ee);}.ac19b623-47c9-479c-a139-2e1d5e03958d{fill:url(#fe64b7b0-0b51-4c95-8ef8-9a79682bdfef);}.e89836f6-7e05-4166-9c28-e4e1f03daad0{fill:url(#aa2b6c51-384b-4377-9d58-0812a1d71f16);}.e9d41ddd-b945-4b90-8814-751bdfb831c3{fill:url(#f66847c4-775f-469e-99b9-5ca837d003bd);}.b961c65f-66eb-4aa3-bc51-5c76f44b9e2d{fill:url(#b23f6f8f-4ad1-4590-9ebd-fddd5626bba4);}.e0bc107e-fbcb-45da-92b1-4143b6c571b1{fill:url(#b4efd33b-e789-4fd2-a83d-9bc3424554f3);}.fece444a-19f0-4859-b10a-6f24f62863c9{fill:url(#f29f77d7-abed-4082-a66a-88a0448c8f2e);}.f9a9a96d-3b5c-4cd1-830d-8ae803ef2357{fill:url(#bc4da19e-f94e-4ab8-9b42-11c4675d648f);}.f4c77019-6f32-4d46-aa56-896bf02f8a37{fill:url(#f36fd2c9-62d5-4940-98a0-3052002273e7);}.f0a0fd37-380a-4dad-81ba-b393aba0dc3b{fill:url(#ad5cb105-9eaa-4c42-b8fa-14c603b46e69);}.ffd60d98-90f7-40c0-bf0b-b7dea0a0e380{fill:url(#ac6ca4ff-2217-4dea-8160-92b194bcc494);}.bc961907-4328-4e47-bbf5-6671de69bc05{fill:url(#a14aa088-51ea-4f37-a8f4-5433c65629bb);}.b183aaac-2ff3-4704-a6f0-153637444a15{fill:url(#ffcb0300-9b94-4f14-b985-2cd06cc8f0e2);}.a8b28841-2249-4bee-8eb0-0ac5e0b8c6dc{fill:url(#b54960c2-e4ba-4a22-9505-a8a52eb8e349);}.a27755fb-c409-4159-9005-a81b07791363{fill:url(#b19b94b1-0482-4383-98fa-85bb46bb96bb);}.b9039d7d-2b42-43e1-b6ad-a70fdbd93d65{fill:url(#a9b0fdab-d130-4c1c-a886-181d347ce30b);}.b42ee89f-83cc-4461-9ee0-d228f4bf8a33{fill:url(#bfa0bace-256a-4679-8d54-4904c7684868);}.a4db8324-633c-4323-b878-59794477faa6{fill:url(#e029c49f-1239-4292-ba74-0f2fac8961a8);}.b8864705-5683-410b-8e40-8f07234bc9ca{fill:url(#ab1cb034-089b-48a5-8dec-640054375c1f);}.ae15b550-0700-4dc8-bc74-e08da10bbf3d{fill:url(#ee55d673-085a-4550-a380-2e424b6e1d48);}.b3a5aba1-f508-4ddd-a79b-e4ba01570071{fill:url(#a202d08c-ad9a-4ac9-95e8-8686a07f0f20);}.f886327d-da20-427e-8f49-7257a04d7441{fill:url(#eec3b2d7-5615-41d2-a98c-a1e470d5be54);}.f898ba36-7b4e-4271-832a-c7e65226f0d1{fill:url(#e0005adf-993b-444f-9878-116e874adc7b);}.a3a58936-427a-4b52-8027-5bbbc675285d{fill:url(#bebe1272-5d1e-4053-b14e-144a542a09eb);}.b584d481-de51-4b03-b827-a81acad964ad{fill:url(#abe76aea-ebed-496f-82fd-8c7e640fb3e9);}.bc79ab61-2e22-4e6c-9de1-ddd34ca7e18a{fill:url(#b5c257d1-640f-41b6-9263-6ef10423720a);}.a28725fe-b08c-4bc0-af36-1e5db8919ff8{fill:url(#ae7ba83b-7dd0-4df1-865b-8dd169fb1fc6);}.f6388b81-819a-42cd-ab9d-6b56d54e7ffa{fill:url(#beba7046-9fb3-43b2-ada1-2515e2c7d90f);}.f415f424-1f96-4c49-b689-892c2ff9c65d{fill:url(#f0e72e09-28f5-4f33-8ae7-6594bca71322);}.f63fec53-a8a0-447a-bb77-256fb70ea56e{fill:url(#b7be4199-ccc3-42ab-9ff8-03f615e2f483);}.bcccaf60-0d85-468a-9ec3-c0e9f7d00c82{fill:url(#adf3af79-6b42-4547-beb6-aa16b12858f8);}.b0ccc30f-2e2f-48d0-8866-b04cdbb97310{fill:url(#edf5727d-1933-4d45-989c-f269220561f3);}.a462903a-303f-4752-ad6c-51de9e2308b2{fill:url(#ba0fcd46-a26c-4c27-836f-7336b8f5f0a2);}.a1fd15e0-9c3d-4f28-a628-a8ddc23ec3f4{fill:url(#f9b457a9-709c-4269-9643-9423b858ce4e);}.b201f771-62b1-40a1-ad23-e674e6933ff8{fill:url(#af42f804-6406-4567-a2b7-7db0500dd926);}.e18a8d4d-6a93-4e8a-9263-1c8af1e79003{fill:url(#be966bec-1699-4b46-a52d-b35ccfa202ed);}.a52edae7-89fe-44fd-97c0-4a4a3f08b212{fill:url(#a5d6d015-45a5-4f28-94a6-4b2c6af76cda);}.fa5d38fc-8add-4718-9c98-17cb2107636a{fill:url(#a912c24c-d684-4271-ba66-bce1048feee2);}.e5da38a0-9db4-41ec-a9db-2d49ab43b910{fill:url(#a73fa89a-bdc8-4ac9-95c3-23990c7bb5e2);}.e5bec9ef-0fc0-4819-b07b-c1495f3dde0c{fill:url(#bfe7d00c-ab20-4314-b971-f741093ed9ab);}.b4ce659e-c67e-4e11-8016-ea04f9253f33{fill:url(#fcf8194a-9df7-4059-bc13-f553c551bdb2);}</style><linearGradient id="a51e2551-1223-47f7-9547-ba832846114e" x1="895.80504" y1="794.48576" x2="1168.48658" y2="923.91549" gradientTransform="matrix(-0.9999, -0.015, -0.015, 0.9999, 1569.1707, 7.6489)" gradientUnits="userSpaceOnUse"><stop offset="0" stop-color="#09005d"/><stop offset="1" stop-color="#1a0f91"/></linearGradient><linearGradient id="f20b8cce-25c3-4802-a834-47f7a6565979" x1="1035.81119" y1="822.34939" x2="933.19157" y2="948.50579" gradientTransform="matrix(-1, 0, 0, 1, 1506.2441, 0)" gradientUnits="userSpaceOnUse"><stop offset="0" stop-color="#ff928e"/><stop offset="1" stop-color="#feb3b1"/></linearGradient><linearGradient id="a2b8c25b-b42b-4663-9e48-476278d589c8" x1="514.24828" y1="373.74863" x2="434.24836" y2="613.74906" gradientTransform="matrix(1, 0, 0, 1, 0, 0)" xlink:href="#f20b8cce-25c3-4802-a834-47f7a6565979"/><linearGradient id="b7109c69-8cb2-44ff-a73d-0abfe16d1198" x1="6055.27089" y1="1476.99631" x2="6051.85612" y2="1897.02186" gradientTransform="translate(-5696.1592 630.3192) rotate(-7.16339)" gradientUnits="userSpaceOnUse"><stop offset="0" stop-color="#fe7062"/><stop offset="1" stop-color="#ff928e"/></linearGradient><linearGradient id="f9b21314-8612-435c-9401-156eb4e6dee5" x1="444.2247" y1="811.62946" x2="435.22464" y2="927.6295" gradientTransform="matrix(1, 0, 0, 1, 0, 0)" xlink:href="#f20b8cce-25c3-4802-a834-47f7a6565979"/><linearGradient id="ae96cb93-681d-4235-b6eb-579509f9f886" x1="-6487.82772" y1="3601.15238" x2="-6535.82783" y2="3532.15224" gradientTransform="matrix(-0.9602, 0.2794, 0.2794, 0.9602, -7381.8057, 929.3496)" xlink:href="#f20b8cce-25c3-4802-a834-47f7a6565979"/><linearGradient id="b7d41e98-c18d-4e27-835b-6650b25cfe61" x1="899.0483" y1="695.52008" x2="1171.73194" y2="824.95081" gradientTransform="matrix(-1, 0, 0, 1, 1506.2441, 0)" xlink:href="#a51e2551-1223-47f7-9547-ba832846114e"/><linearGradient id="ff57a936-f03e-4146-a6cf-8dc47472ebed" x1="-6467.54379" y1="3587.04699" x2="-6515.54384" y2="3518.04694" gradientTransform="matrix(-0.9602, 0.2794, 0.2794, 0.9602, -7381.8057, 929.3496)" xlink:href="#f20b8cce-25c3-4802-a834-47f7a6565979"/><linearGradient id="bb20d512-67fc-4e36-8077-bee243b20c3c" x1="522.99652" y1="1264.03841" x2="321.99725" y2="1350.03819" gradientTransform="matrix(1, 0, 0, 1, 0, 0)" xlink:href="#f20b8cce-25c3-4802-a834-47f7a6565979"/><linearGradient id="b6238f53-6ae2-42ac-9f3d-3b979a6bfc7e" x1="5250.85482" y1="3254.67697" x2="5290.85474" y2="3147.67695" gradientTransform="translate(-5553.889 51.0736) rotate(-0.54429)" xlink:href="#a51e2551-1223-47f7-9547-ba832846114e"/><linearGradient id="b80d1531-8eca-4a88-a985-fe01387ec211" x1="570.57215" y1="1227.07211" x2="517.57205" y2="1259.07221" gradientTransform="matrix(1, 0, 0, 1, 0, 0)" xlink:href="#f20b8cce-25c3-4802-a834-47f7a6565979"/><linearGradient id="f594c415-7de5-4af3-a78c-4f402d96c033" x1="5291.51515" y1="3269.88018" x2="5331.5151" y2="3162.88007" gradientTransform="translate(-5553.889 51.0736) rotate(-0.54429)" xlink:href="#a51e2551-1223-47f7-9547-ba832846114e"/><linearGradient id="e2d4619b-34b0-41b2-8de5-ff43e1b77572" x1="475.73956" y1="1028.18811" x2="414.73941" y2="1220.18842" gradientTransform="matrix(1, 0, 0, 1, 0, 0)" xlink:href="#a51e2551-1223-47f7-9547-ba832846114e"/><linearGradient id="a9ff00ab-9a49-4167-b19f-13c27ce7bff8" x1="934.58815" y1="865.07466" x2="938.43453" y2="956.42733" gradientTransform="matrix(-1, 0, 0, 1, 1506.2441, 0)" xlink:href="#a51e2551-1223-47f7-9547-ba832846114e"/><linearGradient id="a90e2d7b-1cab-4254-9a6a-2fc6ff3ee0ad" x1="658.53635" y1="916.56112" x2="582.53649" y2="855.56129" gradientTransform="matrix(1, 0, 0, 1, 0, 0)" xlink:href="#a51e2551-1223-47f7-9547-ba832846114e"/><linearGradient id="bea53ee0-01fd-4e21-90e5-2dad87d2c321" x1="926.03787" y1="837.06761" x2="895.07948" y2="875.1266" xlink:href="#f20b8cce-25c3-4802-a834-47f7a6565979"/><linearGradient id="aa81a782-cdd2-49c7-8fa7-4314b20026a6" x1="1461.63995" y1="953.19677" x2="2352.73087" y2="-252.92674" gradientUnits="userSpaceOnUse"><stop offset="0" stop-color="#4042e2"/><stop offset="1" stop-color="#4f52ff"/></linearGradient><linearGradient id="b5764df8-b201-41aa-bccd-4a0b86eb594e" x1="1541.14583" y1="100.44392" x2="1457.13776" y2="520.4855" xlink:href="#aa81a782-cdd2-49c7-8fa7-4314b20026a6"/><linearGradient id="ad3ee6ba-8c57-46af-8f2a-50cf5d2fd2b2" x1="948.88732" y1="586.63881" x2="1839.97733" y2="-619.48345" xlink:href="#aa81a782-cdd2-49c7-8fa7-4314b20026a6"/><linearGradient id="b4056035-cfba-4bff-926d-4edb2f18b1a3" x1="1073.77154" y1="6.96656" x2="989.76342" y2="427.00839" xlink:href="#aa81a782-cdd2-49c7-8fa7-4314b20026a6"/><linearGradient id="e24d1837-fbff-470f-9cd9-e76dcbdb8bea" x1="1540.35714" y1="220.831" x2="1552.64374" y2="220.831" gradientUnits="userSpaceOnUse"><stop offset="0" stop-color="#dae3fe"/><stop offset="1" stop-color="#e9effd"/></linearGradient><linearGradient id="f64c7933-4ae6-4cdf-8185-039cabddaad7" x1="1740.4776" y1="339.6836" x2="1767.0985" y2="339.6836" xlink:href="#e24d1837-fbff-470f-9cd9-e76dcbdb8bea"/><linearGradient id="adb686e1-3c57-4a95-8558-04be40bf85c2" x1="573.81224" y1="438.91795" x2="588.14654" y2="438.91795" xlink:href="#e24d1837-fbff-470f-9cd9-e76dcbdb8bea"/><linearGradient id="ff30e6ca-4c93-4fd9-9049-0154872a089d" x1="775.9804" y1="556.74665" x2="806.6968" y2="556.74665" xlink:href="#e24d1837-fbff-470f-9cd9-e76dcbdb8bea"/><linearGradient id="a861342d-0dd5-48eb-a1e6-dcc38bd5d137" x1="858.45154" y1="319.1237" x2="868.69034" y2="319.1237" xlink:href="#e24d1837-fbff-470f-9cd9-e76dcbdb8bea"/><linearGradient id="be06704e-8e10-4567-bed0-14b9ec40e81a" x1="1054.4764" y1="440.02844" x2="1074.954" y2="440.02844" xlink:href="#e24d1837-fbff-470f-9cd9-e76dcbdb8bea"/><linearGradient id="a96d76af-31a0-4a9b-aed0-e7364e0abdb9" x1="111.01734" y1="373.38945" x2="129.44724" y2="373.38945" xlink:href="#e24d1837-fbff-470f-9cd9-e76dcbdb8bea"/><linearGradient id="a1003dda-3ea3-4477-a231-3f9d12269181" x1="319.3288" y1="488.1465" x2="366.4274" y2="488.1465" xlink:href="#e24d1837-fbff-470f-9cd9-e76dcbdb8bea"/><linearGradient id="ff2b2292-fb94-45f5-a3d8-7d6522b5df29" x1="1816.80543" y1="348.8163" x2="1835.23533" y2="348.8163" xlink:href="#e24d1837-fbff-470f-9cd9-e76dcbdb8bea"/><linearGradient id="e6d63976-ef78-4c95-8893-9cbf82a76e2d" x1="2025.11689" y1="463.57335" x2="2072.21549" y2="463.57335" xlink:href="#e24d1837-fbff-470f-9cd9-e76dcbdb8bea"/><linearGradient id="a3519d91-4ce1-44ae-a74a-67375783c8db" x1="1409.30024" y1="386.69995" x2="1419.53904" y2="386.69995" xlink:href="#e24d1837-fbff-470f-9cd9-e76dcbdb8bea"/><linearGradient id="bd0c9097-490c-403e-970c-0238c66104ea" x1="1607.3729" y1="505.55255" x2="1631.946" y2="505.55255" xlink:href="#e24d1837-fbff-470f-9cd9-e76dcbdb8bea"/><linearGradient id="faa879a9-2d02-4652-a388-e24bd0d5310b" x1="280.98184" y1="216.7354" x2="293.26844" y2="216.7354" xlink:href="#e24d1837-fbff-470f-9cd9-e76dcbdb8bea"/><linearGradient id="e415f178-ce29-42d5-96c3-702eb1146e26" x1="481.1022" y1="335.58805" x2="507.7232" y2="335.58805" xlink:href="#e24d1837-fbff-470f-9cd9-e76dcbdb8bea"/><linearGradient id="b3821635-35b3-4d2f-be95-9ed5f47c583b" x1="467.6834" y1="694.75885" x2="686.7943" y2="694.75885" gradientTransform="matrix(1, 0, 0, 1, 0, 0)" xlink:href="#f20b8cce-25c3-4802-a834-47f7a6565979"/><linearGradient id="fe095a89-99fa-4eb9-af12-d5c905ad31ee" x1="1509.59038" y1="962.45109" x2="1425.01923" y2="1381.28114" gradientTransform="matrix(1, 0, 0, 1, 0, 0)" xlink:href="#f20b8cce-25c3-4802-a834-47f7a6565979"/><linearGradient id="fe64b7b0-0b51-4c95-8ef8-9a79682bdfef" x1="969.4892" y1="1128.7525" x2="1028.82285" y2="975.41858" gradientTransform="translate(-1.6678 -0.1373) rotate(0.52711)" xlink:href="#a51e2551-1223-47f7-9547-ba832846114e"/><linearGradient id="aa2b6c51-384b-4377-9d58-0812a1d71f16" x1="896.47167" y1="1323.03597" x2="921.80505" y2="1243.70236" gradientTransform="matrix(1, 0, 0, 1, 0, 0)" xlink:href="#a51e2551-1223-47f7-9547-ba832846114e"/><linearGradient id="f66847c4-775f-469e-99b9-5ca837d003bd" x1="967.43568" y1="1203.019" x2="990.22371" y2="1358.93756" gradientTransform="translate(-1.6678 -0.1373) rotate(0.52711)" xlink:href="#f20b8cce-25c3-4802-a834-47f7a6565979"/><linearGradient id="b23f6f8f-4ad1-4590-9ebd-fddd5626bba4" x1="801.2885" y1="1351.33762" x2="800.62183" y2="1294.00434" gradientTransform="matrix(1, 0, 0, 1, 0, 0)" xlink:href="#a51e2551-1223-47f7-9547-ba832846114e"/><linearGradient id="b4efd33b-e789-4fd2-a83d-9bc3424554f3" x1="870.64885" y1="1090.50544" x2="929.98229" y2="937.17207" gradientTransform="translate(-1.6678 -0.1373) rotate(0.52711)" xlink:href="#a51e2551-1223-47f7-9547-ba832846114e"/><linearGradient id="f29f77d7-abed-4082-a66a-88a0448c8f2e" x1="852.62206" y1="1219.80079" x2="875.41012" y2="1375.71954" gradientTransform="translate(-1.6678 -0.1373) rotate(0.52711)" xlink:href="#f20b8cce-25c3-4802-a834-47f7a6565979"/><linearGradient id="bc4da19e-f94e-4ab8-9b42-11c4675d648f" x1="1030.23232" y1="1247.54491" x2="856.24117" y2="1483.0327" gradientTransform="matrix(1, 0, 0, 1, 0, 0)" xlink:href="#a51e2551-1223-47f7-9547-ba832846114e"/><linearGradient id="f36fd2c9-62d5-4940-98a0-3052002273e7" x1="1086.67197" y1="1085.41646" x2="1056.67355" y2="1182.91151" gradientTransform="matrix(1, 0, 0, 1, 0, 0)" xlink:href="#a51e2551-1223-47f7-9547-ba832846114e"/><linearGradient id="ad5cb105-9eaa-4c42-b8fa-14c603b46e69" x1="1377.73646" y1="1248.23877" x2="1311.0699" y2="1323.57201" gradientTransform="matrix(1, 0, 0, 1, 0, 0)" xlink:href="#f20b8cce-25c3-4802-a834-47f7a6565979"/><linearGradient id="ac6ca4ff-2217-4dea-8160-92b194bcc494" x1="1516.79569" y1="1339.21675" x2="1480.79568" y2="1415.88352" gradientTransform="translate(-1.6678 -0.1373) rotate(0.52711)" xlink:href="#f20b8cce-25c3-4802-a834-47f7a6565979"/><linearGradient id="a14aa088-51ea-4f37-a8f4-5433c65629bb" x1="1357.88336" y1="1165.40799" x2="1147.19921" y2="1983.06493" gradientTransform="translate(-1.6678 -0.1373) rotate(0.52711)" xlink:href="#b7109c69-8cb2-44ff-a73d-0abfe16d1198"/><linearGradient id="ffcb0300-9b94-4f14-b985-2cd06cc8f0e2" x1="1353.46587" y1="1164.26754" x2="1142.77882" y2="1981.93575" gradientTransform="translate(-1.6678 -0.1373) rotate(0.52711)" xlink:href="#b7109c69-8cb2-44ff-a73d-0abfe16d1198"/><linearGradient id="b54960c2-e4ba-4a22-9505-a8a52eb8e349" x1="1500.25533" y1="1202.08881" x2="1289.5696" y2="2019.75188" gradientTransform="translate(-1.6678 -0.1373) rotate(0.52711)" xlink:href="#f20b8cce-25c3-4802-a834-47f7a6565979"/><linearGradient id="b19b94b1-0482-4383-98fa-85bb46bb96bb" x1="1313.52935" y1="1038.53436" x2="1324.67727" y2="1549.10948" gradientTransform="translate(-1.6678 -0.1373) rotate(0.52711)" gradientUnits="userSpaceOnUse"><stop offset="0" stop-color="#e1473d"/><stop offset="1" stop-color="#e9605a"/></linearGradient><linearGradient id="a9b0fdab-d130-4c1c-a886-181d347ce30b" x1="1285.95389" y1="1039.13876" x2="1297.10176" y2="1549.71149" xlink:href="#b19b94b1-0482-4383-98fa-85bb46bb96bb"/><linearGradient id="bfa0bace-256a-4679-8d54-4904c7684868" x1="1453.68339" y1="1309.58183" x2="1417.68346" y2="1386.24842" gradientTransform="translate(-1.6678 -0.1373) rotate(0.52711)" xlink:href="#f20b8cce-25c3-4802-a834-47f7a6565979"/><linearGradient id="e029c49f-1239-4292-ba74-0f2fac8961a8" x1="-8741.93718" y1="685.12205" x2="-8771.78897" y2="716.67355" gradientTransform="matrix(-0.9865, -0.1635, -0.2088, 1.2596, -7036.6154, -974.2239)" xlink:href="#a51e2551-1223-47f7-9547-ba832846114e"/><linearGradient id="ab1cb034-089b-48a5-8dec-640054375c1f" x1="1546.0614" y1="1303.35867" x2="1527.39469" y2="1313.35869" gradientTransform="matrix(1, 0, 0, 1, 0, 0)" xlink:href="#f20b8cce-25c3-4802-a834-47f7a6565979"/><linearGradient id="ee55d673-085a-4550-a380-2e424b6e1d48" x1="1390.84642" y1="1182.91349" x2="1370.17974" y2="1288.9133" gradientTransform="matrix(1, 0, 0, 1, 0, 0)" xlink:href="#f20b8cce-25c3-4802-a834-47f7a6565979"/><linearGradient id="a202d08c-ad9a-4ac9-95e8-8686a07f0f20" x1="1385.38197" y1="1143.66366" x2="1405.6161" y2="1259.07312" gradientTransform="matrix(1, 0, 0, 1, 0, 0)" xlink:href="#a51e2551-1223-47f7-9547-ba832846114e"/><linearGradient id="eec3b2d7-5615-41d2-a98c-a1e470d5be54" x1="1363.04894" y1="1177.49377" x2="1342.38218" y2="1283.49394" gradientTransform="matrix(1, 0, 0, 1, 0, 0)" xlink:href="#f20b8cce-25c3-4802-a834-47f7a6565979"/><linearGradient id="e0005adf-993b-444f-9878-116e874adc7b" x1="1358.64497" y1="1357.79277" x2="1348.33922" y2="1397.78899" gradientTransform="matrix(1, 0, 0, 1, 0, 0)" xlink:href="#b19b94b1-0482-4383-98fa-85bb46bb96bb"/><linearGradient id="bebe1272-5d1e-4053-b14e-144a542a09eb" x1="1768.014" y1="655.85135" x2="1987.12489" y2="655.85135" gradientTransform="matrix(1, 0, 0, 1, 0, 0)" xlink:href="#f20b8cce-25c3-4802-a834-47f7a6565979"/><linearGradient id="abe76aea-ebed-496f-82fd-8c7e640fb3e9" x1="1928.31831" y1="880.44269" x2="1697.65158" y2="1165.77573" gradientTransform="matrix(1, 0, 0, 1, 0, 0)" xlink:href="#b7109c69-8cb2-44ff-a73d-0abfe16d1198"/><linearGradient id="b5c257d1-640f-41b6-9263-6ef10423720a" x1="2127.69326" y1="1474.36505" x2="2162.35997" y2="1325.69822" gradientTransform="translate(-43.1099)" xlink:href="#aa81a782-cdd2-49c7-8fa7-4314b20026a6"/><linearGradient id="ae7ba83b-7dd0-4df1-865b-8dd169fb1fc6" x1="2137.67005" y1="1310.66596" x2="2137.67005" y2="1454.00049" gradientTransform="translate(-43.1099)" xlink:href="#a51e2551-1223-47f7-9547-ba832846114e"/><linearGradient id="beba7046-9fb3-43b2-ada1-2515e2c7d90f" x1="1308.73661" y1="1356.84891" x2="1298.54791" y2="1445.7689" gradientTransform="matrix(-1, 0, 0, 1, 3394.387, 0)" xlink:href="#f20b8cce-25c3-4802-a834-47f7a6565979"/><linearGradient id="f0e72e09-28f5-4f33-8ae7-6594bca71322" x1="1436.59804" y1="1310.66716" x2="1436.59804" y2="1453.99946" gradientTransform="matrix(-1, 0, 0, 1, 3394.387, 0)" xlink:href="#a51e2551-1223-47f7-9547-ba832846114e"/><linearGradient id="b7be4199-ccc3-42ab-9ff8-03f615e2f483" x1="1957.67955" y1="1434.67974" x2="1974.34616" y2="1282.01301" xlink:href="#aa81a782-cdd2-49c7-8fa7-4314b20026a6"/><linearGradient id="adf3af79-6b42-4547-beb6-aa16b12858f8" x1="1416.06676" y1="1368.22522" x2="1406.53598" y2="1451.40336" gradientTransform="matrix(-1, 0, 0, 1, 3394.387, 0)" xlink:href="#f20b8cce-25c3-4802-a834-47f7a6565979"/><linearGradient id="edf5727d-1933-4d45-989c-f269220561f3" x1="-454.60551" y1="1365.56578" x2="-443.17199" y2="1007.32183" gradientTransform="matrix(-1, 0, 0, 1, 1582.5518, 0)" xlink:href="#a51e2551-1223-47f7-9547-ba832846114e"/><linearGradient id="ba0fcd46-a26c-4c27-836f-7336b8f5f0a2" x1="2020.82042" y1="955.22247" x2="1790.15388" y2="1240.55528" gradientTransform="matrix(1, 0, 0, 1, 0, 0)" xlink:href="#b7109c69-8cb2-44ff-a73d-0abfe16d1198"/><linearGradient id="f9b457a9-709c-4269-9643-9423b858ce4e" x1="2058.29261" y1="761.5024" x2="2053.626" y2="865.50281" gradientTransform="matrix(1, 0, 0, 1, 0, 0)" xlink:href="#f20b8cce-25c3-4802-a834-47f7a6565979"/><linearGradient id="af42f804-6406-4567-a2b7-7db0500dd926" x1="2084.64523" y1="1006.81907" x2="1853.9785" y2="1292.1521" gradientTransform="matrix(1, 0, 0, 1, 0, 0)" xlink:href="#b7109c69-8cb2-44ff-a73d-0abfe16d1198"/><linearGradient id="be966bec-1699-4b46-a52d-b35ccfa202ed" x1="2132.6426" y1="970.85226" x2="2104.64254" y2="1017.51895" gradientTransform="matrix(1, 0, 0, 1, 0, 0)" xlink:href="#f20b8cce-25c3-4802-a834-47f7a6565979"/><linearGradient id="a5d6d015-45a5-4f28-94a6-4b2c6af76cda" x1="-759.03618" y1="43.51779" x2="-748.36943" y2="148.18478" gradientTransform="matrix(-0.9571, -0.2895, -0.2895, 0.9571, 1406.8412, 292.2058)" xlink:href="#f20b8cce-25c3-4802-a834-47f7a6565979"/><linearGradient id="a912c24c-d684-4271-ba66-bce1048feee2" x1="-777.59181" y1="231.11668" x2="-686.27137" y2="231.11668" gradientTransform="matrix(-0.9571, -0.2895, -0.2895, 0.9571, 1406.8412, 292.2058)" xlink:href="#a51e2551-1223-47f7-9547-ba832846114e"/><linearGradient id="a73fa89a-bdc8-4ac9-95c3-23990c7bb5e2" x1="-792.50343" y1="46.92872" x2="-781.83674" y2="151.59516" gradientTransform="matrix(-0.9571, -0.2895, -0.2895, 0.9571, 1406.8412, 292.2058)" xlink:href="#f20b8cce-25c3-4802-a834-47f7a6565979"/><linearGradient id="bfe7d00c-ab20-4314-b971-f741093ed9ab" x1="-7091.43636" y1="112.31676" x2="-7121.28699" y2="143.86702" gradientTransform="matrix(0.9577, 0.2876, -0.3672, 1.2229, 8733.1625, 2685.145)" xlink:href="#a51e2551-1223-47f7-9547-ba832846114e"/><linearGradient id="fcf8194a-9df7-4059-bc13-f553c551bdb2" x1="1856.21589" y1="777.12907" x2="1859.57467" y2="831.70852" gradientTransform="matrix(1, 0, 0, 1, 0, 0)" xlink:href="#f20b8cce-25c3-4802-a834-47f7a6565979"/></defs><g id="ade6b59b-20b9-43d1-8e6d-f8a191948f00" data-name="Illustration"><path class="ba6d6e3f-0942-4f6d-b91f-bf166a8c60ce" d="M2211.14359,384.4389c-52.2755-104.0191-167.0583-182.2414-278.7797-158.2426-66.89389,14.3701-133.38049,62.5776-197.52039,38.3761-46.2317-17.4439-72.3258-66.9122-111.1864-97.9503-59.813-47.7732-144.7123-47.2172-217.6068-25.8125-72.8936,21.4042-139.6194,60.7664-211.6336,85.1002-122.7322,41.4717-259.7141,36.9693-379.6029-12.4769-52.6292-21.7067-101.8931-51.6638-155.4715-70.775-53.5789-19.1112-114.3457-26.5327-166.0624-2.632-51.7167,23.9005-88.8275,86.4126-70.8791,141.578,3.5789,10.9995,9.1926,21.8377,8.4587,33.4086-1.1758,18.5546-18.6603,32.144-36.3464,36.2711-17.6859,4.127-36.1176,1.4322-54.2502,1.9031-81.3716,2.1152-154.0894,78.2083-154.475,161.6459-.3202,69.1909,41.3102,129.9921,76.9004,188.7842,35.5899,58.7918,67.577,129.3356,46.3759,195.0253-12.5719,38.9528-42.064,69.4247-61.385,105.3569-50.091,93.1558-23.3153,216.4763,46.629,295.0503,69.9439,78.575,174.696,117.0218,278.0789,126.1743,103.3828,9.1531,207.065-8.0301,309.5016-25.0133,102.4366-16.9835,206.1991-33.877,309.5315-24.1456l-5.5539-3.0931a1645.63575,1645.63575,0,0,0,619.2749,35.9976c43.1722-5.7366,92.7335-18.0721,110.97989-58.5892,15.40491-34.2069,1.5733-74.3035,4.7434-111.8391,4.569-54.0917,44.1676-98.4018,87.3433-129.8516,43.1756-31.4492,92.1583-54.8551,131.057-91.7038,76.0968-72.0875,101.921-183.6655,113.2664-289.2398C2265.03029,611.439,2263.41879,488.4582,2211.14359,384.4389Z" transform="translate(-185.78606 -124.9959)"/><path class="b3977e81-e7a2-434b-b7a2-e62f3f4344e5" d="M759.6588,1436.6024h-15.112s-26.6538-43.0772-25.3276-117.9894c1.3261-74.9121-13.786-161.8993-41.3434-225.0792-27.5574-63.1801-53.3369-135.5053-45.3362-180.6813,8.0004-45.1761,57.7815-27.2522,69.3377,93.1277,11.5563,120.3797,10.033,166.723,42.6695,233.276C789.883,1331.7066,759.6588,1436.6024,759.6588,1436.6024Z" transform="translate(-185.78606 -124.9959)"/><path class="b3977e81-e7a2-434b-b7a2-e62f3f4344e5" d="M721.9161,1436.6024h17.7791s7.1115-90.5176-17.7791-126.5974c-24.8904-36.0799-59.5595-89.0253-77.3384-227.8967s-48.892-151.0896-80.894-163.2038c-32.0021-12.1146-65.7822,49.2461-19.557,91.9039s90.724,107.1657,108.0329,184.2523C669.4683,1272.1472,656.1341,1345.0409,721.9161,1436.6024Z" transform="translate(-185.78606 -124.9959)"/><path class="f628b3ee-de54-487f-a7f1-897b1daaf3ee" d="M687.2472,1436.6024h18.6679s-27.4305-55.5551-18.6679-112.0072c8.7626-56.4522,12.4453-133.8552-6.2225-180.713-18.6681-46.8576-89.7836-96.373-119.1189-63.1703-29.3353,33.2029,15.1121,48.7769,54.2256,96.9936,39.1138,48.2165,52.448,65.9954,35.558,112.2206C634.7995,1336.1515,677.4687,1423.2684,687.2472,1436.6024Z" transform="translate(-185.78606 -124.9959)"/><path class="b3977e81-e7a2-434b-b7a2-e62f3f4344e5" d="M1652.946,1427.771h15.1121s26.65374-43.0772,25.32761-117.9894c-1.32613-74.9121,13.786-161.8993,41.34339-225.0792,27.5573-63.1801,53.3369-135.5053,45.3362-180.6813-8.0004-45.1761-57.7815-27.2522-69.3376,93.1277-11.55644,120.3797-10.03311,166.723-42.6696,233.276C1622.7219,1322.8752,1652.946,1427.771,1652.946,1427.771Z" transform="translate(-185.78606 -124.9959)"/><path class="b3977e81-e7a2-434b-b7a2-e62f3f4344e5" d="M1690.6888,1427.771h-17.7791s-7.1115-90.5176,17.7791-126.5973c24.8904-36.08,59.5594-89.0254,77.3383-227.8968s48.8921-151.0896,80.8941-163.2038c32.0021-12.1146,65.78229,49.2461,19.557,91.9039-46.2252,42.6578-90.724,107.1657-108.0329,184.2523C1743.1366,1263.3158,1756.4708,1336.2095,1690.6888,1427.771Z" transform="translate(-185.78606 -124.9959)"/><path class="f628b3ee-de54-487f-a7f1-897b1daaf3ee" d="M1725.3577,1427.771h-18.66787s27.43047-55.5551,18.66787-112.0072c-8.7626-56.4522-12.4453-133.8552,6.2225-180.713,18.668-46.8576,89.7836-96.3729,119.1189-63.1703,29.3352,33.2029-15.1121,48.777-54.2256,96.9936-39.1138,48.2165-52.448,65.9954-35.558,112.2206C1777.8054,1327.3201,1735.1361,1414.437,1725.3577,1427.771Z" transform="translate(-185.78606 -124.9959)"/><path class="aac855ce-79a8-4c64-bcdf-c3bfe97addb6" d="M478.0943,773.0842s15.0715-36.9292-41.7763-29.4837c-56.8476,7.4454-43.0313,28.9075-47.5247,45.6786-4.4936,16.7714-28.3429,35.7778-94.7108,61.6546-66.368,25.8765-46.691,96.4239-16.8807,119.8392,29.8105,23.4152,46.0677,7.8518,53.0015,48.2657,6.9335,40.4138,34.5924,73.2352,69.1018,38.9763,34.5091-34.2589,73.7324-74.7702,62.7632-127.8909-10.9695-53.1211,1.4526-43.0717,22.8663-67.4413C506.3483,838.3133,460.96,814.7249,478.0943,773.0842Z" transform="translate(-185.78606 -124.9959)"/><path class="a7c446db-146b-42d8-afa7-d4c2f920af69" d="M465.4067,871.9687c9.0258-9.1553,17.8066,12.8489,20.1502,18.3633,5.9183,13.9246,12.0706,26.4226,24.562,35.9645,7.7274,5.9031,18.171,9.6884,27.9485,6.8518,35.2156-10.2161,35.379-38.5035,36.1717-59.6921-.8163-6.01,2.7884-11.9665,7.1549-13.8249a14.13176,14.13176,0,0,0,7.0107-7.4043s3.4458,7.639-.7892,11.2201a4.96482,4.96482,0,0,0-1.8682,4.1306c.4945-.0827,1.0034-.1581,1.5364-.2255,10.5858-1.3232-.0391,13.8286-.0391,13.8286s10.247,55.4623-36.6908,77.5042c-23.2347,10.9109-41.0552,8.3246-53.1647,2.9256a39.47376,39.47376,0,0,1-15.9058-10.8666,32.90565,32.90565,0,0,1-2.745-3.0391l-.0029-.1749C460.0037,923.7104,456.7516,880.7485,465.4067,871.9687Z" transform="translate(-185.78606 -124.9959)"/><path class="e4b22541-1942-4222-a8e0-0337cec0e2c6" d="M284.2678,819.4122a2.14433,2.14433,0,0,1,3.9641.4206c1.9234,6.9229,6.5782,19.0029,16.3458,23.2917a1.20331,1.20331,0,0,0,1.6886-1.1349,5.12127,5.12127,0,0,0-.892-2.7022,6.82057,6.82057,0,0,1-.3454-6.1783,2.18981,2.18981,0,0,1,4.056-.1673,12.417,12.417,0,0,0,3.3411,4.4645c3.6547,3.0272,5.4094,9.7642,2.9119,15.2909-5.2865,20.5346-13.2027,47.6926,17.6333,67.5328,30.8353,19.8404,74.2604-37.4432,74.2604-37.4432l1.9417,51.8554s-56.7616,41.0198-95.457,6.4996c-38.6958-34.5202-13.0473-84.7521-13.0473-84.7521S271.1547,844.483,284.2678,819.4122Z" transform="translate(-185.78606 -124.9959)"/><path class="ae34742b-e036-47bb-b3de-10db4a69ab82" d="M465.0162,868.4498c-9.2237-2.7653-36.081-7.8708-61.6266,15.7039a15.82042,15.82042,0,0,0-4.5582,15.7631c6.8615,25.2604,24.9647,99.8916,9.0915,132.183,0,0,27.9725,30.8363,58.4895,5.9828,0,0,13.6924-59.6754,31.6261-85.8728,12.3818-18.0867-19.7429-67.9181-27.8711-79.9567A9.52091,9.52091,0,0,0,465.0162,868.4498Z" transform="translate(-185.78606 -124.9959)"/><path class="f008f767-74f4-48c7-8fbf-bbb769b3617c" d="M439.5478,818.2636s-13.6414,38.5863-14.6676,55.6089a29.17724,29.17724,0,0,0,29.2835-4.7154s1.4905-38.5412,3.6446-45.4423Z" transform="translate(-185.78606 -124.9959)"/><path class="aefacc93-9c0c-41e5-af0e-e0f852b58ca4" d="M458.4965,765.6524s35.6803,49.9329,14.3516,64.4362c-21.3287,14.5039-46.7281-20.9812-46.7281-20.9812s-8.279-27.3298.3778-36.6011C435.1549,763.2351,458.4965,765.6524,458.4965,765.6524Z" transform="translate(-185.78606 -124.9959)"/><path class="f03b527a-7634-423a-bf23-a7610bd9eb56" d="M414.2081,765.1649c6.7527-16.2601,27.773-11.4448,27.773-11.4448s16.3916,3.884,18.6889,11.3004c1.0333,3.3362-3.568,6.5639-9.5948,9.1355a44.05179,44.05179,0,0,0-25.9376,32.1235l-.6356,3.2985S407.4558,781.4249,414.2081,765.1649Z" transform="translate(-185.78606 -124.9959)"/><path class="bb5485c2-7a09-476d-9db6-464e41fcc9b4" d="M433.0369,805.4333s-13.8879-16.0837-19.412-5.5979c-5.5238,10.4851,12.5008,18.3572,18.7401,13.2093Z" transform="translate(-185.78606 -124.9959)"/><path class="f981c4a8-47ce-4b47-9448-a7a123161e99" d="M502.038,1163.3771c-.1053,2.7092,4.6513,24.1978,7.24,35.6598a18.87734,18.87734,0,0,1-2.0318,13.5418l-89.6495,150.8847a20.58732,20.58732,0,0,0-2.3541,5.8703c-1.6427,7.0806-5.0504,24.4337-3.2713,40.2202l4.6378,9.6322-20.0574-4.5542-4.364-53.8638,5.6782-3.4623a26.99314,26.99314,0,0,0,10.9124-12.7752c8.1062-19.6911,28.2364-69.8149,33.4256-94.2425,5.8972-27.7617,36.7261-50.3107,36.7261-50.3107l-5.416-12.8049Z" transform="translate(-185.78606 -124.9959)"/><path class="ec2bb98c-8928-456e-89a2-226d08a27b95" d="M374.2607,1396.097s10.8311-17.1722,12.1054-23.8567c1.2743-6.6843,4.8223-18.4882,11.4998-14.9345,0,0,3.1468,32.4709,2.0619,45.1585-1.0849,12.6877,14.343,12.2798,14.343,12.2798a14.4104,14.4104,0,0,1,7.3658,3.7108,3.61205,3.61205,0,0,1-2.4213,6.0749,86.85337,86.85337,0,0,1-21.488-1.2168,6.574,6.574,0,0,1-5.3027-6.0647l-2.2226-37.3715-13.6629,17.252Z" transform="translate(-185.78606 -124.9959)"/><path class="e0e6ab42-eec4-4e47-9806-2062e5fad8f5" d="M448.4824,1187.4113s-3.1618,134.9655-3.5904,154.1338c-.4282,19.1685,3.0272,61.6478,22.243,74.3452l-8.3616,6.1908s-10.4497-8.8818-20.6585-25.9745c-11.4683-19.2021-14.9362-22.7103-14.9362-22.7103l3.8054-7.7932a17.13524,17.13524,0,0,0,1.3884-10.9904c-4.1465-20.098-17.9994-86.9466-21.7784-101.3426-4.4606-16.9938-4.778-39.6873,10.7407-58.6832C432.8536,1175.5908,448.4824,1187.4113,448.4824,1187.4113Z" transform="translate(-185.78606 -124.9959)"/><path class="ee30e3e7-1366-4c41-ad41-f568c838f891" d="M430.7377,1428.1635a1.17864,1.17864,0,0,1-1.1871-1.0112c-.64-4.4997-3.3012-22.5387-5.4798-27.2096-2.4957-5.3494-10.6468-27.865.0043-29.7762,0,0,26.4792,38.686,31.5617,43.9019,5.0832,5.2158,11.4982,1.8219,11.4982,1.8219a19.141,19.141,0,0,1,8.6875,6.2358,3.507,3.507,0,0,1-2.7631,5.6338l-17.8354.1702a12.54954,12.54954,0,0,1-11.7636-7.906c-3.1394-7.8415-8.5324-19.3432-14.818-24.4458l3.2662,31.273a1.18849,1.18849,0,0,1-1.1709,1.3122Z" transform="translate(-185.78606 -124.9959)"/><path class="fcb1a563-1e95-4cdc-91a8-08384583318e" d="M470.6341,1023.5305s-4.0192,12.8104,2.1552,33.9102l38.3025,133.7543a4.14192,4.14192,0,0,1-2.5901,5.0395c-11.457,4.1121-49.1201,15.7342-100.5329,12.1902a5.83885,5.83885,0,0,1-5.3222-4.5444c-3.3874-15.2483-14.946-67.2746-17.3259-77.9644-9.0679-40.7323-19.1929-84.6591,25.3497-111.2204C431.1984,1023.4881,450.3448,1028.6708,470.6341,1023.5305Z" transform="translate(-185.78606 -124.9959)"/><path class="a07751b4-6fa7-437d-ae0f-dc8f8d8f7bde" d="M548.6471,903.7289c-1.2399-2.7292-.9303-6.3059-.6507-9.1342.6481-6.5541.5946-13.0885.7009-19.6727.2752-17.0589.1245-34.161,1.4766-51.179.2919-3.673-.1009-7.357.1856-11.0145.7272-9.2831,6.1715-12.0228,15.2292-13.9596,7.6609-1.6382,16.0133-3.8936,23.929-2.2112,3.1177.6625,6.1174,2.3679,6.5071,5.6222,1.5725,13.139,1.1804,99.2369-14.6777,101.6055-5.3553.8003-10.6703,1.7378-15.9937,2.6967-3.7853.6817-8.8459,2.1187-12.658.8364A6.50268,6.50268,0,0,1,548.6471,903.7289Z" transform="translate(-185.78606 -124.9959)"/><path class="b1a476b3-0c3d-4426-9af0-f3434502f909" d="M554.9375,903.7289c-1.2398-2.7292-.9303-6.3059-.6506-9.1342.6479-6.5541.5945-13.0885.7009-19.6727.2753-17.0589.1243-34.161,1.4765-51.179.2918-3.673-.101-7.357.1855-11.0145.7274-9.2831,6.1718-12.0228,15.2294-13.9596,7.6607-1.6382,16.0133-3.8936,23.929-2.2112,3.1177.6625,6.1175,2.3679,6.507,5.6222,1.5726,13.139,1.1803,99.2369-14.6776,101.6055-5.3555.8003-10.6703,1.7378-15.9937,2.6967-3.7853.6817-8.8459,2.1187-12.6582.8364A6.50326,6.50326,0,0,1,554.9375,903.7289Z" transform="translate(-185.78606 -124.9959)"/><path class="bd4bd1ab-71cf-42df-9250-8b66549f052c" d="M600.6681,879.6214s2.8778-1.955,5.2427-13.6359c2.3652-11.681,4.7123-18.7562,0-24.1752-4.7121-5.4193-12.0163-5.6547-12.0163,0,0,5.6546,1.2244,16.0712.3766,24.1752C593.4234,874.0894,595.4257,893.2573,600.6681,879.6214Z" transform="translate(-185.78606 -124.9959)"/><path class="f628b3ee-de54-487f-a7f1-897b1daaf3ee" d="M419.5343,761.2141a29.411,29.411,0,0,0-14.7258,7.7772,21.20534,21.20534,0,0,0-4.5188,7.2194l-.6688,2.0496-.3832,2.1186c-.2709,1.4275-.4011,2.7455-.6309,4.1179a64.39354,64.39354,0,0,1-13.8128,29.5806,61.01176,61.01176,0,0,1-12.0357,11.199c-4.4754,3.2166-9.4648,5.5775-14.499,7.985q-7.54095,3.5742-15.304,6.659a148.302,148.302,0,0,1-15.7753,5.4872c10.9377-2.323,21.4296-6.3938,31.6789-10.8264a83.4861,83.4861,0,0,0,14.8841-7.9004,62.52688,62.52688,0,0,0,12.5014-11.4024,64.40919,64.40919,0,0,0,13.7872-30.5525c.1901-1.3842.2935-2.8504.5083-4.1692l.2973-2.0083.5714-1.9447a20.41469,20.41469,0,0,1,4.0725-6.9866A30.00307,30.00307,0,0,1,419.5343,761.2141Z" transform="translate(-185.78606 -124.9959)"/><path class="f628b3ee-de54-487f-a7f1-897b1daaf3ee" d="M275.2093,878.2361a71.65256,71.65256,0,0,0-9.8065,22.0751,65.07962,65.07962,0,0,0-1.6444,24.2488,57.22346,57.22346,0,0,0,8.5083,22.7652c1.1779,1.6606,2.2728,3.376,3.5999,4.9177.6461.7823,1.2568,1.594,1.9307,2.3507l2.0715,2.2226c1.3501,1.5113,2.9469,2.7749,4.4029,4.1674,1.517,1.3298,3.138,2.5392,4.7133,3.7863a81.849,81.849,0,0,1-15.4882-18.2122,64.96223,64.96223,0,0,1-5.0973-10.7305,59.00018,59.00018,0,0,1-2.7756-11.5211,66.78454,66.78454,0,0,1,1.1824-23.658,81.02119,81.02119,0,0,1,3.4192-11.4698A77.75074,77.75074,0,0,1,275.2093,878.2361Z" transform="translate(-185.78606 -124.9959)"/><path class="f7b0c46c-287c-41d2-a6c8-49da26922fe3" d="M1691.888,937.4833q-.05007.6606-.05709,1.3277c-.07048,7.2014,4.47617,11.59,7.71205,17.4769,2.3582,4.2903,4.67791,8.6092,6.76622,13.0387a100.22833,100.22833,0,0,1,8.06005,24.2738c3.551,18.8956,3.1218,39.8303-7.35619,56.5427-6.93644,11.0636-17.79761,21.9784-28.43041,29.5322a8.40007,8.40007,0,0,0-2.068,11.6107c15.46061,22.4228,56.2726,95.9994-16.8122,164.6196a8.39079,8.39079,0,0,0,.5325,12.6965c20.7643,16.4432,69.1325,66.8743,2.3549,142.1501a51.66982,51.66982,0,0,1-38.6413,17.3184H1101.9323a51.60233,51.60233,0,0,1-51.6037-49.4478l-21.952-525.7608a118.54433,118.54433,0,0,1,42.143-95.6599c69.0506-57.9929,196.3806-171.6995,220.6261-240.6885,33.6039-95.631,109.3507-226.4185,168.7973-123.0475,56.8869,98.9277,38.7642,246.1837-33.1124,313.0231a5.13635,5.13635,0,0,0-1.2286,5.5239,5.22591,5.22591,0,0,0,4.587,3.4353h144.5517a265.8064,265.8064,0,0,1,36.9007,3.5527,29.85886,29.85886,0,0,0,4.7099.5429h.0614c45.3785,8.191,112.2789,30.4865,117.8079,90.5271.3481,7.2903.2822,14.6901.2822,21.6938,0,.7575-.1685,1.6667-.1685,2.4651v.1028c-2.0478,33.2924-17.8476,58.4217-35.45706,85.4905C1695.446,925.0978,1692.37452,931.069,1691.888,937.4833Z" transform="translate(-185.78606 -124.9959)"/><path class="a3388faf-b839-4cc5-933e-97871c247fba" d="M1610.4203,975.8459q-.0414.5928-.0471,1.1908c-.0581,6.458,3.6919,10.3936,6.3606,15.6727,1.9452,3.8476,3.8584,7.7205,5.5808,11.693a95.4341,95.4341,0,0,1,6.6476,21.7681c2.9289,16.9451,2.5749,35.719-6.0671,50.7064a96.28061,96.28061,0,0,1-23.4488,26.4837,7.96088,7.96088,0,0,0-1.7057,10.4121c12.7516,20.1084,46.4123,86.0902-13.8663,147.6272a7.87974,7.87974,0,0,0-2.1788,5.8032,7.72616,7.72616,0,0,0,2.6179,5.5828c17.126,14.7457,57.0192,59.9663,1.9425,127.4721a41.19323,41.19323,0,0,1-31.8706,15.526H1123.8374c-22.8344,0-41.6157-19.5296-42.5613-44.3388l-18.1058-471.4881c-1.2667-32.8717,11.5863-64.629,34.7588-85.7843,56.9514-52.0067,161.9704-153.9757,181.9677-215.8436,27.7156-85.7596,90.1901-203.0468,139.2203-110.3459,46.919,88.7162,19.1331,183.9989-40.1491,243.939-1.2159,1.2303-24.5291,49.1005,11.8252,41.8026,1.7519-.3516,2.1113,3.1565,3.7835,3.1565h119.2229a224.33777,224.33777,0,0,1,30.4351,3.3972,23.00917,23.00917,0,0,0,3.8846.6983h.0506c37.4272,6.1433,92.6053,27.0526,97.1654,80.8957.2871,6.5377-.3655,13.0303-.3655,19.311,0,.6793-.7372,1.3512-.7372,2.0671v.0923c-2.0477,29.8558-14.122,52.3913-28.646,76.6659A35.716,35.716,0,0,0,1610.4203,975.8459Z" transform="translate(-185.78606 -124.9959)"/><path class="ec34a3b1-d347-45de-8ea7-069b67b381dc" d="M553.09564,641.6466h221.6365a28.4297,28.4297,0,0,1,28.4297,28.4297V1274.645a28.4297,28.4297,0,0,1-28.4297,28.4297H553.09564a28.4298,28.4298,0,0,1-28.4298-28.4298V670.0764A28.4298,28.4298,0,0,1,553.09564,641.6466Z"/><path class="ad77f605-9c0c-4ef0-892a-80bb4883d7a1" d="M962.327,863.6579c0-13.9455-9.6117-25.3436-22.4394-25.3436H759.0392c-12.8278,0-24.0141,11.3981-24.0141,25.3436v537.2077c0,13.9453,11.1863,25.1572,24.0141,25.1572H939.8876c12.8277,0,22.4394-11.2119,22.4394-25.1572Z" transform="translate(-185.78606 -124.9959)"/><path class="f628b3ee-de54-487f-a7f1-897b1daaf3ee" d="M1449.1171,646.9423a3.07451,3.07451,0,0,1-2.8937-4.1025c28.1168-79.001,40.8273-188.0294-15.8842-235.303-13.1055-10.9248-33.3962-16.8131-46.8206-6.9262a3.07135,3.07135,0,1,1-3.6436-4.9454c16.7121-12.3116,39.9114-4.9215,54.3978,7.1521,28.7836,23.9943,42.913,63.3008,41.9951,116.8296-.9269,54.1378-17.273,105.6279-24.2572,125.2526A3.07289,3.07289,0,0,1,1449.1171,646.9423Z" transform="translate(-185.78606 -124.9959)"/><path class="f628b3ee-de54-487f-a7f1-897b1daaf3ee" d="M1685.2919,873.5603a3.07112,3.07112,0,0,1-2.8247-4.2775c13.15454-30.8285,14.20142-56.2236,3.1137-75.4754-17.0401-29.5856-57.5904-34.894-57.9983-34.944a3.07175,3.07175,0,0,1,.7439-6.0983c1.7858.218,43.9529,5.6914,62.55678,37.9387,12.12561,21.0216,11.19571,48.2704-2.76468,80.9907A3.07407,3.07407,0,0,1,1685.2919,873.5603Z" transform="translate(-185.78606 -124.9959)"/><path class="f628b3ee-de54-487f-a7f1-897b1daaf3ee" d="M962.327,797.359H818.9834a3.07165,3.07165,0,0,1,0-6.1433H962.327a3.07165,3.07165,0,0,1,0,6.1433Z" transform="translate(-185.78606 -124.9959)"/><circle class="e486d071-e4d8-4aac-927e-b337a83f0cff" cx="1747.16426" cy="343.96435" r="41.13614" transform="translate(700.627 1777.81475) rotate(-72.23115)"/><rect class="ea739a88-c861-4091-acd0-505338aa9884" x="1540.35714" y="203.425" width="12.2866" height="34.812" rx="1.9198"/><path class="e3eadaf3-31d1-462b-87db-44ff9a831cec" d="M1760.7719,328.4209h-5.96v-8.2363c0-2.6623-2.383-4.0503-5.0453-4.0503h-.1706a4.50686,4.50686,0,0,0-4.8208,4.4352l-1.9356,8.1241c-1.0603,0-2.362.6668-2.362,1.7271v31.4906c0,1.0603,1.744,1.3216,2.8044,1.3216h17.4899c3.9827,0,6.3266-2.6306,6.3266-6.6131V335.7121C1767.0985,331.7297,1764.7546,328.4209,1760.7719,328.4209Z" transform="translate(-185.78606 -124.9959)"/><circle class="e486d071-e4d8-4aac-927e-b337a83f0cff" cx="783.33693" cy="561.49818" r="47.94929" transform="translate(-247.86152 899.29255) rotate(-64.32996)"/><path class="f209081e-563e-4631-ab9b-ecb5eb5ee6b7" d="M576.05,418.4403h9.8588a2.2377,2.2377,0,0,1,2.2377,2.2377v36.4798a2.2378,2.2378,0,0,1-2.2378,2.2378H576.05a2.2378,2.2378,0,0,1-2.2378-2.2378V420.6781A2.2378,2.2378,0,0,1,576.05,418.4403Z"/><path class="bceb0669-ffa0-496d-8bbb-72aa1377d343" d="M799.1983,543.4362h-6.8358v-9.6565c0-3.1031-2.8888-4.6779-5.9922-4.6779h-.1988c-3.1036,0-5.6193,2.0453-5.6193,5.1483l-2.0373,9.4588c-1.2359,0-2.5345.7665-2.5345,2.0026v36.7059c0,1.2361,1.5954,1.9741,2.8312,1.9741h20.3867c4.6423,0,7.4985-3.4997,7.4985-8.1417V551.8793C806.6968,547.237,803.8406,543.4362,799.1983,543.4362Z" transform="translate(-185.78606 -124.9959)"/><path class="e486d071-e4d8-4aac-927e-b337a83f0cff" d="M1090.415,443.1965a31.09855,31.09855,0,1,1-31.0983-31.0986A31.09836,31.09836,0,0,1,1090.415,443.1965Z" transform="translate(-185.78606 -124.9959)"/><rect class="ecfceec7-39ed-4e5c-8f45-3ed6e3636931" x="858.45154" y="305.8132" width="10.2388" height="26.621" rx="1.4513"/><path class="b8fce031-8e68-4654-aaad-86320c185f9e" d="M1069.6038,430.8091h-4.8886v-5.59c0-2.0127-1.4185-2.601-3.4313-2.601h-.129c-2.0129,0-3.6444,1.1101-3.6444,3.1226l-1.356,6.0264c-.8015,0-1.6781.3888-1.6781,1.1905v23.8065c0,.8017,1.1035.666,1.905.666h13.2224c3.0108,0,5.3502-1.6555,5.3502-4.6663V436.9579C1074.954,433.9471,1072.6146,430.8091,1069.6038,430.8091Z" transform="translate(-185.78606 -124.9959)"/><circle class="e486d071-e4d8-4aac-927e-b337a83f0cff" cx="331.5072" cy="495.24357" r="69.1531" transform="translate(-427.06567 534.80311) rotate(-72.23114)"/><rect class="af1bf10f-8772-4bea-9ed6-3fe79573d4dc" x="111.01734" y="344.7207" width="18.4299" height="57.3375" rx="3.2273"/><path class="ef664095-eb13-4ea5-9b23-224f093d4a01" d="M354.3827,469.7166H343.902V455.2678a8.00971,8.00971,0,0,0-8.0201-8.0766h-.2867a8.09234,8.09234,0,0,0-8.1042,8.0901l-3.7226,13.974c-1.7824,0-4.4396,1.4379-4.4396,3.2205v52.9378c0,1.7826,3.8695,3.6882,5.6519,3.6882h29.402c6.6951,0,12.0447-5.8885,12.0447-12.5835V481.3711C366.4274,474.6761,361.0778,469.7166,354.3827,469.7166Z" transform="translate(-185.78606 -124.9959)"/><circle class="e486d071-e4d8-4aac-927e-b337a83f0cff" cx="2037.29522" cy="470.6704" r="69.15309" transform="translate(965.41851 2239.59788) rotate(-77.93564)"/><rect class="e9606825-1fca-4ace-bf95-2e716a2fe132" x="1816.80543" y="320.1476" width="18.4299" height="57.3374" rx="3.2273"/><path class="b15e5c07-8289-4122-bcaf-2b655c38af23" d="M2060.17069,445.1435h-10.4806V430.6946a8.00968,8.00968,0,0,0-8.02009-8.0765h-.28671a8.09242,8.09242,0,0,0-8.10429,8.0901l-3.72261,13.9739c-1.78239,0-4.4395,1.4379-4.4395,3.2205v52.9378c0,1.7826,3.8694,3.6882,5.6518,3.6882h29.402c6.6952,0,12.0448-5.8885,12.0448-12.5835V456.7979C2072.21549,450.103,2066.86589,445.1435,2060.17069,445.1435Z" transform="translate(-185.78606 -124.9959)"/><circle class="e486d071-e4d8-4aac-927e-b337a83f0cff" cx="1613.60597" cy="509.37975" r="36.58703" transform="translate(146.19351 1489.20317) rotate(-58.28257)"/><path class="bd4910f4-e3b2-4ad6-80e3-86c0ca9f38ab" d="M1411.00764,371.3417h6.824a1.7074,1.7074,0,0,1,1.7074,1.7074v27.3016a1.7075,1.7075,0,0,1-1.7075,1.7075h-6.8238a1.7075,1.7075,0,0,1-1.7075-1.7075V373.0491A1.7074,1.7074,0,0,1,1411.00764,371.3417Z"/><path class="bc578905-e6ed-47f2-905a-83c9ca48a1ed" d="M1625.7087,496.3376h-6.0492v-8.1079c0-2.3679-1.3711-4.1787-3.7389-4.1787h-.1517a4.24133,4.24133,0,0,0-4.2878,4.2329l-1.8645,7.3697c-.943,0-2.2437.7372-2.2437,1.6804v28.0079c0,.9432,1.837,1.7122,2.78,1.7122h15.5558a6.26955,6.26955,0,0,0,6.2373-6.4183V502.0402C1631.946,498.498,1629.2509,496.3376,1625.7087,496.3376Z" transform="translate(-185.78606 -124.9959)"/><circle class="e486d071-e4d8-4aac-927e-b337a83f0cff" cx="487.78895" cy="339.86885" r="41.13614" transform="translate(-140.84526 611.52697) rotate(-76.71745)"/><path class="e553f206-1e3a-4040-95c2-63824454e06d" d="M282.90164,199.3294h8.447a1.9198,1.9198,0,0,1,1.9198,1.9198v30.9725a1.9197,1.9197,0,0,1-1.9197,1.9197h-8.4471a1.9198,1.9198,0,0,1-1.9198-1.9198V201.2492A1.9198,1.9198,0,0,1,282.90164,199.3294Z"/><path class="fcaaf11d-e5bc-4ee9-a3dc-c2d473ce0fee" d="M501.3966,324.3253h-5.96V316.089c0-2.6623-2.383-4.0502-5.0453-4.0502h-.1706a4.50686,4.50686,0,0,0-4.8208,4.4352l-1.9356,8.1241c-1.0603,0-2.3621.6668-2.3621,1.7271v31.4905c0,1.0604,1.7441,1.3216,2.8044,1.3216h17.49c3.9827,0,6.3266-2.6305,6.3266-6.613V331.6166C507.7232,327.6341,505.3793,324.3253,501.3966,324.3253Z" transform="translate(-185.78606 -124.9959)"/><path class="be8f6290-6d81-4e1c-91a1-178f30a9ea4f" d="M659.877,621.3444H494.6007a26.91723,26.91723,0,0,0-26.9173,26.9175v42.41a26.91768,26.91768,0,0,0,26.9173,26.9175h51.0444a3.248,3.248,0,0,1,2.9617,1.9138l21.1497,46.9516a2.91658,2.91658,0,0,0,5.23.1793l25.3595-47.331a3.24876,3.24876,0,0,1,2.863-1.7137h56.668a26.91768,26.91768,0,0,0,26.9173-26.9175v-42.41A26.91723,26.91723,0,0,0,659.877,621.3444Z" transform="translate(-185.78606 -124.9959)"/><path class="f47b878f-c0d9-4528-b9f2-85b779815de8" d="M529.6848,652.2335c-5.0713-4.9847-12.9807-3.4851-18.4262,1.0864a2.121,2.121,0,0,1-2.703.021c-5.5181-4.4751-13.419-5.8375-18.4033-.767a13.97737,13.97737,0,0,0,.1704,19.7664l18.4211,18.1068a2.12528,2.12528,0,0,0,3.0049-.0261L529.8552,672A13.97767,13.97767,0,0,0,529.6848,652.2335Z" transform="translate(-185.78606 -124.9959)"/><path class="f47b878f-c0d9-4528-b9f2-85b779815de8" d="M556.9031,651.492h-.1599l-9.5528,4.8164-1.686-7.4652,12.6837-6.2612h8.268v52.177h-9.553Z" transform="translate(-185.78606 -124.9959)"/><path class="f47b878f-c0d9-4528-b9f2-85b779815de8" d="M621.2727,668.349c0,16.7771-6.5823,27.2928-19.0237,27.2928-12.0417,0-18.4628-10.9166-18.5429-26.8109,0-16.2151,6.9032-27.1319,19.1038-27.1319C615.4135,641.699,621.2727,652.9367,621.2727,668.349Zm-27.6139.4819c-.0798,12.6836,3.4528,19.2657,8.9111,19.2657,5.7794,0,8.83-7.0641,8.83-19.5866,0-12.1205-2.8907-19.2648-8.83-19.2648C597.2715,649.2452,593.579,655.7465,593.6588,668.8309Z" transform="translate(-185.78606 -124.9959)"/><path class="f47b878f-c0d9-4528-b9f2-85b779815de8" d="M664.2897,668.349c0,16.7771-6.5821,27.2928-19.0237,27.2928-12.0417,0-18.4629-10.9166-18.5429-26.8109,0-16.2151,6.9032-27.1319,19.1038-27.1319C658.4305,641.699,664.2897,652.9367,664.2897,668.349Zm-27.6137.4819c-.08,12.6836,3.4526,19.2657,8.9109,19.2657,5.7794,0,8.83-7.0641,8.83-19.5866,0-12.1205-2.8907-19.2648-8.83-19.2648C640.2885,649.2452,636.596,655.7465,636.676,668.8309Z" transform="translate(-185.78606 -124.9959)"/><path class="b99eefeb-6b96-405b-9a63-ae54a4ee60ef" d="M1567.0368,1039.0884H1401.7605a26.91723,26.91723,0,0,0-26.9173,26.9175v42.41a26.91762,26.91762,0,0,0,26.9173,26.9175h51.0444a3.24814,3.24814,0,0,1,2.9617,1.9138l21.1497,46.9516a2.91662,2.91662,0,0,0,5.23.1794l25.3595-47.3311a3.24876,3.24876,0,0,1,2.863-1.7137h56.668a26.91753,26.91753,0,0,0,26.9172-26.9175v-42.41A26.91715,26.91715,0,0,0,1567.0368,1039.0884Z" transform="translate(-185.78606 -124.9959)"/><path class="f47b878f-c0d9-4528-b9f2-85b779815de8" d="M1432.7491,1069.9775c-5.0713-4.9846-12.9808-3.4851-18.4262,1.0864a2.1211,2.1211,0,0,1-2.7031.0211c-5.5181-4.4752-13.419-5.8376-18.4032-.7671a13.97737,13.97737,0,0,0,.1703,19.7664l18.4211,18.1068a2.12528,2.12528,0,0,0,3.0049-.026l18.1066-18.4211A13.97767,13.97767,0,0,0,1432.7491,1069.9775Z" transform="translate(-185.78606 -124.9959)"/><path class="f47b878f-c0d9-4528-b9f2-85b779815de8" d="M1452.4304,1112.502v-6.0194l6.1811-5.6993c12.2817-11.3987,18.0609-17.6599,18.141-24.5632,0-4.6553-2.4877-8.7509-9.311-8.7509-4.5755,0-8.509,2.3277-11.1577,4.3355l-2.8906-6.9832a25.81884,25.81884,0,0,1,16.0551-5.3795c11.5586,0,17.1781,7.3052,17.1781,15.8143,0,9.151-6.5824,16.5361-15.6533,24.9651l-4.5754,3.9335v.16h21.4326v8.1871Z" transform="translate(-185.78606 -124.9959)"/><path class="f47b878f-c0d9-4528-b9f2-85b779815de8" d="M1528.5995,1068.513h-20.0678l-1.5247,10.4348a26.3787,26.3787,0,0,1,3.7726-.24,23.26061,23.26061,0,0,1,12.6826,3.3716c3.9335,2.4878,6.8231,6.9032,6.8231,13.2445,0,9.9548-8.268,18.0619-21.1116,18.0619a30.01245,30.01245,0,0,1-13.8064-3.0515l2.0068-7.4652a26.4095,26.4095,0,0,0,11.4788,2.7297c5.7791,0,11.3185-3.2916,11.3185-9.553,0-5.9392-4.4154-9.8727-14.8502-9.8727a45.31713,45.31713,0,0,0-7.1442.4818l3.4515-26.3289h26.971Z" transform="translate(-185.78606 -124.9959)"/><path class="f47b878f-c0d9-4528-b9f2-85b779815de8" d="M1575.3091,1086.093c0,16.7761-6.5823,27.2928-19.0237,27.2928-12.0417,0-18.4628-10.9166-18.5429-26.8109,0-16.2161,6.9032-27.1329,19.1038-27.1329C1569.4499,1059.442,1575.3091,1070.6807,1575.3091,1086.093Zm-27.6139.4819c-.0798,12.6826,3.4528,19.2657,8.9111,19.2657,5.7794,0,8.8299-7.0649,8.8299-19.5876,0-12.1206-2.8906-19.2638-8.8299-19.2638C1551.3079,1066.9892,1547.6154,1073.4905,1547.6952,1086.5749Z" transform="translate(-185.78606 -124.9959)"/><path class="ac19b623-47c9-479c-a139-2e1d5e03958d" d="M977.379,1217.6511c.0357-.8044.0674-1.5426.0934-2.1828a6.09451,6.09451,0,0,0-1.9757-4.7614c-7.8148-7.1479-37.1024-31.6873-78.738-39.6306a5.19106,5.19106,0,0,0-5.3117,2.1639,110.2497,110.2497,0,0,1,14.3858,3.0898C926.3975,1181.9346,956.2387,1196.6195,977.379,1217.6511Z" transform="translate(-185.78606 -124.9959)"/><path class="e89836f6-7e05-4166-9c28-e4e1f03daad0" d="M905.8328,1176.33a110.2497,110.2497,0,0,0-14.3858-3.0898,5.25469,5.25469,0,0,0-.1871,5.7816,35.48617,35.48617,0,0,0,2.4972,3.5988c6.4521,8.2324,58.7041,62.8385,58.7041,62.8385s16.7282,2.1974,21.8747-.7223c1.6681-.9462,2.6512-18.3219,3.0431-27.0857C956.2387,1196.6195,926.3975,1181.9346,905.8328,1176.33Z" transform="translate(-185.78606 -124.9959)"/><path class="e9d41ddd-b945-4b90-8814-751bdfb831c3" d="M974.8562,1273.8464l.2961-32.2353a6.29874,6.29874,0,0,0-4.2778-6.0564c-3.9888-1.3206-10.1286-2.5794-15.7412-.5345a9.09584,9.09584,0,0,0-5.8379,7.7827l-2.6787,30.084Z" transform="translate(-185.78606 -124.9959)"/><path class="b961c65f-66eb-4aa3-bc51-5c76f44b9e2d" d="M847.2745,1244.128a6.51947,6.51947,0,0,0-2.0562-3.1441c-6.7774,1.2739-20.9037,4.8718-49.8679,14.8004-33.5781,11.5105-43.47,21.7399-46.3434,27.2326,14.3024,4.3307,46.8363,11.0508,93.6746,2.3423l9.2774-4.2463S851.5181,1258.5814,847.2745,1244.128Z" transform="translate(-185.78606 -124.9959)"/><path class="e0bc107e-fbcb-45da-92b1-4143b6c571b1" d="M795.3504,1255.7843c28.9642-9.9286,43.0905-13.5265,49.8679-14.8004a6.53462,6.53462,0,0,0-5.5094-1.4371c-16.6539,3.3059-66.9882,14.6679-93.4322,35.7058a4.21355,4.21355,0,0,0,1.304,7.3226c.4516.1436.9301.2918,1.4263.4417C751.8804,1277.5242,761.7723,1267.2948,795.3504,1255.7843Z" transform="translate(-185.78606 -124.9959)"/><path class="fece444a-19f0-4859-b10a-6f24f62863c9" d="M869.0795,1300.741l-19.4556-23.7547a7.2923,7.2923,0,0,0-7.8505-2.3431,26.90215,26.90215,0,0,0-11.4503,7.4645,6.68213,6.68213,0,0,0-1.0499,7.5639l14.0559,27.8643Z" transform="translate(-185.78606 -124.9959)"/><path class="f9a9a96d-3b5c-4cd1-830d-8ae803ef2357" d="M942.403,1262.3243s24.0477-4.3882,37.3261.3428c0,0,16.5885,105.526,13.2605,139.3768l-51.9629,10.066S940.6444,1293.3833,942.403,1262.3243Z" transform="translate(-185.78606 -124.9959)"/><path class="f4c77019-6f32-4d46-aa56-896bf02f8a37" d="M1153.5708,1448.8906s-169.6934,7.9642-238.4868,2.5822a19.0545,19.0545,0,0,1-15.6474-10.6465c-14.483-29.6709-57.9145-118.7095-61.7186-127.2037,0,0,18.1094-14.8491,31.3976-16.8009,0,0,62.1756,70.461,64.4749,106.1392,0,0,145.8563-40.5019,160.2208-39.9736,14.364.5287,58.2437,20.5929,58.2437,20.5929Z" transform="translate(-185.78606 -124.9959)"/><path class="f0a0fd37-380a-4dad-81ba-b393aba0dc3b" d="M1349.5922,1251.8571l-38.2264,36.457a6.74378,6.74378,0,0,0-.5832,9.1519c11.5582,14.0321,21.5203,21.4259,29.8541,22.0523a9.7609,9.7609,0,0,0,8.8279-4.5464l20.431-31.57Z" transform="translate(-185.78606 -124.9959)"/><path class="ffd60d98-90f7-40c0-bf0b-b7dea0a0e380" d="M1424.3981,1433.92l22.8844-8.6645a18.28439,18.28439,0,0,1,17.9875,2.8957l29.4535,23.8741-67.8544-.3706Z" transform="translate(-185.78606 -124.9959)"/><path class="bc961907-4328-4e47-bbf5-6671de69bc05" d="M1304.7026,1335.1422s1.8737-44.9951-16.6076-46.069c-22.9497-1.3339-60.0065,14.9667-38.6442,81.1329,11.8031,36.555,29.8458,63.7645,79.9576,75.6825a74.37755,74.37755,0,0,1,17.3567-38.4386C1326.4381,1392.8457,1309.3119,1370.2216,1304.7026,1335.1422Z" transform="translate(-185.78606 -124.9959)"/><path class="b183aaac-2ff3-4704-a6f0-153637444a15" d="M1408.0354,1407.4731c-4.2032,4.0177-6.783,6.5723-6.783,6.5723l-16.4845-41.7727a133.2928,133.2928,0,0,0-47.1911-70.4636l-16.0066-12.3444c-15.7286-12.1303-41.0917-8.2228-57.3571,3.1782-36.1129,25.3128-89.7635,67.8135-108.082,82.4342a13.38468,13.38468,0,0,1-13.8892,1.7223l-3.0213-1.3709a4.06391,4.06391,0,0,0-5.7218,4.1141l7.0709,70.6516,123.2613-.29c14.7781.1356,57.6014-.9941,64.5329-14.047l11.653-27.8687c26.4989,22.9592,60.6134,38.8771,78.9259,43.5933a3.33478,3.33478,0,0,0,2.365-.7774C1409.8166,1438.9735,1407.9009,1419.8629,1408.0354,1407.4731Z" transform="translate(-185.78606 -124.9959)"/><path class="a8b28841-2249-4bee-8eb0-0ac5e0b8c6dc" d="M1476.4605,1361.5188c-1.6299-16.2209-50.2349,28.5684-68.4251,45.9543-.1345,12.3898,1.7812,31.5004,13.2724,43.3313C1434.1405,1442.469,1477.3181,1370.0512,1476.4605,1361.5188Z" transform="translate(-185.78606 -124.9959)"/><path class="a27755fb-c409-4159-9005-a81b07791363" d="M1344.4601,1407.5577a1.79345,1.79345,0,0,1-1.0314-.3385c-23.4074-16.8175-36.2797-39.6472-40.5104-71.8419a1.83276,1.83276,0,0,1-.0139-.3092c.4974-12.0243-1.2123-43.402-14.9134-44.1988a44.82135,44.82135,0,0,0-19.6101,3.3426,1.79974,1.79974,0,0,1-1.3992-3.3164,48.59349,48.59349,0,0,1,21.2179-3.6194c19.6319,1.1414,18.4352,44.3173,18.3064,47.7829,4.1125,31.062,16.5154,53.067,39.0222,69.2384a1.79922,1.79922,0,0,1-1.0681,3.2603Z" transform="translate(-185.78606 -124.9959)"/><path class="b9039d7d-2b42-43e1-b6ad-a70fdbd93d65" d="M1313.4498,1443.0182a1.8034,1.8034,0,0,1-.5859-.1038c-41.5268-14.7597-55.8419-43.4028-65.1248-72.1544a148.7709,148.7709,0,0,1-4.7904-18.6388,1.79868,1.79868,0,0,1,3.5382-.6497,145.26518,145.26518,0,0,0,4.6762,18.1813c9,27.876,22.85,55.6344,62.9057,69.8709a1.79918,1.79918,0,0,1-.619,3.4945Z" transform="translate(-185.78606 -124.9959)"/><path class="b42ee89f-83cc-4461-9ee0-d228f4bf8a33" d="M1433.4625,1451.4626l.0838-17.4586s-48.9414.6335-86.7812-26.554a74.37755,74.37755,0,0,0-17.3567,38.4386C1354.7657,1451.9188,1388.3253,1454.0385,1433.4625,1451.4626Z" transform="translate(-185.78606 -124.9959)"/><path class="a4db8324-633c-4323-b878-59794477faa6" d="M1490.9005,1313.2295l-33.748-4.4468c-4.0232-.6669-8.1769,1.6905-10.6635,6.0526l-22.1992,49.07c-4.1793,7.3316-1.2066,17.0581,5.5562,18.1792l27.0999,3.4759c2.5927.4298,5.2578-1.2067,6.721-4.1279l30.0239-59.9266C1495.4252,1318.0435,1493.9744,1313.7387,1490.9005,1313.2295Z" transform="translate(-185.78606 -124.9959)"/><path class="b8864705-5683-410b-8e40-8f07234bc9ca" d="M1483.7855,1341.4001s-10.3133-13.832-19.0993-14.4623c-8.7863-.6301-6.7629,18.3742-.2994,32.5691C1470.8504,1373.7016,1480.3625,1355.1062,1483.7855,1341.4001Z" transform="translate(-185.78606 -124.9959)"/><path class="ae15b550-0700-4dc8-bc74-e08da10bbf3d" d="M1413.2023,1243.9306s-12.6895,35.4317-26.7577,46.4837c-14.0683,11.0516-34.5677,20.8301-42.9537-40.2943l13.8761-22.6786a10.32624,10.32624,0,0,1,13.2732-3.9214C1405.2183,1208.3704,1405.968,1249.3032,1413.2023,1243.9306Z" transform="translate(-185.78606 -124.9959)"/><path class="b3a5aba1-f508-4ddd-a79b-e4ba01570071" d="M1458.3994,1222.5034c-6.2043,5.6003-40.7292-29.9155-51.1333-36.2718-6.1605-3.7636-14.4785-.334-20.2391,3.0895a14.69537,14.69537,0,0,1-13.3748.8455c-2.5746-1.1214-6.1449-2.5227-11.0956-4.2495-17.406-6.0708-21.1094,34.0625-21.1094,34.0625s-1.3714,27.6129,0,30.1705c1.3712,2.5583,6.4786-1.7877,12.577-16.8656,6.0984-15.0771,41.9792-2.7301,51.8768,9.8975,9.8975,12.6279,16.7233,8.5324,29.0099,6.9681,12.2866-1.5637-1.365-6.6268,14.0681-9.8694C1464.4123,1237.0383,1464.6035,1216.9024,1458.3994,1222.5034Z" transform="translate(-185.78606 -124.9959)"/><path class="f886327d-da20-427e-8f49-7257a04d7441" d="M1356.8356,1244.4954s2.3332-19.8965-6.6741-16.5183c-9.0077,3.378-5.3029,19.6029,1.5561,24.9936Z" transform="translate(-185.78606 -124.9959)"/><path class="f898ba36-7b4e-4271-832a-c7e65226f0d1" d="M1346.7954,1397.3912l-1.036-1.7677c8.9141-5.2255,12.1627-37.3598,12.1947-37.6838l2.0377.2001C1359.8579,1359.5057,1356.6034,1391.6419,1346.7954,1397.3912Z" transform="translate(-185.78606 -124.9959)"/><path class="f47b878f-c0d9-4528-b9f2-85b779815de8" d="M1832.0599,1297.3856l5.5789-2.4592.0425-.019a2.063,2.063,0,0,1,1.6643,3.7755l-.0092.004-5.676,2.4692a2.04773,2.04773,0,1,1-1.6337-3.7555Z" transform="translate(-185.78606 -124.9959)"/><path class="f47b878f-c0d9-4528-b9f2-85b779815de8" d="M1850.4317,1288.7041l5.3821-2.8697.0413-.022a2.113,2.113,0,0,1,1.988,3.7291l-.0091.005-5.4786,2.8866a2.09786,2.09786,0,1,1-1.9558-3.712Z" transform="translate(-185.78606 -124.9959)"/><path class="f47b878f-c0d9-4528-b9f2-85b779815de8" d="M1868.1134,1278.6867l5.1569-3.2521.0394-.025a2.163,2.163,0,1,1,2.3075,3.6591l-.0089.0055-5.2516,3.2761a2.14781,2.14781,0,1,1-2.2736-3.6446Z" transform="translate(-185.78606 -124.9959)"/><path class="f47b878f-c0d9-4528-b9f2-85b779815de8" d="M1885.0249,1267.421l4.9135-3.6096.0373-.0275a2.213,2.213,0,0,1,2.6203,3.5671l-.0086.0065-5.0061,3.6401a2.19781,2.19781,0,0,1-2.5851-3.5551Z" transform="translate(-185.78606 -124.9959)"/><path class="f47b878f-c0d9-4528-b9f2-85b779815de8" d="M1901.10449,1254.9959l4.6533-3.9395.03521-.03a2.26293,2.26293,0,0,1,2.92449,3.4541l-.0084.007-4.743,3.9765a2.24783,2.24783,0,1,1-2.8883-3.4451Z" transform="translate(-185.78606 -124.9959)"/><path class="f47b878f-c0d9-4528-b9f2-85b779815de8" d="M1916.29939,1241.5015l4.3789-4.243.0328-.032a2.313,2.313,0,1,1,3.2193,3.3221l-.0081.008-4.4657,4.285a2.29773,2.29773,0,1,1-3.182-3.3156Z" transform="translate(-185.78606 -124.9959)"/><path class="f47b878f-c0d9-4528-b9f2-85b779815de8" d="M1930.565,1227.0272l4.087-4.5145.03069-.034a2.36305,2.36305,0,0,1,3.5034,3.1721l-.0077.0085-4.1707,4.5615a2.34789,2.34789,0,0,1-3.4656-3.1686Z" transform="translate(-185.78606 -124.9959)"/><path class="f47b878f-c0d9-4528-b9f2-85b779815de8" d="M1943.858,1211.6644l3.79549-4.7724.0284-.0355a2.41308,2.41308,0,0,1,3.7772,3.0041l-.0074.009-3.8759,4.825a2.398,2.398,0,0,1-3.739-3.0037Z" transform="translate(-185.78606 -124.9959)"/><path class="f47b878f-c0d9-4528-b9f2-85b779815de8" d="M1956.16019,1195.4773l3.4935-5.0074.0262-.0375a2.463,2.463,0,0,1,4.04,2.8186l-.0068.01-3.5707,5.065a2.44806,2.44806,0,1,1-4.0016-2.8212Z" transform="translate(-185.78606 -124.9959)"/><path class="f47b878f-c0d9-4528-b9f2-85b779815de8" d="M1967.42929,1178.5557l3.1735-5.2064.024-.039a2.513,2.513,0,1,1,4.2917,2.6157l-.0063.0105-3.2474,5.2694a2.498,2.498,0,0,1-4.2532-2.6212Z" transform="translate(-185.78606 -124.9959)"/><path class="f47b878f-c0d9-4528-b9f2-85b779815de8" d="M1977.63179,1160.9812l2.8491-5.3898.0219-.0415a2.56317,2.56317,0,0,1,4.5321,2.3957l-.00589.011-2.91941,5.4584a2.548,2.548,0,1,1-4.4938-2.4033Z" transform="translate(-185.78606 -124.9959)"/><path class="f47b878f-c0d9-4528-b9f2-85b779815de8" d="M1986.742,1142.8193l2.51539-5.5528.01961-.0435a2.61321,2.61321,0,0,1,4.76069,2.1567l-.0052.0115-2.5821,5.6269a2.59813,2.59813,0,1,1-4.7227-2.1673Z" transform="translate(-185.78606 -124.9959)"/><path class="f47b878f-c0d9-4528-b9f2-85b779815de8" d="M1994.72839,1124.139l2.17161-5.6949.01739-.0455a2.66327,2.66327,0,0,1,4.9768,1.8983l-.0048.012-2.2345,5.7749a2.6481,2.6481,0,0,1-4.9393-1.9113Z" transform="translate(-185.78606 -124.9959)"/><path class="f47b878f-c0d9-4528-b9f2-85b779815de8" d="M2001.55679,1105.0097l1.8175-5.8159.015-.048a2.71318,2.71318,0,1,1,5.1794,1.6184l-.004.0125-1.8762,5.9028a2.69814,2.69814,0,0,1-5.1427-1.6348Z" transform="translate(-185.78606 -124.9959)"/><path class="f47b878f-c0d9-4528-b9f2-85b779815de8" d="M2007.19139,1085.5004l1.4519-5.9163.0124-.05a2.76319,2.76319,0,1,1,5.3672,1.3168l-.0032.013-1.5059,6.0094a2.74811,2.74811,0,0,1-5.3314-1.3359Z" transform="translate(-185.78606 -124.9959)"/><path class="f47b878f-c0d9-4528-b9f2-85b779815de8" d="M2011.59379,1065.6827l1.0754-6.0008.0095-.053a2.8133,2.8133,0,0,1,5.5384.9924l-.0024.0135-1.1244,6.1018a2.79815,2.79815,0,1,1-5.5036-1.0144Z" transform="translate(-185.78606 -124.9959)"/><path class="f47b878f-c0d9-4528-b9f2-85b779815de8" d="M2014.72469,1045.6195l.6839-6.0478.00641-.0555a2.86327,2.86327,0,1,1,5.69029.6434l-.0016.014-.7266,6.1553a2.84819,2.84819,0,1,1-5.65709-.6679Z" transform="translate(-185.78606 -124.9959)"/><path class="f47b878f-c0d9-4528-b9f2-85b779815de8" d="M2016.53859,1025.4163l.28841-6.0693.00269-.0585a2.90638,2.90638,0,1,1,5.8062.276l-.0004.0075-.31,6.1848a2.89828,2.89828,0,1,1-5.7893-.29Z" transform="translate(-185.78606 -124.9959)"/><path class="f47b878f-c0d9-4528-b9f2-85b779815de8" d="M2017.02459,1005.1531l-.1239-6.0813-.0012-.061a2.92725,2.92725,0,1,1,5.8533-.1189l.0001.006.1136,6.2027a2.92094,2.92094,0,1,1-5.8409.107Z" transform="translate(-185.78606 -124.9959)"/><path class="f47b878f-c0d9-4528-b9f2-85b779815de8" d="M2016.11829,984.903l-.5491-6.0558-.0056-.0625a2.94815,2.94815,0,0,1,5.8722-.5325l.0005.006.5478,6.1818a2.94184,2.94184,0,1,1-5.8607.5195Z" transform="translate(-185.78606 -124.9959)"/><path class="f47b878f-c0d9-4528-b9f2-85b779815de8" d="M2013.78379,964.7748l-.9829-5.9983-.0106-.064a2.96909,2.96909,0,0,1,5.86-.9604l.001.006.9913,6.1283a2.96268,2.96268,0,1,1-5.8493.9464Z" transform="translate(-185.78606 -124.9959)"/><path class="f47b878f-c0d9-4528-b9f2-85b779815de8" d="M2009.99549,944.8766l-1.4208-5.9019-.01569-.0649a2.98993,2.98993,0,0,1,5.81369-1.3999l.0014.006,1.4397,6.0348a2.98357,2.98357,0,0,1-5.8042,1.3849Z" transform="translate(-185.78606 -124.9959)"/><path class="f47b878f-c0d9-4528-b9f2-85b779815de8" d="M2004.742,925.3278l-1.86181-5.7838-.0206-.064a3.01076,3.01076,0,1,1,5.7318-1.8453l.0019.006,1.8911,5.9158a3.00444,3.00444,0,0,1-5.7235,1.8298Z" transform="translate(-185.78606 -124.9959)"/><path class="f47b878f-c0d9-4528-b9f2-85b779815de8" d="M1998.03609,906.2195l-2.2847-5.6283-.025-.0615a3.03166,3.03166,0,0,1,5.6182-2.2803l.00241.0055,2.32289,5.7564a3.02531,3.02531,0,1,1-5.611,2.2642Z" transform="translate(-185.78606 -124.9959)"/><path class="f47b878f-c0d9-4528-b9f2-85b779815de8" d="M1989.94369,887.6546l-2.6872-5.4513-.0288-.0585a3.05255,3.05255,0,1,1,5.476-2.6992l.0028.0055,2.73351,5.5743a3.04631,3.04631,0,1,1-5.47021,2.6827Z" transform="translate(-185.78606 -124.9959)"/><path class="f47b878f-c0d9-4528-b9f2-85b779815de8" d="M1980.53909,869.7112l-3.0647-5.2499-.0322-.055a3.07355,3.07355,0,1,1,5.3087-3.0991l.00311.0055,3.11839,5.3668a3.06714,3.06714,0,1,1-5.304,3.0817Z" transform="translate(-185.78606 -124.9959)"/><path class="f47b878f-c0d9-4528-b9f2-85b779815de8" d="M1969.90469,852.4632l-3.4176-5.0294-.0352-.0515a3.09446,3.09446,0,1,1,5.1188-3.4786l.0035.005,3.4776,5.1404a3.088,3.088,0,1,1-5.1153,3.4606Z" transform="translate(-185.78606 -124.9959)"/><path class="f47b878f-c0d9-4528-b9f2-85b779815de8" d="M1958.123,835.9716l-3.74571-4.792-.0378-.048a3.11535,3.11535,0,0,1,4.9087-3.8375l.0039.005,3.8113,4.8964a3.10879,3.10879,0,1,1-4.90639,3.8191Z" transform="translate(-185.78606 -124.9959)"/><path class="f47b878f-c0d9-4528-b9f2-85b779815de8" d="M1945.27609,820.2899l-4.0457-4.5345-.0401-.045a3.13612,3.13612,0,1,1,4.6804-4.1755l.00431.0045,4.11639,4.633a3.13,3.13,0,1,1-4.6795,4.158Z" transform="translate(-185.78606 -124.9959)"/><path class="f47b878f-c0d9-4528-b9f2-85b779815de8" d="M1931.45149,805.4741l-4.3316-4.2745-.0424-.042a3.15705,3.15705,0,0,1,4.4353-4.494l.0046.0045,4.4075,4.3675a3.15072,3.15072,0,0,1-4.4355,4.476Z" transform="translate(-185.78606 -124.9959)"/><path class="f47b878f-c0d9-4528-b9f2-85b779815de8" d="M1916.70849,791.5487l-4.5959-4.0016-.0445-.039a3.17791,3.17791,0,0,1,4.1737-4.7934l.0048.0045,4.6768,4.0885a3.17166,3.17166,0,1,1-4.1752,4.7755Z" transform="translate(-185.78606 -124.9959)"/><path class="f47b878f-c0d9-4528-b9f2-85b779815de8" d="M1901.12279,778.5592l-4.82609-3.7051-.0466-.036a3.19879,3.19879,0,1,1,3.89609-5.0744l.0053.004,4.9116,3.787a3.19258,3.19258,0,0,1-3.899,5.0565Z" transform="translate(-185.78606 -124.9959)"/><path class="f47b878f-c0d9-4528-b9f2-85b779815de8" d="M1884.7768,766.5561l-5.0432-3.4042-.0488-.033a3.21969,3.21969,0,1,1,3.6026-5.3373l.0055.0035,5.1336,3.4806a3.21332,3.21332,0,1,1-3.6065,5.3193Z" transform="translate(-185.78606 -124.9959)"/><path class="f47b878f-c0d9-4528-b9f2-85b779815de8" d="M1867.73,755.5713l-5.2407-3.0906-.051-.03a3.24068,3.24068,0,0,1,3.2923-5.5829l.0056.0035,5.3363,3.1616a3.23439,3.23439,0,0,1-3.2972,5.5654Z" transform="translate(-185.78606 -124.9959)"/><path class="f47b878f-c0d9-4528-b9f2-85b779815de8" d="M1850.0474,745.6465l-5.419-2.7647-.0534-.027a3.26163,3.26163,0,0,1,2.9642-5.8109l.006.003,5.52,2.8302a3.25523,3.25523,0,1,1-2.9705,5.7933Z" transform="translate(-185.78606 -124.9959)"/><path class="f47b878f-c0d9-4528-b9f2-85b779815de8" d="M1831.7928,736.8235l-5.5779-2.4248-.0559-.0245a3.28233,3.28233,0,1,1,2.6174-6.0203l.0062.0025,5.6847,2.4853a3.27623,3.27623,0,0,1-2.6247,6.0038Z" transform="translate(-185.78606 -124.9959)"/><path class="f47b878f-c0d9-4528-b9f2-85b779815de8" d="M1813.0314,729.1483l-5.7172-2.0717-.0587-.021a3.3035,3.3035,0,0,1,2.2508-6.2118l.0062.0025,5.8302,2.1263a3.29689,3.29689,0,1,1-2.2591,6.1947Z" transform="translate(-185.78606 -124.9959)"/><path class="f47b878f-c0d9-4528-b9f2-85b779815de8" d="M1793.8296,722.6681l-5.8405-1.7048-.0616-.018a3.32407,3.32407,0,1,1,1.8629-6.3818l.0065.002,5.96,1.7528a3.31771,3.31771,0,1,1-1.8723,6.3658Z" transform="translate(-185.78606 -124.9959)"/><path class="f47b878f-c0d9-4528-b9f2-85b779815de8" d="M1774.2525,717.4302l-5.9276-1.3264-.0644-.0145a3.3357,3.3357,0,0,1,1.4555-6.5107l6.0568,1.3528a3.33689,3.33689,0,0,1-1.4547,6.5133h-.0014Z" transform="translate(-185.78606 -124.9959)"/><path class="f47b878f-c0d9-4528-b9f2-85b779815de8" d="M1754.3935,713.4681l-6.0043-.9283-.067-.0105a3.33141,3.33141,0,0,1,1.0167-6.5848l6.1385.9464a3.33278,3.33278,0,0,1-1.0158,6.5877l-.0014-.0005Z" transform="translate(-185.78606 -124.9959)"/><path class="f47b878f-c0d9-4528-b9f2-85b779815de8" d="M1734.3155,710.8524l-6.0519-.5144-.0692-.0055a3.32725,3.32725,0,0,1,.5622-6.6307l6.1905.5234a3.32844,3.32844,0,1,1-.5611,6.6332h-.0013Z" transform="translate(-185.78606 -124.9959)"/><path class="f47b878f-c0d9-4528-b9f2-85b779815de8" d="M1714.1112,709.6341l-6.07127-.0865-.07149-.001a3.32318,3.32318,0,0,1,.09324-6.6457l6.21392.086a3.32442,3.32442,0,0,1-.0919,6.6482h-.0013Z" transform="translate(-185.78606 -124.9959)"/><path class="f47b878f-c0d9-4528-b9f2-85b779815de8" d="M1693.87756,709.8566l-6.05976.3534-.0732.004a3.31877,3.31877,0,0,1-.3878-6.6262l6.20567-.3645a3.32011,3.32011,0,1,1,.38933,6.6288h-.00137Z" transform="translate(-185.78606 -124.9959)"/><path class="f47b878f-c0d9-4528-b9f2-85b779815de8" d="M1673.7203,711.5564l-6.0125.8014-.0741.01a3.31481,3.31481,0,0,1-.8774-6.5713l6.1602-.8239a3.31615,3.31615,0,0,1,.879,6.5738h-.0014Z" transform="translate(-185.78606 -124.9959)"/><path class="f47b878f-c0d9-4528-b9f2-85b779815de8" d="M1653.7287,714.7285l-5.9593,1.2079-.061.012a3.31046,3.31046,0,0,1-1.3161-6.4888l6.0809-1.2348a3.31183,3.31183,0,1,1,1.318,6.4912l-.0013.0005Z" transform="translate(-185.78606 -124.9959)"/><path class="f47b878f-c0d9-4528-b9f2-85b779815de8" d="M1633.9582,719.184l-5.8745,1.5723-.0576.015a3.30646,3.30646,0,0,1-1.7108-6.3878l5.9892-1.6053a3.3077,3.3077,0,0,1,1.7129,6.3898l-.0013.0005Z" transform="translate(-185.78606 -124.9959)"/><path class="f47b878f-c0d9-4528-b9f2-85b779815de8" d="M1614.4906,724.8298l-5.7739,1.9138-.0532.018a3.30235,3.30235,0,0,1-2.0795-6.2688l5.8799-1.9517a3.30333,3.30333,0,1,1,2.0815,6.2702l-.0012.0005Z" transform="translate(-185.78606 -124.9959)"/><path class="f47b878f-c0d9-4528-b9f2-85b779815de8" d="M1595.361,731.5881l-5.6631,2.2287-.0482.019a3.298,3.298,0,0,1-2.417-6.1373l5.7592-2.2692a3.29934,3.29934,0,1,1,2.419,6.1393l-.0013.0005Z" transform="translate(-185.78606 -124.9959)"/><path class="f47b878f-c0d9-4528-b9f2-85b779815de8" d="M1576.6063,739.3622l-5.5476,2.5127-.043.0195a3.29395,3.29395,0,0,1-2.7197-6.0003l5.633-2.5547a3.29531,3.29531,0,0,1,2.7219,6.0023l-.0012.0005Z" transform="translate(-185.78606 -124.9959)"/><path class="f47b878f-c0d9-4528-b9f2-85b779815de8" d="M1558.2385,748.0472l-5.4319,2.7662-.0377.0195a3.29,3.29,0,0,1-2.9869-5.8629l5.5066-2.8071a3.29112,3.29112,0,0,1,2.9893,5.8643l-.0013.001Z" transform="translate(-185.78606 -124.9959)"/><path class="f47b878f-c0d9-4528-b9f2-85b779815de8" d="M1540.2546,757.5391l-5.32,2.9876-.0327.018a3.28557,3.28557,0,0,1-3.2188-5.7288l5.3843-3.0267a3.28688,3.28688,0,1,1,3.2213,5.7304l-.0011.001Z" transform="translate(-185.78606 -124.9959)"/><path class="f47b878f-c0d9-4528-b9f2-85b779815de8" d="M1522.6454,767.7284l-5.2149,3.1792-.0278.0169a3.28155,3.28155,0,0,1-3.4172-5.6033l5.2696-3.2151a3.28281,3.28281,0,1,1,3.4196,5.6048l-.0011.0005Z" transform="translate(-185.78606 -124.9959)"/><path class="f47b878f-c0d9-4528-b9f2-85b779815de8" d="M1505.376,778.5217l-5.1192,3.3416-.0232.0155a3.27751,3.27751,0,0,1-3.5841-5.4884l5.1647-3.3741a3.27861,3.27861,0,1,1,3.5866,5.4894l-.0011.001Z" transform="translate(-185.78606 -124.9959)"/><path class="f47b878f-c0d9-4528-b9f2-85b779815de8" d="M1488.4134,789.8259l-5.0345,3.4771-.0192.0135a3.27328,3.27328,0,0,1-3.7215-5.3859l5.0716-3.5061a3.27446,3.27446,0,1,1,3.7242,5.3869l-.0011.001Z" transform="translate(-185.78606 -124.9959)"/><path class="f47b878f-c0d9-4528-b9f2-85b779815de8" d="M1471.7192,801.553l-4.9621,3.5886-.0152.011a3.26922,3.26922,0,0,1-3.8326-5.2974l4.9916-3.6126a3.27036,3.27036,0,1,1,3.8351,5.2984l-.0012.0005Z" transform="translate(-185.78606 -124.9959)"/><path class="f47b878f-c0d9-4528-b9f2-85b779815de8" d="M1455.2513,813.6231l-4.9028,3.6771-.0117.0085a3.265,3.265,0,0,1-3.9187-5.2234l4.9252-3.6966a3.26632,3.26632,0,0,1,3.9212,5.2249l-.001.0005Z" transform="translate(-185.78606 -124.9959)"/><path class="f47b878f-c0d9-4528-b9f2-85b779815de8" d="M1438.9651,825.9617l-4.8516,3.7391-.0085.0065a3.26082,3.26082,0,0,1-3.9819-5.1649l4.8673-3.7541a3.262,3.262,0,0,1,3.9846,5.1659l-.001.001Z" transform="translate(-185.78606 -124.9959)"/><path class="f47b878f-c0d9-4528-b9f2-85b779815de8" d="M1422.8143,838.4993l-4.826,3.7896a3.25666,3.25666,0,1,1-4.0292-5.1175l4.8354-3.8005a3.25791,3.25791,0,0,1,4.0264,5.1229Z" transform="translate(-185.78606 -124.9959)"/><path class="f47b878f-c0d9-4528-b9f2-85b779815de8" d="M1406.751,851.1688l-4.8092,3.8176a3.25233,3.25233,0,1,1-4.0476-5.0919l4.8126-3.8236a3.25379,3.25379,0,1,1,4.0479,5.0954Z" transform="translate(-185.78606 -124.9959)"/><path class="f47b878f-c0d9-4528-b9f2-85b779815de8" d="M1390.7271,863.9089l-4.8067,3.8265a3.2483,3.2483,0,0,1-4.0466-5.0824l4.8043-3.8275a3.24945,3.24945,0,1,1,4.0503,5.0824Z" transform="translate(-185.78606 -124.9959)"/><path class="f47b878f-c0d9-4528-b9f2-85b779815de8" d="M1374.6942,876.6574l-4.8188,3.8176a3.24418,3.24418,0,1,1-4.0263-5.088l4.8107-3.814a3.24545,3.24545,0,0,1,4.0387,5.0814Z" transform="translate(-185.78606 -124.9959)"/><path class="f47b878f-c0d9-4528-b9f2-85b779815de8" d="M1358.6039,889.3534l-4.8454,3.7896a3.23988,3.23988,0,1,1-3.9864-5.1084l4.8314-3.7816a3.2411,3.2411,0,1,1,4.0076,5.0949Z" transform="translate(-185.78606 -124.9959)"/><path class="f47b878f-c0d9-4528-b9f2-85b779815de8" d="M1342.4082,901.935l-4.8863,3.7426a3.23569,3.23569,0,1,1-3.9352-5.1374l.0084-.0065,4.8663-3.7306.0091-.007a3.23718,3.23718,0,0,1,3.9388,5.1384Z" transform="translate(-185.78606 -124.9959)"/><path class="f47b878f-c0d9-4528-b9f2-85b779815de8" d="M1326.0594,914.3381l-4.9415,3.6761a3.23174,3.23174,0,1,1-3.8577-5.186l.0115-.0085,4.9151-3.6595.0123-.009a3.23277,3.23277,0,1,1,3.8613,5.1859Z" transform="translate(-185.78606 -124.9959)"/><path class="f47b878f-c0d9-4528-b9f2-85b779815de8" d="M1309.5108,926.4947l-5.0103,3.5886a3.22749,3.22749,0,1,1-3.7585-5.2479l.015-.0105,4.977-3.5676.0158-.0115a3.22877,3.22877,0,1,1,3.7622,5.2484Z" transform="translate(-185.78606 -124.9959)"/><path class="f47b878f-c0d9-4528-b9f2-85b779815de8" d="M1292.7175,938.3343l-5.0923,3.4786a3.22337,3.22337,0,0,1-3.6362-5.3234l.0185-.0125,5.0519-3.4541.0193-.013a3.22439,3.22439,0,1,1,3.6398,5.3234Z" transform="translate(-185.78606 -124.9959)"/><path class="f47b878f-c0d9-4528-b9f2-85b779815de8" d="M1275.6366,949.779l-5.192,3.3481a3.21894,3.21894,0,1,1-3.4891-5.4104l.0223-.0145,5.144-3.3201.0231-.015a3.22036,3.22036,0,0,1,3.4928,5.4114Z" transform="translate(-185.78606 -124.9959)"/><path class="f47b878f-c0d9-4528-b9f2-85b779815de8" d="M1258.211,960.7442l-5.3063,3.1782a3.19582,3.19582,0,1,1-3.2841-5.4834l.0206-.0125,5.2389-3.1591.0289-.0175a3.20512,3.20512,0,0,1,3.3104,5.4893Z" transform="translate(-185.78606 -124.9959)"/><path class="f47b878f-c0d9-4528-b9f2-85b779815de8" d="M1240.4129,971.1101l-5.4084,2.9881a3.16485,3.16485,0,0,1-3.0609-5.5404l.0204-.0115,5.3418-2.9721.0287-.016a3.17419,3.17419,0,0,1,3.0868,5.5474Z" transform="translate(-185.78606 -124.9959)"/><path class="f47b878f-c0d9-4528-b9f2-85b779815de8" d="M1222.2717,980.8479l-5.5038,2.7977a3.13385,3.13385,0,0,1-2.8401-5.5873l.0203-.0105,5.438-2.7847.0287-.0145a3.14316,3.14316,0,1,1,2.8654,5.5953Z" transform="translate(-185.78606 -124.9959)"/><path class="f47b878f-c0d9-4528-b9f2-85b779815de8" d="M1203.8196,989.9514l-5.5931,2.6067a3.10273,3.10273,0,1,1-2.6218-5.6244l.0201-.0095,5.528-2.5972.0286-.0135a3.11233,3.11233,0,0,1,2.6468,5.6339Z" transform="translate(-185.78606 -124.9959)"/><path class="f47b878f-c0d9-4528-b9f2-85b779815de8" d="M1185.0673,998.4239l-5.6761,2.4162a3.07188,3.07188,0,1,1-2.4066-5.6528l.0198-.0085,5.612-2.4092.0284-.012a3.08107,3.08107,0,1,1,2.4311,5.6623Z" transform="translate(-185.78606 -124.9959)"/><path class="f47b878f-c0d9-4528-b9f2-85b779815de8" d="M1166.0442,1006.261l-5.7525,2.2258a3.04107,3.04107,0,0,1-2.1946-5.6724l.0196-.0075,5.6894-2.2212.0281-.011a3.05026,3.05026,0,1,1,2.2186,5.6828Z" transform="translate(-185.78606 -124.9959)"/><path class="f47b878f-c0d9-4528-b9f2-85b779815de8" d="M1146.7738,1013.4617l-5.8224,2.0348a3.00993,3.00993,0,0,1-1.9858-5.6829l.0192-.007,5.7603-2.0328.0279-.0095a3.01927,3.01927,0,1,1,2.0094,5.6944Z" transform="translate(-185.78606 -124.9959)"/><path class="f47b878f-c0d9-4528-b9f2-85b779815de8" d="M1127.279,1020.0249l-5.8857,1.8438a2.97911,2.97911,0,0,1-1.781-5.6858l.0191-.006,5.8248-1.8438.0276-.009a2.98825,2.98825,0,1,1,1.8038,5.6978Z" transform="translate(-185.78606 -124.9959)"/><path class="f47b878f-c0d9-4528-b9f2-85b779815de8" d="M1107.5915,1025.9478l-5.9429,1.6528a2.948,2.948,0,1,1-1.5797-5.6804l.0187-.0055,5.8831-1.6553.0274-.0075a2.95726,2.95726,0,1,1,1.6021,5.6934Z" transform="translate(-185.78606 -124.9959)"/><path class="f47b878f-c0d9-4528-b9f2-85b779815de8" d="M1087.7209,1031.2341l-5.9936,1.4614a2.917,2.917,0,0,1-1.3823-5.6679l.0187-.0045,5.9348-1.4663.0272-.007a2.92634,2.92634,0,0,1,1.4039,5.6818Z" transform="translate(-185.78606 -124.9959)"/><path class="f47b878f-c0d9-4528-b9f2-85b779815de8" d="M1067.6885,1035.8831l-6.0382,1.2709a2.88605,2.88605,0,1,1-1.1886-5.6484l.0184-.004,5.9805-1.2773.0269-.006a2.89551,2.89551,0,0,1,1.2095,5.6633Z" transform="translate(-185.78606 -124.9959)"/><path class="f47b878f-c0d9-4528-b9f2-85b779815de8" d="M1047.5149,1039.8957l-6.0763,1.0793a2.85516,2.85516,0,1,1-.9987-5.6223l.018-.003,6.02-1.0884.0265-.0045a2.8644,2.8644,0,0,1,1.0192,5.6374Z" transform="translate(-185.78606 -124.9959)"/><path class="f47b878f-c0d9-4528-b9f2-85b779815de8" d="M1027.2213,1043.2703l-6.1083.8884a2.82409,2.82409,0,1,1-.8128-5.5894l.0179-.003,6.0531-.8984.0263-.004a2.83343,2.83343,0,1,1,.8323,5.6054Z" transform="translate(-185.78606 -124.9959)"/><path class="f47b878f-c0d9-4528-b9f2-85b779815de8" d="M1006.8284,1046.008l-6.1341.6964a2.793,2.793,0,1,1-.6305-5.5504l.0176-.002,6.08-.7094.026-.003a2.80258,2.80258,0,0,1,.6495,5.5674Z" transform="translate(-185.78606 -124.9959)"/><path class="f47b878f-c0d9-4528-b9f2-85b779815de8" d="M986.3676,1048.1062l-6.1536.505a2.762,2.762,0,1,1-.4522-5.5054l.0174-.0015,6.1006-.52.0258-.002a2.77145,2.77145,0,0,1,.4704,5.5229Z" transform="translate(-185.78606 -124.9959)"/><path class="f47b878f-c0d9-4528-b9f2-85b779815de8" d="M965.8515,1049.5665l-6.1669.3135a2.731,2.731,0,1,1-.2776-5.4549l.0172-.001,6.1149-.3299.0255-.0015a2.74062,2.74062,0,0,1,.2951,5.4733Z" transform="translate(-185.78606 -124.9959)"/><path class="f47b878f-c0d9-4528-b9f2-85b779815de8" d="M945.3001,1050.3884l-6.1738.1225a2.70018,2.70018,0,1,1-.1069-5.3993l.0171-.0005,6.1229-.1395.0252-.001a2.70961,2.70961,0,0,1,.1237,5.4178Z" transform="translate(-185.78606 -124.9959)"/><path class="f47b878f-c0d9-4528-b9f2-85b779815de8" d="M924.7337,1050.5724l-6.1746-.0695a2.66937,2.66937,0,0,1,.0601-5.3384l.0168.0005,6.1249.0505h.0249a2.67854,2.67854,0,1,1-.0441,5.3569Z" transform="translate(-185.78606 -124.9959)"/><path class="f47b878f-c0d9-4528-b9f2-85b779815de8" d="M904.1721,1050.117l-6.1692-.261a2.63832,2.63832,0,0,1,.2234-5.2719l.0167.0005,6.1206.241.0246.001a2.6475,2.6475,0,1,1-.2081,5.2909Z" transform="translate(-185.78606 -124.9959)"/><path class="f47b878f-c0d9-4528-b9f2-85b779815de8" d="M883.6353,1049.0226l-6.1576-.4534a2.60725,2.60725,0,0,1,.3831-5.2004l.0166.001,6.11.4314.0244.0015a2.6167,2.6167,0,0,1-.3686,5.2204Z" transform="translate(-185.78606 -124.9959)"/><path class="f47b878f-c0d9-4528-b9f2-85b779815de8" d="M863.1437,1047.2873l-6.1393-.6459a2.5761,2.5761,0,1,1,.5392-5.1239l.0163.0015,6.0929.6224.0241.0025a2.58559,2.58559,0,1,1-.5255,5.1444Z" transform="translate(-185.78606 -124.9959)"/><path class="f47b878f-c0d9-4528-b9f2-85b779815de8" d="M842.718,1044.9116l-6.1145-.8384a2.54529,2.54529,0,1,1,.6915-5.0434l.0163.002,6.0692.8134.0239.0035a2.5546,2.5546,0,1,1-.6788,5.0639Z" transform="translate(-185.78606 -124.9959)"/><path class="f47b878f-c0d9-4528-b9f2-85b779815de8" d="M822.3712,1041.8919l-6.0834-1.0309a2.5143,2.5143,0,1,1,.8403-4.9579l.0162.0025,6.0391,1.0049.0237.004a2.52367,2.52367,0,0,1-.8284,4.9789Z" transform="translate(-185.78606 -124.9959)"/><path class="f47b878f-c0d9-4528-b9f2-85b779815de8" d="M802.1356,1038.2303l-6.0457-1.2243a2.48338,2.48338,0,0,1,.9855-4.868l.016.0035,6.0027,1.1964.0233.0045a2.49277,2.49277,0,0,1-.9744,4.8894Z" transform="translate(-185.78606 -124.9959)"/><path class="f47b878f-c0d9-4528-b9f2-85b779815de8" d="M782.033,1033.9253l-6.0009-1.4203a2.44907,2.44907,0,1,1,1.1279-4.7665l.0135.003,5.9604,1.3849.0231.0055a2.46158,2.46158,0,1,1-1.1143,4.7954Z" transform="translate(-185.78606 -124.9959)"/><path class="f47b878f-c0d9-4528-b9f2-85b779815de8" d="M762.0909,1028.9539l-5.9484-1.6183a2.38911,2.38911,0,0,1,1.24-4.6145l.0234.0065,5.9126,1.5713.0226.006a2.40725,2.40725,0,0,1-1.2365,4.653Z" transform="translate(-185.78606 -124.9959)"/><path class="f47b878f-c0d9-4528-b9f2-85b779815de8" d="M742.328,1023.3341l-5.8911-1.8113a2.32874,2.32874,0,0,1,1.355-4.456l.0228.0065,5.8576,1.7638.0221.0065a2.34714,2.34714,0,0,1-1.3532,4.495Z" transform="translate(-185.78606 -124.9959)"/><path class="f47b878f-c0d9-4528-b9f2-85b779815de8" d="M722.764,1017.0708l-5.8266-2.0043a2.26861,2.26861,0,0,1,1.4626-4.295l.0222.0075,5.7953,1.9553.0215.0075a2.28679,2.28679,0,0,1-1.4623,4.3335Z" transform="translate(-185.78606 -124.9959)"/><path class="f47b878f-c0d9-4528-b9f2-85b779815de8" d="M703.4126,1010.1611l-5.7553-2.1973a2.20856,2.20856,0,0,1,1.5625-4.1315l.0216.008,5.7264,2.1477.0209.008a2.2266,2.2266,0,1,1-1.5638,4.1696Z" transform="translate(-185.78606 -124.9959)"/><path class="f47b878f-c0d9-4528-b9f2-85b779815de8" d="M684.3055,1002.6074l-5.678-2.3902a2.14822,2.14822,0,0,1,1.6547-3.965l.0209.0085,5.6515,2.3397.0203.0085a2.16654,2.16654,0,1,1-1.6576,4.0035Z" transform="translate(-185.78606 -124.9959)"/><path class="f47b878f-c0d9-4528-b9f2-85b779815de8" d="M665.4751,994.4154l-5.5932-2.5822a2.0884,2.0884,0,0,1,1.7389-3.7976l.0203.0095,5.5689,2.5317.0197.009a2.10616,2.10616,0,1,1-1.7434,3.8346Z" transform="translate(-185.78606 -124.9959)"/><path class="f47b878f-c0d9-4528-b9f2-85b779815de8" d="M646.9351,985.5829l-5.502-2.7747a2.02794,2.02794,0,0,1,1.815-3.6271l.0196.0095,5.4802,2.7232.0191.0095a2.0463,2.0463,0,0,1-1.8211,3.6651Z" transform="translate(-185.78606 -124.9959)"/><path class="f47b878f-c0d9-4528-b9f2-85b779815de8" d="M628.7067,976.1105l-5.4035-2.9662a1.9679,1.9679,0,0,1,1.883-3.4561l.0188.0105,5.3843,2.9142.0184.01a1.986,1.986,0,0,1-1.8907,3.4931Z" transform="translate(-185.78606 -124.9959)"/><path class="f47b878f-c0d9-4528-b9f2-85b779815de8" d="M610.8263,965.9686l-5.2774-3.2001a1.90765,1.90765,0,0,1,1.9679-3.2686l.0252.015,5.2474,3.1396.0242.0145a1.92578,1.92578,0,0,1-1.9776,3.3051Z" transform="translate(-185.78606 -124.9959)"/><path class="f47b878f-c0d9-4528-b9f2-85b779815de8" d="M593.4307,954.9759l-5.0967-3.4916a1.84744,1.84744,0,0,1,2.0788-3.0546l.0294.02,5.0598,3.4226.0284.0195a1.86543,1.86543,0,1,1-2.0906,3.0901Z" transform="translate(-185.78606 -124.9959)"/><path class="f47b878f-c0d9-4528-b9f2-85b779815de8" d="M576.7107,942.9443l-4.8483-3.8401a1.78737,1.78737,0,0,1,2.2108-2.8091l.0334.0265,4.8054,3.7605.0324.025a1.80548,1.80548,0,1,1-2.2254,2.8437Z" transform="translate(-185.78606 -124.9959)"/><path class="f47b878f-c0d9-4528-b9f2-85b779815de8" d="M560.9184,929.6823l-4.508-4.2455a1.727,1.727,0,0,1,2.3604-2.5217l.0367.034,4.4607,4.152.0359.0335a1.74516,1.74516,0,1,1-2.3782,2.5547Z" transform="translate(-185.78606 -124.9959)"/><path class="f47b878f-c0d9-4528-b9f2-85b779815de8" d="M546.3942,915.008l-4.0457-4.6995a1.66675,1.66675,0,0,1,2.5195-2.1827l.0385.044,3.9975,4.589.0377.043a1.685,1.685,0,0,1-2.541,2.2137Z" transform="translate(-185.78606 -124.9959)"/><path class="f47b878f-c0d9-4528-b9f2-85b779815de8" d="M533.5815,898.7859l-3.4315-5.1744a1.60645,1.60645,0,0,1,2.6722-1.7838l.0371.055,3.3885,5.0449.0365.0545a1.62474,1.62474,0,1,1-2.6975,1.8118Z" transform="translate(-185.78606 -124.9959)"/><path class="f47b878f-c0d9-4528-b9f2-85b779815de8" d="M523.0111,881.0024l-2.6531-5.6199a1.54627,1.54627,0,0,1,2.7925-1.3288l.031.0645,2.6245,5.4759.0307.064a1.56451,1.56451,0,1,1-2.8217,1.3523Z" transform="translate(-185.78606 -124.9959)"/><path class="f47b878f-c0d9-4528-b9f2-85b779815de8" d="M515.2133,861.8211l-1.6989-5.9913a1.486,1.486,0,0,1,2.8567-.8194l.0225.0775,1.689,5.8263.0226.078a1.5042,1.5042,0,1,1-2.8895.8374Z" transform="translate(-185.78606 -124.9959)"/><path class="f47b878f-c0d9-4528-b9f2-85b779815de8" d="M510.8143,841.5759l-.6206-6.1853a1.42587,1.42587,0,0,1,2.8366-.2934l.0078.0735.6413,6.0343.0078.074a1.44415,1.44415,0,1,1-2.8721.3054Z" transform="translate(-185.78606 -124.9959)"/><path class="f47b878f-c0d9-4528-b9f2-85b779815de8" d="M509.9639,820.9043l.4143-6.1943a1.35892,1.35892,0,0,1,2.7125.17l-.0038.0655-.3564,6.0658-.0039.0665a1.38409,1.38409,0,0,1-2.7634-.1625Z" transform="translate(-185.78606 -124.9959)"/><path class="f47b878f-c0d9-4528-b9f2-85b779815de8" d="M512.475,800.3932l1.3591-6.0488a1.26493,1.26493,0,0,1,2.471.5424l-.012.0555-1.2796,5.9498-.0121.0565a1.29336,1.29336,0,0,1-2.5289-.5439Z" transform="translate(-185.78606 -124.9959)"/><path class="f47b878f-c0d9-4528-b9f2-85b779815de8" d="M518.0182,780.5099l2.2075-5.7858a1.17083,1.17083,0,0,1,2.1919.8239l-.0172.0465-2.1198,5.7134-.0175.047a1.19932,1.19932,0,0,1-2.2488-.8345Z" transform="translate(-185.78606 -124.9959)"/><path class="f47b878f-c0d9-4528-b9f2-85b779815de8" d="M526.2882,761.6191l2.9724-5.4269a1.07681,1.07681,0,0,1,1.8938,1.0254l-.0208.039-2.8807,5.3764-.0211.039a1.10521,1.10521,0,1,1-1.9484-1.0439Z" transform="translate(-185.78606 -124.9959)"/><path class="f47b878f-c0d9-4528-b9f2-85b779815de8" d="M537.0223,744.0296l3.6667-4.9789a.98275.98275,0,0,1,1.5882,1.1579l-.0234.0325-3.574,4.9474-.0237.033a1.0112,1.0112,0,0,1-1.6393-1.1844Z" transform="translate(-185.78606 -124.9959)"/><path class="f47b878f-c0d9-4528-b9f2-85b779815de8" d="M549.9996,728.0395l4.301-4.4385a.88871.88871,0,0,1,1.2823,1.2308l-.0255.0265-4.209,4.424-.0259.0275a.91708.91708,0,0,1-1.3288-1.2643Z" transform="translate(-185.78606 -124.9959)"/><path class="f47b878f-c0d9-4528-b9f2-85b779815de8" d="M565.0239,713.9691l4.8796-3.7961a.79471.79471,0,0,1,.9818,1.2499l-.0273.0215-4.79,3.797-.0276.022a.823.823,0,1,1-1.0225-1.2898Z" transform="translate(-185.78606 -124.9959)"/><path class="f47b878f-c0d9-4528-b9f2-85b779815de8" d="M581.8864,702.1844l5.3731-3.0261a.70028.70028,0,0,1,.6933,1.2169l-.0282.0165-5.2883,3.0426-.0288.017a.72882.72882,0,0,1-.727-1.2634Z" transform="translate(-185.78606 -124.9959)"/><path class="f47b878f-c0d9-4528-b9f2-85b779815de8" d="M600.3255,693.087l5.7858-2.1433a.60649.60649,0,0,1,.4268,1.1354l-.0281.0105-5.7091,2.1748-.029.011a.63478.63478,0,0,1-.4519-1.1864Z" transform="translate(-185.78606 -124.9959)"/><path class="f47b878f-c0d9-4528-b9f2-85b779815de8" d="M619.962,687.0322l6.0418-1.2269a.51222.51222,0,0,1,.2089,1.0029l-.0224.005-5.9848,1.2729-.0234.005a.54054.54054,0,1,1-.225-1.0574Z" transform="translate(-185.78606 -124.9959)"/><path class="f47b878f-c0d9-4528-b9f2-85b779815de8" d="M640.2648,683.975l6.1515-.3474a.41824.41824,0,0,1,.0513.8349l-.0178.001-6.1117.4014-.0188.0015a.44666.44666,0,0,1-.0585-.8914Z" transform="translate(-185.78606 -124.9959)"/><path class="f47b878f-c0d9-4528-b9f2-85b779815de8" d="M660.7817,683.8076l6.1368.4904a.32411.32411,0,0,1-.0485.6464l-.0129-.001-6.1144-.4319-.014-.001a.35258.35258,0,0,1,.0497-.7034Z" transform="translate(-185.78606 -124.9959)"/><path class="f47b878f-c0d9-4528-b9f2-85b779815de8" d="M681.1284,686.3698l6.0195,1.2718a.22965.22965,0,0,1,.1775.2725.2383.2383,0,0,1-.279.1765l-6.0129-1.2129a.25856.25856,0,0,1,.0831-.5104Z" transform="translate(-185.78606 -124.9959)"/><path class="f47b878f-c0d9-4528-b9f2-85b779815de8" d="M700.9799,691.4667l5.8165,1.9937a.13567.13567,0,0,1,.0845.1725.14044.14044,0,0,1-.1761.0835l-5.8244-1.9368a.16433.16433,0,1,1,.0924-.3154Z" transform="translate(-185.78606 -124.9959)"/><path class="f47b878f-c0d9-4528-b9f2-85b779815de8" d="M720.0659,698.9043l5.5378,2.6597a.042.042,0,0,1,.0196.056.0427.0427,0,0,1-.0569.019l-5.5584-2.6067a.07014.07014,0,0,1,.0551-.129Z" transform="translate(-185.78606 -124.9959)"/><path class="a3a58936-427a-4b52-8027-5bbbc675285d" d="M1960.20759,582.4369H1794.9313a26.91721,26.91721,0,0,0-26.9173,26.9174v42.4101a26.9176,26.9176,0,0,0,26.9173,26.9174h51.0444a3.24812,3.24812,0,0,1,2.9617,1.9139l21.1497,46.9515a2.91654,2.91654,0,0,0,5.23.1794l25.35949-47.331a3.24887,3.24887,0,0,1,2.863-1.7138h56.668a26.9176,26.9176,0,0,0,26.9173-26.9174V609.3543A26.91721,26.91721,0,0,0,1960.20759,582.4369Z" transform="translate(-185.78606 -124.9959)"/><path class="f47b878f-c0d9-4528-b9f2-85b779815de8" d="M1825.9199,613.326c-5.0713-4.9847-12.9808-3.4851-18.4262,1.0863a2.12084,2.12084,0,0,1-2.703.0211c-5.5181-4.4752-13.419-5.8376-18.4033-.7671a13.97749,13.97749,0,0,0,.1704,19.7665l18.4211,18.1067a2.12516,2.12516,0,0,0,3.0048-.026l18.1066-18.4211A13.97755,13.97755,0,0,0,1825.9199,613.326Z" transform="translate(-185.78606 -124.9959)"/><path class="f47b878f-c0d9-4528-b9f2-85b779815de8" d="M1861.0933,612.5845h-.1599l-9.553,4.8163-1.6857-7.4651,12.6844-6.2612h8.2671v52.177h-9.5529Z" transform="translate(-185.78606 -124.9959)"/><path class="f47b878f-c0d9-4528-b9f2-85b779815de8" d="M1888.6182,655.8515v-6.0204l6.1811-5.6994c12.2827-11.3986,18.06209-17.6599,18.142-24.5631,0-4.6554-2.4876-8.7499-9.311-8.7499-4.57529,0-8.50879,2.3277-11.15869,4.3345l-2.8896-6.9833a25.82537,25.82537,0,0,1,16.05409-5.3784c11.5588,0,17.1781,7.3052,17.1781,15.8142,0,9.1509-6.5813,16.5351-15.6521,24.9641l-4.5755,3.9336v.1599h21.4315v8.1882Z" transform="translate(-185.78606 -124.9959)"/><path class="f47b878f-c0d9-4528-b9f2-85b779815de8" d="M1964.78739,611.8624h-20.0676l-1.524,10.4348a26.37954,26.37954,0,0,1,3.7716-.24,23.25963,23.25963,0,0,1,12.68261,3.3707c3.93359,2.4888,6.82319,6.9042,6.82319,13.2455,0,9.9538-8.267,18.0609-21.1115,18.0609a30.02,30.02,0,0,1-13.8064-3.0506l2.0076-7.4651a26.40566,26.40566,0,0,0,11.4788,2.7297c5.7794,0,11.3186-3.2916,11.3186-9.553,0-5.9394-4.4154-9.8729-14.8502-9.8729a45.47568,45.47568,0,0,0-7.1453.481l3.4518-26.3289h26.9708Z" transform="translate(-185.78606 -124.9959)"/><path class="b584d481-de51-4b03-b827-a81acad964ad" d="M1962.55389,832.4792s-30.9747,29.4309-41.2135,81.6489-34.556-73.766-34.556-73.766h-24.5732s-9.2694,129.8176,60.1058,140.1424a37.26733,37.26733,0,0,0,34.76739-13.7955c12.6672-16.0867,32.4335-44.7187,37.20761-71.9997C1990.19649,851.7063,1962.55389,832.4792,1962.55389,832.4792Z" transform="translate(-185.78606 -124.9959)"/><path class="bc79ab61-2e22-4e6c-9de1-ddd34ca7e18a" d="M2119.938,1433.8358a4.43942,4.43942,0,0,0-.11831-1.1658c-5.811-23.0389-29.5724-34.848-29.5724-34.848l-11.4294.8957c-6.5711,20.3062-10.8085,30.2197-9.7533,35.7667.0293.1554.07641.3032.1177.4538A271.197,271.197,0,0,0,2119.938,1433.8358Z" transform="translate(-185.78606 -124.9959)"/><path class="a28725fe-b08c-4bc0-af36-1e5db8919ff8" d="M2069.18229,1434.9382a4.9563,4.9563,0,0,0,3.627,3.6628c13.4119,2.8206,34.7283.5504,43.678-.6197a4.15957,4.15957,0,0,0,3.45071-4.1455A271.197,271.197,0,0,1,2069.18229,1434.9382Z" transform="translate(-185.78606 -124.9959)"/><path class="f6388b81-819a-42cd-ab9d-6b56d54e7ffa" d="M2099.65859,1380.0357l-5.0043,24.0901a3.93878,3.93878,0,0,1-3.3661,3.2415,33.41,33.41,0,0,1-7.7525-.1235,4.9512,4.9512,0,0,1-3.9216-5.8181l3.4783-21.39Z" transform="translate(-185.78606 -124.9959)"/><path class="f415f424-1f96-4c49-b689-892c2ff9c65d" d="M1972.06949,1434.7387c12.2069-.3418,18.5204-1.7797,21.7847-3.1134.0072,1.2135.0006,2.4489-.0387,3.7286a2.41,2.41,0,0,1-2.3002,2.4507l-67.0219-.4325c-2.1393-.0141-3.3893-2.4944-2.4625-4.4559C1930.81869,1433.6423,1953.20019,1435.2666,1972.06949,1434.7387Z" transform="translate(-185.78606 -124.9959)"/><path class="f63fec53-a8a0-447a-bb77-256fb70ea56e" d="M1922.03089,1432.9162a3.12031,3.12031,0,0,1,.2654-.5054c5.9189-8.2703,20.9943-24.7395,50.7836-31.8825l14.2905-.4509s6.36361,11.0602,6.4838,31.5479c-3.2643,1.3337-9.5778,2.7716-21.7847,3.1134C1953.20019,1435.2666,1930.81869,1433.6423,1922.03089,1432.9162Z" transform="translate(-185.78606 -124.9959)"/><path class="bcccaf60-0d85-468a-9ec3-c0e9f7d00c82" d="M1990.02079,1378.4203c-.1591,1.0646-2.11779,17.2546-2.8761,23.5318a3.10933,3.10933,0,0,1-2.623,2.8086,32.7212,32.7212,0,0,1-9.8159-.151,4.22722,4.22722,0,0,1-3.2037-4.2421V1374.954Z" transform="translate(-185.78606 -124.9959)"/><path class="b0ccc30f-2e2f-48d0-8866-b04cdbb97310" d="M2090.10909,1063.6981s22.868,203.2695,10.1634,330.3126c0,0-15.245,0-22.8676-2.5413,0,0-23.76289-198.7446-31.4508-255.6165a1.912,1.912,0,0,0-3.77109-.119c-9.48451,47.8462-46.73791,235.4758-51.16721,253.1949,0,0-12.7047,5.0819-22.8682,0,0,0,20.3269-271.8723,35.5719-320.149Z" transform="translate(-185.78606 -124.9959)"/><path class="a462903a-303f-4752-ad6c-51de9e2308b2" d="M2135.84489,827.3975s-96.5532-15.2452-172.779,5.0817l5.0817,78.7671s20.3269,109.2568,35.5719,157.5335c0,0,58.44,10.1635,86.3896-5.0817,0,0,22.868-137.2068,35.5721-157.534C2125.68119,906.1641,2138.38589,852.8061,2135.84489,827.3975Z" transform="translate(-185.78606 -124.9959)"/><path class="a1fd15e0-9c3d-4f28-a628-a8ddc23ec3f4" d="M2068.77069,757.9692l9.6182,65.0463s-26.8722,12.3443-45.6891-.5298l4.0514-45.9056Z" transform="translate(-185.78606 -124.9959)"/><path class="b201f771-62b1-40a1-ad23-e674e6933ff8" d="M2135.84489,827.3975s149.9109,162.6154-26.6796,224.8667v-12.7044s66.0632-55.8992,15.24571-132.1248C2124.411,907.435,2130.76289,835.0201,2135.84489,827.3975Z" transform="translate(-185.78606 -124.9959)"/><path class="e18a8d4d-6a93-4e8a-9263-1c8af1e79003" d="M2107.89509,1040.8305s-22.8676-15.2452-33.0312-10.1637c-10.1637,5.0817-10.1637,12.7043-10.1637,12.7043s5.0821,10.1635,12.7047,7.6222c7.6226-2.5402,25.4085,2.5413,33.03111,0C2110.436,1050.9933,2112.97709,1040.8305,2107.89509,1040.8305Z" transform="translate(-185.78606 -124.9959)"/><path class="a52edae7-89fe-44fd-97c0-4a4a3f08b212" d="M2011.935,723.8543c-.20131.6655,1.09509,37.5372,1.91929,60.3562a15.77874,15.77874,0,0,0,18.1481,15.0273l8.5409-1.2993a30.73927,30.73927,0,0,0,26.0648-32.1777l-2.3967-41.1433S2016.82069,707.7044,2011.935,723.8543Z" transform="translate(-185.78606 -124.9959)"/><path class="fa5d38fc-8add-4718-9c98-17cb2107636a" d="M2073.326,722.7768c2.37619-4.7113,3.80919-11.8144-4.53541-17.1841-8.4479-5.4362-15.99-2.0242-20.5123,1.3675a5.67554,5.67554,0,0,1-6.8148.0983,3.61243,3.61243,0,0,0-3.552-.5191,5.30671,5.30671,0,0,1-6.8289-3.2621c-1.6593-4.8702-5.5755-10.1864-14.7742-10.009-16.8718.3233-21.4975,18.2632-18.778,29.5994,2.7188,11.336,20.991,9.9456,30.6643,5.9049,7.1055-2.9678,14.893,2.1717,18.5257,5.1098a5.473,5.473,0,0,1,2.0373,4.3671l-.2134,11.5569c2.504,3.0444,4.9911,6.1689,8.1059,8.5583a11.117,11.117,0,0,0,6.6487,2.5079c1.8227-6.2678,10.0689-9.0231,13.9688-9.9866a5.49575,5.49575,0,0,0,3.50031-2.6738c2.23779-4.0291,5.25819-12.5986-5.20461-18.1493A5.47148,5.47148,0,0,1,2073.326,722.7768Z" transform="translate(-185.78606 -124.9959)"/><path class="e5da38a0-9db4-41ec-a9db-2d49ab43b910" d="M2062.89079,773.2836s-3.8902-19.9564,3.7584-23.5396c7.6486-3.5836,17.5709.3829,13.227,13.7542C2074.47269,780.1301,2062.89079,773.2836,2062.89079,773.2836Z" transform="translate(-185.78606 -124.9959)"/><path class="f628b3ee-de54-487f-a7f1-897b1daaf3ee" d="M2001.89359,723.1435a.76838.76838,0,0,1-.696-.4429c-6.0293-12.9095,8.0081-23.1933,8.1511-23.2963a.76765.76765,0,0,1,.8959,1.2468c-.132.096-13.1435,9.6489-7.6551,21.3996a.7678.7678,0,0,1-.6959,1.0928Z" transform="translate(-185.78606 -124.9959)"/><path class="e5bec9ef-0fc0-4819-b07b-c1495f3dde0c" d="M1860.6967,758.1202l32.2582,10.8676c3.9059,1.1726,6.59749,5.1182,6.90919,10.1295l-1.67509,53.8319c.524,8.4228-6.4277,15.8468-12.9935,13.8754l-25.8618-8.8117c-2.5169-.7559-4.1893-3.3987-4.2168-6.6655l-.5697-67.0248C1854.5145,760.4501,1857.7127,757.2241,1860.6967,758.1202Z" transform="translate(-185.78606 -124.9959)"/><path class="b4ce659e-c67e-4e11-8016-ea04f9253f33" d="M1854.5468,827.3975s-10.096-32.3459-4.9635-37.795c5.1325-5.4493,15.3582-20.4777,16.0409-8.1911C1866.3067,793.698,1872.4797,846.7628,1854.5468,827.3975Z" transform="translate(-185.78606 -124.9959)"/></g></svg>