<svg id="b8e28ca4-aede-471f-89ca-30b132c0fe0b" data-name="Layer 1" xmlns="http://www.w3.org/2000/svg" xmlns:xlink="http://www.w3.org/1999/xlink" viewBox="0 0 1977.05684 944.24273"><defs><radialGradient id="e5af81ca-56fc-4501-92bb-5aca18facabc" cx="-16.32048" cy="1089.30931" r="0.5" gradientTransform="matrix(36.652, 0, 0, -36.652, 1633.624, 40351.51046)" gradientUnits="userSpaceOnUse"><stop offset="0.086" stop-color="#3967b1"/><stop offset="0.126" stop-color="#262e67"/><stop offset="0.159" stop-color="#1f2656"/><stop offset="0.223" stop-color="#0e183b"/><stop offset="0.297" stop-color="#0f1426"/><stop offset="0.381" stop-color="#0c0f17"/><stop offset="0.485" stop-color="#06070a"/><stop offset="0.628" stop-color="#010102"/><stop offset="1"/></radialGradient><mask id="b3c799fd-ea74-4c30-a1cc-5f1edd6d7536" x="573.27582" y="53.88971" width="1403.78102" height="890.35303" maskUnits="userSpaceOnUse"><g transform="translate(143.21505 -60.35635)"><circle id="a8ae83c7-5442-44f1-afc1-2dbe44fedde9" data-name="Ellipse 42" cx="1035.44577" cy="426.14506" r="18.326" fill="url(#e5af81ca-56fc-4501-92bb-5aca18facabc)"/></g></mask><radialGradient id="f99e95b0-c010-4f70-96e1-52994f6a1201" cx="0.83872" cy="1080.91039" r="1.003" gradientTransform="matrix(818.2074, 0, 0, -818.67499, 517.886, 885424.7868)" gradientUnits="userSpaceOnUse"><stop offset="0" stop-color="#353985"/><stop offset="0.047" stop-color="#372d79"/><stop offset="0.125" stop-color="#3b2669"/><stop offset="0.204" stop-color="#3d2060"/><stop offset="0.288" stop-color="#3d1e5e"/><stop offset="0.315" stop-color="#382163"/><stop offset="0.383" stop-color="#2e266c"/><stop offset="0.455" stop-color="#2c286f"/><stop offset="0.484" stop-color="#302569"/><stop offset="0.558" stop-color="#3a2060"/><stop offset="0.636" stop-color="#3d1e5e"/><stop offset="0.772" stop-color="#230b35"/><stop offset="0.922" stop-color="#0f0a13"/><stop offset="1"/></radialGradient><radialGradient id="a47091db-75db-4280-b77c-91f2cdda77ba" cx="0.57626" cy="1080.61558" r="0.662" gradientTransform="matrix(803.64404, 0, 0, -804.01605, 607.33395, 869664.81444)" gradientUnits="userSpaceOnUse"><stop offset="0" stop-color="#3d1e5e"/><stop offset="0.092" stop-color="#331650"/><stop offset="0.352" stop-color="#1f0e2c"/><stop offset="0.598" stop-color="#120c17"/><stop offset="0.821" stop-color="#070508"/><stop offset="1"/></radialGradient><radialGradient id="fa1efd63-6201-4dc2-b94a-d95005ff466c" cx="-11.12235" cy="1086.73969" r="0.5" gradientTransform="matrix(51.746, 0, 0, -51.746, 2121.01202, 57037.09091)" gradientUnits="userSpaceOnUse"><stop offset="0.086" stop-color="#18b0d3"/><stop offset="0.098" stop-color="#1a88b4"/><stop offset="0.126" stop-color="#262e67"/><stop offset="0.159" stop-color="#1f2656"/><stop offset="0.223" stop-color="#0e183b"/><stop offset="0.297" stop-color="#0f1426"/><stop offset="0.381" stop-color="#0c0f17"/><stop offset="0.485" stop-color="#06070a"/><stop offset="0.628" stop-color="#010102"/><stop offset="1"/></radialGradient><radialGradient id="b67a0958-8393-448f-a6b3-68328f272cde" cx="-11.12235" cy="1086.73969" r="0.5" gradientTransform="matrix(51.746, 0, 0, -51.746, 1825.7901, 56822.47989)" xlink:href="#fa1efd63-6201-4dc2-b94a-d95005ff466c"/><radialGradient id="bc67808f-7f67-4f0e-98ef-76d458ec98db" cx="-11.12235" cy="1086.73969" r="0.5" gradientTransform="matrix(51.746, 0, 0, -51.746, 2204.93402, 56731.66488)" xlink:href="#fa1efd63-6201-4dc2-b94a-d95005ff466c"/><radialGradient id="bdd5f56a-6c5e-4ca7-8d70-6b0735116218" cx="-11.12235" cy="1086.73969" r="0.5" gradientTransform="matrix(51.746, 0, 0, -51.746, 2044.46905, 57081.28293)" xlink:href="#fa1efd63-6201-4dc2-b94a-d95005ff466c"/><radialGradient id="ecbb413c-ee10-4de8-ad25-8891549210df" cx="-11.12452" cy="1086.73541" r="0.49951" gradientTransform="matrix(51.74464, 0.01993, 0.01993, -51.74464, 2176.84994, 56991.03107)" xlink:href="#fa1efd63-6201-4dc2-b94a-d95005ff466c"/><radialGradient id="b2b8b178-7213-432f-9680-67b016623506" cx="-11.12235" cy="1086.73969" r="0.5" gradientTransform="matrix(51.746, 0, 0, -51.746, 2262.065, 56852.59091)" xlink:href="#fa1efd63-6201-4dc2-b94a-d95005ff466c"/><radialGradient id="aa909348-3a03-4c23-a612-233ead4f576c" cx="-16.32048" cy="1089.30931" r="0.5" gradientTransform="matrix(36.652, 0, 0, -36.652, 1646.86603, 40705.81713)" xlink:href="#e5af81ca-56fc-4501-92bb-5aca18facabc"/><radialGradient id="a061b688-ba0b-48e7-87c3-d7cb64afd78a" cx="-16.32048" cy="1089.30931" r="0.5" gradientTransform="matrix(36.652, 0, 0, -36.652, 2293.13703, 40769.86712)" xlink:href="#e5af81ca-56fc-4501-92bb-5aca18facabc"/><radialGradient id="abb8e096-84bf-4dda-b80f-c1253656cea3" cx="-16.32048" cy="1089.30931" r="0.5" gradientTransform="matrix(36.652, 0, 0, -36.652, 2389.04303, 40559.72808)" xlink:href="#e5af81ca-56fc-4501-92bb-5aca18facabc"/><radialGradient id="a6380d4b-856b-4ec8-b9f9-4b8f059b6268" cx="-16.32048" cy="1089.30931" r="0.5" gradientTransform="matrix(36.652, 0, 0, -36.652, 1990.758, 40815.0711)" xlink:href="#e5af81ca-56fc-4501-92bb-5aca18facabc"/><radialGradient id="b0af0a5b-318a-47ee-bf52-3bf8fc78eb55" cx="-16.32048" cy="1089.30931" r="0.5" gradientTransform="matrix(36.652, 0, 0, -36.652, 1743.96808, 40496.80914)" xlink:href="#e5af81ca-56fc-4501-92bb-5aca18facabc"/><radialGradient id="f21cc686-d7bc-4e15-a979-e8d1a80ece29" cx="-16.32048" cy="1089.30931" r="0.5" gradientTransform="matrix(36.652, 0, 0, -36.652, 2313.29511, 40603.71111)" xlink:href="#e5af81ca-56fc-4501-92bb-5aca18facabc"/><radialGradient id="ed04c6ee-7173-4cc6-932f-eacb5e02612b" cx="-16.32048" cy="1089.30931" r="0.5" gradientTransform="matrix(36.652, 0, 0, -36.652, 2409.20099, 40395.40508)" xlink:href="#e5af81ca-56fc-4501-92bb-5aca18facabc"/><radialGradient id="b2019bd1-63fc-41c1-bb1d-75a1b82375e2" cx="-16.32048" cy="1089.30931" r="0.5" gradientTransform="matrix(36.652, 0, 0, -36.652, 1696.05902, 40601.08514)" xlink:href="#e5af81ca-56fc-4501-92bb-5aca18facabc"/><radialGradient id="e8dfc9eb-d8e4-44b5-9ae6-fd55e04a891a" cx="-16.32048" cy="1089.30931" r="0.5" gradientTransform="matrix(36.652, 0, 0, -36.652, 2370.27802, 40725.78112)" xlink:href="#e5af81ca-56fc-4501-92bb-5aca18facabc"/><radialGradient id="b6a8879e-ffe0-4c2c-8e8e-8612922a5bf2" cx="-16.32048" cy="1089.30931" r="0.5" gradientTransform="matrix(36.652, 0, 0, -36.652, 1731.84503, 40401.34509)" xlink:href="#e5af81ca-56fc-4501-92bb-5aca18facabc"/><radialGradient id="a9f7d920-129f-4c22-b0f9-c03aa9e94a11" cx="0.80826" cy="1080.82258" r="0.662" gradientTransform="matrix(803.64404, 0, 0, -804.01605, 607.33395, 869664.81444)" gradientUnits="userSpaceOnUse"><stop offset="0.015" stop-color="#6dcace"/><stop offset="0.03" stop-color="#66c8cd"/><stop offset="0.048" stop-color="#55c5cf"/><stop offset="0.07" stop-color="#3cb6cd"/><stop offset="0.093" stop-color="#3b90c0"/><stop offset="0.117" stop-color="#3961ad"/><stop offset="0.121" stop-color="#3a5aa9"/><stop offset="0.133" stop-color="#386ab2"/><stop offset="0.18" stop-color="#3eadca"/><stop offset="0.215" stop-color="#5cc6cf"/><stop offset="0.232" stop-color="#6dcace"/><stop offset="0.255" stop-color="#56c4c5"/><stop offset="0.302" stop-color="#2aa0a1"/><stop offset="0.354" stop-color="#1c6269"/><stop offset="0.356" stop-color="#1c6c71"/><stop offset="0.364" stop-color="#278d8f"/><stop offset="0.373" stop-color="#2fa9a9"/><stop offset="0.383" stop-color="#3abfbc"/><stop offset="0.394" stop-color="#54c4c4"/><stop offset="0.408" stop-color="#61c7c9"/><stop offset="0.426" stop-color="#6ac9ce"/><stop offset="0.47" stop-color="#6dcace"/><stop offset="0.471" stop-color="#65c8cb"/><stop offset="0.479" stop-color="#33b7b2"/><stop offset="0.488" stop-color="#2a9290"/><stop offset="0.497" stop-color="#227372"/><stop offset="0.507" stop-color="#1a5a5b"/><stop offset="0.518" stop-color="#154648"/><stop offset="0.531" stop-color="#0f383a"/><stop offset="0.547" stop-color="#0d3033"/><stop offset="0.576" stop-color="#0d2e31"/><stop offset="0.581" stop-color="#104446"/><stop offset="0.591" stop-color="#136968"/><stop offset="0.601" stop-color="#158784"/><stop offset="0.612" stop-color="#189f9a"/><stop offset="0.623" stop-color="#12afa9"/><stop offset="0.636" stop-color="#18b8b2"/><stop offset="0.652" stop-color="#24bcb5"/><stop offset="0.818" stop-color="#060a0b"/><stop offset="1"/></radialGradient></defs><g mask="url(#b3c799fd-ea74-4c30-a1cc-5f1edd6d7536)"><path id="a0707919-76b6-4891-8940-2a93cdd99823" data-name="Path 863" d="M1754.01981,843.56205l-47.313,7.241-44.014-25.411,15.85-34.53,29.884-4.572,29.845-4.569,15.748,9.092v-1.077l-14.786-8.535,14.786-32.207v-3.478l-43.265-24.98,7.91-17.229,7.921-17.254,27.43506-4.2v-.771l-27.75305,4.246-43.984-25.394,15.85-34.53,29.884-4.572,26-3.98v-.751l-26.329,4.029-29.845,4.566-43.9-25.342,15.833-34.483,59.806-9.152,24.431,14.105v-1.07795l-23.526-13.584,15.83-34.483,7.69995-1.177v-.88l-8.162,1.248-43.83606-25.309,15.85-34.53,29.884-4.572,6.264-.96v-.749l-6.593,1.009-29.843,4.566-43.89111-25.339,15.83-34.486,59.806-9.152,4.693,2.71v-1.078l-3.788-2.186,3.788-8.25v-3.242l-5.15894,11.244-59.806,9.149-43.838-25.309,15.85205-34.53,29.884-4.572,29.922-4.578,33.145,19.135v-1.023l-32.259-18.625,16.047-34.955-45.012-25.992-60.546,9.265-43.835-25.309,16.0459-34.956-45.012-25.989-60.546,9.265-43.88806-25.339,16.04394-34.955-45.01184-25.982-61.246,9.368-16.03308,34.932-60.505,9.259-16.039,34.933-60.505,9.259-16.036,34.933-60.505,9.259-16.039,34.933-60.505,9.259-16.033,34.933-60.505,9.259-16.039,34.933-60.505,9.259-16.036,34.933-60.51495,9.26-16.036,34.933-60.502,9.255-16.036,34.933-60.508,9.267-16.036,34.933-60.505,9.259-16.037,34.92908-60.508,9.259-16.032,34.933-60.505,9.259-16.235,35.358,44.5,25.693-16.047,34.955,45.012,25.989,60.546-9.267,43.89,25.342-16.053,34.95807,45.012,25.989,60.546-9.267,43.834,25.305-16.05,34.958,45.012,25.986,60.546-9.265,21.244,12.265h1.769l-22.121-12.77105,15.85-34.53,59.808-9.152,43.835,25.309-14.3,31.148h1.336l14.215-30.964,29.884-4.572,29.845-4.567,43.9,25.342-6.777,14.761h1.487l6.662-14.509,59.806-9.152,40.983,23.661h1.866l-41.95-24.221,15.831-34.483,59.808-9.152,43.836,25.309-15.852,34.53-29.884,4.572-22.5,3.442h4.9l17.92-2.74,29.843-4.569,12.66,7.309h1.87l-13.565-7.83,15.85-34.53,29.884-4.575,29.845-4.566,44.04394,25.43-7.913,17.229-4.059,8.842h1.3l3.974-8.653,7.921-17.251,59.806-9.152,43.984,25.394-4.43506,9.662h1.33606l4.353-9.479,29.884-4.572,29.845-4.569,32.248,18.62h1.87l-33.156-19.141,15.85-34.53,29.884-4.575,29.845-4.567,44.04395,25.43-15.84094,34.505-18.80005,2.877h4.9l14.923-2.282,16.036-34.933,60.50805-9.259,16.036-34.933,47.025-7.2Zm-92.58-18.354-29.884,4.572-29.842,4.566-44.04394-25.427,7.91-17.232,7.9209-17.25,59.806-9.152,43.986,25.394Zm-460.88111-221.384-15.849,34.522-29.884,4.575-29.845,4.566-43.89307-25.341,15.83-34.486,59.806-9.149Zm-42.93-25.866,15.83-34.486,59.806-9.149,43.83593,25.309-15.85,34.527-29.886,4.575-29.843,4.566Zm44.184,26.047,29.884-4.572,29.845-4.566,43.893,25.342-15.83,34.483-59.809,9.154-43.835-25.309Zm104.993,16.456,59.806-9.152,43.838,25.309-15.849,34.528-29.884,4.575-29.842,4.567-43.9-25.342Zm59.34-9.958-59.806,9.149-43.839-25.306,15.85-34.53,29.884-4.572,29.845-4.567,43.9,25.342Zm-28.351-60.535-29.8841,4.578-29.845,4.566-43.9-25.342,15.835-34.49,59.806-9.152,43.838,25.312Zm-27.08106-60.393,15.83106-34.486,59.806-9.149,43.838,25.309-15.852,34.53-29.884,4.572-29.845,4.566Zm75.173-44.444-59.809,9.152-43.835-25.309,15.852-34.53,29.881-4.572,29.845-4.569,43.9,25.345Zm-60.714,9.706-15.83,34.486-59.806,9.152-43.836-25.31,15.852-34.53,29.884-4.575,29.845-4.566Zm-76.541,44.192-15.831,34.484-59.809,9.152-43.835-25.309,15.85-34.53,29.886-4.575,29.843-4.567Zm-76.544,44.192-15.83,34.486-59.806,9.152-43.838-25.313,15.852-34.53,29.884-4.575,29.845-4.566Zm-76.541,44.192-15.83,34.486-59.809,9.147-43.835-25.309,15.85-34.53,29.878-4.571,29.845-4.567Zm-76.546,44.191-15.83,34.486-59.805,9.156-43.838-25.309,15.852-34.53,29.884-4.575,29.845-4.566Zm-76.54,44.192-15.83,34.486-59.809,9.149-43.835-25.309,15.85-34.527,29.886-4.575,29.843-4.566Zm1.371.252,59.806-9.149,43.836,25.309-15.85,34.527-29.884,4.575-29.845,4.566-43.894-25.342Zm60.711-9.706,15.831-34.486,59.809-9.152,43.835,25.312-15.85205,34.53-29.884,4.575-29.843,4.567Zm120.725-18.145,29.886-4.572,29.843-4.566,43.9,25.342-15.833,34.483-59.806,9.152-43.83893-25.31Zm105,16.456,59.806-9.152,43.835,25.309-15.85,34.53-29.884,4.572-29.845,4.569-43.893-25.342Zm104.895,16.341,29.884-4.572,29.845-4.567,43.89294,25.342-15.83105,34.483-59.808,9.152-43.83606-25.309Zm60.692-9.662,15.85-34.53,29.884-4.572,29.845-4.566,43.9,25.342-15.833,34.483-59.806,9.152Zm75.291-44.376-29.884,4.575-29.845,4.566-43.89294-25.342,15.83-34.486,59.806-9.152,43.835,25.309Zm-28.452-60.648-59.806,9.152-43.84192-25.314,15.852-34.53,29.884-4.572,29.845-4.566,43.89294,25.342Zm-27.1-60.349,15.85-34.527,29.884-4.575,29.845-4.567,43.89294,25.342-15.83105,34.483-59.806,9.152Zm75.291-44.373-29.884,4.572-29.845,4.566-43.89295-25.342,15.83106-34.486,59.806-9.149,43.838,25.309Zm-28.452-60.648-59.806,9.152-43.838-25.309,15.852-34.53,29.884-4.575,29.845-4.567,43.89294,25.342Zm-28.353-60.533-29.884,4.572-29.85,4.569-43.945-25.375,15.83-34.483,59.806-9.152,43.89,25.339Zm-60.692,9.662-15.85,34.53-29.884,4.572-29.845,4.566-43.948-25.372,15.83-34.483,59.809-9.152Zm-76.541,44.192-15.852,34.53-29.894,4.572-29.845,4.567-43.945-25.372,15.83-34.486,59.806-9.149Zm-76.546,44.192-15.852,34.53-29.884,4.572-29.845,4.566-43.949-25.373,15.83-34.483,59.809-9.155Zm-76.544,44.195-15.856,34.527-29.88,4.573-29.843,4.566-43.948-25.372,15.83-34.486,59.806-9.149Zm-76.544,44.192-15.85,34.53-29.884,4.572-29.845,4.566-43.948-25.372,15.83-34.483,59.809-9.152Zm-76.542,44.189-15.852,34.53-29.884,4.572-29.843,4.566-43.948-25.372,15.83-34.483,59.806-9.155Zm-76.544,44.192-15.85,34.53-29.884,4.572-29.845,4.566-43.947-25.372,15.83-34.486,59.809-9.149Zm-76.541,44.192-15.852,34.527-29.884,4.575-29.843,4.567-43.948-25.372,15.831-34.486,59.806-9.149Zm-75.291,44.373,29.884-4.572,29.845-4.567,43.893,25.342-15.83,34.483-59.806,9.152-43.838-25.306Zm104.993,16.456,59.809-9.152,43.835,25.309-15.852,34.53-29.879,4.57392-29.843,4.567-43.9-25.342Zm104.895,16.341,29.886-4.572,29.843-4.566,43.9,25.342-15.831,34.483-59.809,9.152-43.835-25.309Zm60.692-9.662,15.852-34.53,29.884-4.572,29.845-4.567,43.893,25.342-15.83,34.483-59.806,9.152Zm120.846-18.07306,59.809-9.152,43.835,25.309-15.852,34.53-29.884,4.572-29.843,4.569-43.9-25.345Zm104.895,16.341,29.885-4.574,29.845-4.566,43.89294,25.342-15.828,34.483-59.809,9.152-43.835-25.309Zm104.993,16.456,59.809-9.152,43.835,25.309-15.85,34.53-29.884,4.572-29.845,4.567-43.9-25.342Zm60.714-9.709,15.83106-34.483,59.806-9.152,43.84094,25.30695-15.852,34.53-29.884,4.572-29.843,4.566Zm120.725-18.142,29.884-4.575,29.845-4.564,44.04395,25.427-7.91,17.229-7.923,17.254-59.806,9.152-43.981-25.39594Zm59.441-9.846-29.884,4.572-29.845,4.566-43.9-25.342,15.833-34.483,59.808-9.154,43.83594,25.309Zm-28.452-60.648-59.806,9.14808-43.838-25.309,15.852-34.53,29.884-4.572,29.845-4.566,43.89295,25.342Zm-28.353-60.533-29.884,4.572-29.845,4.569-43.893-25.342,15.83-34.486,59.806-9.152,43.838,25.309Zm-27.083-60.39492,15.83-34.486,59.806-9.152,43.835,25.309-15.85,34.53-29.884,4.575-29.83691,4.566Zm75.17-44.444-59.806,9.149-43.834-25.309,15.853-34.527,29.884-4.575,29.845-4.566,43.89294,25.342Zm-28.353-60.533-29.884,4.572-29.845,4.567-43.88794-25.342,15.83105-34.483,59.806-9.152,43.838,25.309Zm-28.446-60.647-59.808,9.152-43.83606-25.309,15.85-34.53,29.884-4.575,29.845-4.566,43.9,25.342Zm-28.353-60.533-29.884,4.572-29.845,4.566-43.948-25.372,15.82995-34.486,59.809-9.149,43.88794,25.339Zm-104.993-16.456-59.809,9.152-43.89-25.339,15.852-34.53,29.884-4.575,29.845-4.566,43.948,25.372Zm-60.714,9.709-15.83,34.483-59.806,9.152-43.89-25.339,15.85-34.53,29.886-4.572,29.843-4.569Zm-76.5409,44.192-15.831,34.488-59.808,9.152-43.89-25.339,15.852-34.53,29.884-4.575,29.845-4.566Zm-76.544,44.188-15.826,34.487-59.806,9.152-43.894-25.339,15.85-34.53,29.886-4.575,29.845-4.566Zm-76.542,44.2-15.83,34.483-59.809,9.152-43.89-25.339,15.852-34.53,29.884-4.575,29.845-4.566Zm-76.544,44.188-15.83,34.483-59.81,9.152-43.89-25.339,15.852-34.53,29.884-4.575,29.845-4.566Zm-76.54,44.189-15.831,34.486-59.808,9.152-43.888-25.339,15.85-34.53,29.884-4.575,29.845-4.566Zm-76.544,44.195-15.831,34.483-59.806,9.152-43.89-25.339,15.852-34.53,29.884-4.575,29.843-4.566Zm-76.541,44.192-15.83,34.483-59.81,9.153-43.888-25.34,15.85-34.53,29.884-4.575,29.845-4.566Zm-76.544,44.192-15.83,34.483-59.806,9.152-43.89-25.339,15.852-34.53,29.884-4.575,29.843-4.567Zm-76.541,44.189-15.83,34.4859-59.809,9.152-43.891-25.342,15.852-34.53,29.884-4.572,29.845-4.567Zm1.316.222,59.809-9.149,43.89,25.339-15.852,34.527-29.884,4.575-29.845,4.566-43.948-25.372Zm28.408,60.563,29.884-4.572,29.843-4.566,43.9,25.342-15.83,34.486-59.809,9.152-43.842-25.309Zm104.993,16.456,59.806-9.152,43.838,25.312-15.852,34.527-29.884,4.575-29.845,4.567-43.893-25.342Zm104.895,16.341,29.884-4.572,29.845-4.566,43.893,25.342-15.83,34.483-59.806,9.152-43.838-25.309Zm104.993,16.456,59.809-9.152,43.836,25.309-15.852,34.53-29.884,4.572-29.844,4.56488-43.9-25.342Zm60.714-9.706,15.831-34.486,59.806-9.152,43.835,25.309-15.85,34.53-29.884,4.572-29.845,4.569Zm120.725-18.145,29.884-4.572,29.843-4.567,43.9,25.342-15.83,34.483-59.809,9.152-43.835-25.309Zm104.993,16.456,59.808-9.152,43.835,25.309-15.85205,34.53-29.884,4.572-29.843,4.567-43.9-25.342Zm104.895,16.341,29.884-4.572,29.845-4.569,44.04394,25.43-7.912,17.229-7.92286,17.253-59.808,9.152-43.984-25.394Zm60.692-9.662,15.852-34.53,29.884-4.572,29.845-4.569,44.041,25.43-7.91,17.229-7.921,17.254-59.806,9.152Zm301.182-46.024-15.852,34.53-29.884,4.572-29.845,4.569-44.04394-25.43,7.912-17.232,7.921-17.251,59.806-9.152Zm-28.474-60.6-7.91,17.229-7.921,17.254-59.806,9.152-43.986-25.394,15.852-34.53,29.884-4.572,29.845-4.569Zm-28.479-60.664-15.853,34.53-29.884,4.572-29.845,4.569-43.89392-25.3501,15.83-34.483,59.806-9.152Zm-44.30005-26.118-59.809,9.152-43.8379-25.313,15.85-34.53,29.884-4.572,29.845-4.567,43.9,25.342Zm92.37195-78.675-15.83,34.483-59.806,9.152-43.838-25.309,15.853-34.53,29.884-4.572,29.845-4.566Zm-28.33484-60.58612-15.852,34.53-29.884,4.575-29.845,4.566-43.89294-25.342,15.83105-34.486,59.806-9.152Zm-28.47094-60.6-15.833,34.486-59.806,9.152-43.83594-25.309,15.85-34.53,29.884-4.575,29.845-4.566Zm-44.184-26.047-29.884,4.572-29.845,4.566-43.89294-25.342,15.83105-34.483,59.806-9.152,43.83594,25.309Zm-11.184-95.018,59.644-9.127,43.984,25.394L1720.549,329l-29.92505,4.58-29.845,4.567-43.893-25.342Zm-1.415-.159-15.853,34.53-59.806,9.152-43.838-25.309,15.852-34.53,29.884-4.572,29.922-4.58Zm-132.00611-76.817,59.718-9.138,43.984,25.394-15.86206,34.554-29.92505,4.577-29.845,4.569-43.94495-25.375Zm-1.34094-.17-15.853,34.53-59.806,9.152-43.89-25.339,15.85-34.53,29.886-4.572,29.922-4.58Zm-132.187-76.829,59.844-9.158,43.986,25.4-15.86194,34.549-29.922,4.577-29.845,4.566-44.041-25.427Zm-76.544,44.192,59.767-9.144,44.014,25.41-15.85,34.53-29.886,4.572-29.843,4.566-44.04309-25.426Zm-76.544,44.192,59.767-9.144,44.014,25.41-15.85,34.53-29.884,4.572-29.845,4.566-44.041-25.427Zm-76.544,44.192,59.768-9.147,44.016,25.411-15.852,34.53-29.885,4.57-29.842,4.566-44.044-25.427Zm-76.544,44.192,59.77-9.144,44.014,25.41-15.852,34.53-29.882,4.576-29.845,4.566-44.041-25.43Zm-76.539,44.192,59.767-9.144,44.016,25.411-15.852,34.53-29.881,4.572-29.845,4.566-44.044-25.427Zm-76.542,44.192,59.768-9.144,44.014,25.41-15.857,34.53-29.884,4.572-29.845,4.566-44.03705-25.426Zm-76.544,44.188,59.769-9.14,44.014,25.411-15.85394,34.529-29.884,4.572-29.843,4.566-44.043-25.426Zm-76.541,44.2,59.767-9.147,44.014,25.413-15.852,34.53-29.884,4.572-29.845,4.566-44.041-25.434Zm-76.544,44.192,59.767-9.147,44.014,25.413-15.85,34.53-29.884,4.572-29.845,4.566-44.048-25.426Zm-76.546,44.188,59.767-9.144,44.014,25.411-15.852,34.53-29.884,4.572-29.845,4.56592-44.041-25.427Zm-76.544,44.192,59.767-9.147,44.014,25.413-15.85,34.53-29.884,4.572-29.845,4.566-44.039-25.42609Zm-92.4,78.744,15.861-34.552,59.77-9.147,44.013,25.41394-15.852,34.53-29.884,4.572-29.922,4.577Zm132.154,76.906-59.718,9.136-43.984-25.394,15.861-34.552,29.925-4.58,29.845-4.566,43.945,25.372Zm1.341.167,15.849-34.529,59.806-9.152,43.894,25.341-15.852,34.53-29.884,4.572-29.922,4.577Zm131.986,76.859-59.644,9.128-43.986-25.394,15.863-34.552,29.922-4.58,29.845-4.566,43.893,25.342Zm1.415.159,15.85-34.53,59.809-9.152,43.835,25.309-15.852,34.53-29.884,4.575-29.922,4.577Zm131.932,76.829-59.644,9.128-43.986-25.394,15.863-34.552,29.922-4.58,29.845-4.566,43.893,25.342Zm76.607-44.332-59.809,9.152-43.835-25.309,15.852-34.53,29.884-4.572,29.845-4.567,43.893,25.342Zm104.993,16.456-29.884,4.573-29.845,4.567-43.893-25.34,15.83-34.486,59.806-9.152,43.835,25.309Zm104.895,16.34-59.806,9.152-43.838-25.309,15.852-34.53,29.884-4.572,29.843-4.569,43.9,25.345Zm76.544-44.192-59.808,9.152-43.836-25.309,15.85-34.53,29.884-4.572,29.845-4.567,43.9,25.342Zm104.993,16.456-29.884,4.572-29.844,4.564-43.893-25.342,15.83-34.483,59.806-9.152,43.835,25.309Zm105.043,16.426-59.806,9.152-43.986-25.394,15.852-34.53,29.884-4.575,29.843-4.564,44.04394,25.427-7.91,17.229Zm104.993,16.456-29.884,4.572-29.843,4.566-44.04395-25.427,7.91-17.232,7.921-17.251,59.806-9.152,43.986,25.394Zm76.544-44.192-29.884,4.572-29.845,4.566-44.04394-25.427,7.913-17.232,7.921-17.251,59.806-9.152,43.984,25.394Zm105.033,16.446-59.767,9.147-44.014-25.41,15.85205-34.53,29.884-4.575,29.845-4.564,44.041,25.43207Z" transform="translate(143.21505 -60.35635)" opacity="0.7" fill="url(#f99e95b0-c010-4f70-96e1-52994f6a1201)" style="isolation:isolate"/><path id="e2061ae4-4d9c-468b-bbf5-adba9a3aad91" data-name="Path 865" d="M1833.83874,901.895l-11.98,26.1-59.767,9.144-44.014-25.41,15.85-34.53,29.887-4.572,29.843-4.567,40.182,23.2v-1.078l-39.217-22.643,15.85-34.53,23.36694-3.576v-.749l-23.655,3.62-44.04394-25.43,7.91-17.229,7.921-17.254,51.869-7.937v-.771l-52.187,7.984-43.984-25.394,15.853-34.53,29.884-4.572,29.843-4.567,20.592,11.889v-1.081l-19.629-11.333,15.85205-34.53,3.777-.579v-.749l-4.067.623-43.897-25.34186,15.83105-34.486,32.13-4.915v-.88l-32.6,4.989-43.83215-25.308,15.85-34.527,29.884-4.575,29.848-4.566.85.491v-3.686l-1.141,2.49-29.884,4.572-29.845,4.567-43.89294-25.342,15.82995-34.486,59.806-9.149,29.127,16.815v-1.078l-28.222-16.294,15.9-34.623,12.325-1.887v-.751l-12.85706,1.966-43.83606-25.306,16.047-34.958-45.012-25.986-60.54394,9.265-43.838-25.309,16.047-34.955-45.012-25.989-60.546,9.265-43.88794-25.339,16.047-34.955-45.012-25.989-61.246,9.372-16.036,34.933-60.505,9.259-16.039,34.936-60.505,9.256-16.036,34.933-60.505,9.259-16.039,34.933-60.505,9.259-16.04,34.926-60.505,9.259-16.039,34.933-60.505,9.261-16.036,34.933-60.505,9.258-16.036,34.933-60.508,9.259-16.036,34.933-60.505,9.259-16.036,34.933-60.508,9.259-16.037,34.93311-60.505,9.259-16.036,34.933-60.508,9.259-16.231,35.361,44.5,25.69-16.054,34.955,45.012,25.989,60.546-9.265,43.89,25.339-16.048,34.955,45.012,25.989,60.548-9.264,43.84,25.309-16.047,34.955,24.815,14.328h1.769l-25.189-14.542,15.863-34.55005,29.922-4.58,29.845-4.567,43.893,25.342-15.1,32.9h1.486l14.986-32.646,59.808-9.152,43.836,25.303-7.57,16.489h1.336l7.487-16.3,29.884-4.572,29.845-4.566,43.893,25.342-.047.1h2.4l58.824-9,15.589,9h1.87l-16.555-9.558,15.83-34.483,59.811-9.152,43.835,25.309-12.8,27.884h1.336l12.718-27.7,29.884-4.572,29.845-4.569,44.041,25.43-5.238,11.412h1.30005l5.16394-11.245,59.806-9.152,35.328,20.4h1.87l-36.293-20.954,7.91-17.232,7.921-17.251,59.809-9.152,43.98,25.3919-15.852,34.53-29.884,4.572-.6.093h4.9l25.871-3.958,6.85706,3.958h1.868l-7.762-4.481,15.85-34.53,29.886-4.572,29.843-4.567,44.04394,25.427-10.433,22.723h1.30005l10.356-22.555,60.505-9.259,16.036-34.933,60.50806-9.259,10.951-23.861Zm-117.012,9.649-29.886,4.575-29.843,4.566-44.04395-25.43,7.91-17.229,7.921-17.254,59.80688-9.15192,43.984,25.394Zm-384.335-265.577-15.85,34.53-29.886,4.572-29.843,4.567-43.9-25.342,15.83-34.486,59.809-9.149Zm-42.934-25.865,15.834-34.484,59.806-9.152,43.838,25.309-15.852,34.53-29.884,4.572-29.845,4.566Zm-33.611,70.058-15.855,34.528-29.884,4.572-29.845,4.567-43.893-25.342,15.83-34.483,59.806-9.152Zm1.251.184,29.884-4.575,29.845-4.567,43.893,25.342-15.83,34.483-59.806,9.155L1241.34478,724.872Zm60.692-9.662,15.852-34.53,29.884-4.575,29.843-4.566,43.9,25.342-15.83,34.486-59.809,9.149Zm76.544-44.195,15.85-34.527,29.884-4.575,29.845-4.567,43.89294,25.342-15.83105,34.486-59.806,9.152Zm75.291-44.373-29.884,4.572-29.845,4.567-43.9-25.342,15.83-34.483,59.809-9.152,43.835,25.309Zm-28.452-60.648-59.808,9.152-43.835-25.309,15.852-34.53,29.884-4.572,29.843-4.569,43.9,25.345Zm-60.714,9.706-15.83,34.486-59.806,9.152-43.83594-25.308,15.85-34.53,29.883-4.57,29.845-4.569Zm-76.541,44.195-15.831,34.483-59.809,9.152-43.835-25.31,15.849-34.53,29.884-4.575,29.843-4.566Zm-76.544,44.189-15.831,34.486-59.806,9.152-43.838-25.309,15.852-34.53,29.884-4.572,29.845-4.569ZM1150.93175,673.747l-15.83,34.486-59.81,9.152-43.838-25.309,15.852-34.53,29.884-4.572,29.84906-4.5719Zm-76.54,44.194-15.83,34.483-59.806,9.152-43.838-25.309,15.852-34.53,29.884-4.575,29.845-4.567Zm-76.541,44.189-15.831,34.486-59.806,9.152-43.842-25.308,15.852-34.53,29.884-4.575,29.845-4.567Zm1.371.252,59.806-9.149,43.838,25.309-15.852,34.53-29.884,4.572-29.845,4.567-43.893-25.34211Zm60.711-9.706,15.83-34.483,59.809-9.152,43.835,25.309-15.85,34.53-29.884,4.572-29.845,4.566Zm120.728-18.142,29.884-4.575,29.845-4.567,43.893,25.342-15.83,34.486-59.809,9.152-43.835-25.312Zm104.993,16.453,59.806-9.152,43.83606,25.312-15.85,34.53-29.884,4.572-29.845,4.567-43.893-25.342Zm60.711-9.706,15.83105-34.486,59.808-9.152,43.835,25.309-15.852,34.53-29.884,4.575-29.843,4.566Zm120.725-18.145,29.887-4.572,29.843-4.567,43.9,25.342-15.83,34.486-59.809,9.149-43.83606-25.309Zm59.441-9.846-29.884,4.575-29.845,4.567-43.893-25.342,15.83106-34.486,59.806-9.152,43.838,25.309Zm-27.085-60.388,15.83106-34.486,59.809-9.152,43.835,25.312-15.853,34.526-29.884,4.575-29.845,4.567Zm75.173-44.444-59.809,9.152-43.835-25.309,15.85206-34.53,29.884-4.575,29.843-4.566,43.9,25.342Zm-28.353-60.533-29.884,4.572-29.845,4.566-43.89294-25.342,15.83105-34.483,59.806-9.152,43.838,25.309Zm-28.452-60.648-59.806,9.152-43.835-25.309,15.85-34.53,29.884-4.572,29.845-4.566,43.89294,25.342Zm-28.353-60.533-29.884,4.572-29.845,4.569-43.94592-25.383,15.83-34.483,59.806-9.152,43.891,25.339Zm-60.68994,9.658-15.852,34.53-29.884,4.572-29.845,4.566-43.94794-25.368,15.833-34.483,59.806-9.152Zm-76.54394,44.192-15.85,34.53-29.88507,4.572-29.845,4.567-43.948-25.372,15.83-34.483,59.806-9.152Zm-76.541,44.192-15.852,34.53-29.884,4.572-29.845,4.566-43.9491-25.372,15.836-34.48,59.806-9.152Zm-76.544,44.192-15.85,34.53-29.886,4.572-29.842,4.569-43.948-25.375,15.83-34.483,59.806-9.152Zm-76.541,44.192-15.853,34.532-29.884,4.572-29.845,4.566-43.948-25.372,15.831-34.483,59.809-9.152Zm-76.545,44.192-15.852,34.53-29.881,4.572-29.845,4.566-43.948-25.372,15.83-34.483,59.806-9.152Zm-76.541,44.192-15.852,34.53-29.884,4.572-29.845,4.567-43.94208-25.37305,15.83-34.483,59.806-9.152Zm-76.544,44.192-15.85,34.53-29.884,4.572-29.845,4.566-43.948-25.372,15.831-34.483,59.809-9.152Zm-75.291,44.37591,29.884-4.575,29.845-4.567,43.893,25.345-15.83,34.48309-59.806,9.152-43.836-25.308Zm104.993,16.453,59.809-9.152,43.835,25.312-15.85,34.53-29.884,4.572-29.84412,4.56494-43.9-25.342Zm104.9,16.343,29.884-4.575,29.845-4.566,43.89,25.342-15.829,34.483-59.809,9.152-43.835-25.306Zm60.689-9.662,15.852-34.53,29.87793-4.574,29.845-4.567,43.893,25.342-15.83,34.486-59.806,9.149Zm120.846-18.077,59.809-9.152,43.835,25.309-15.852,34.53-29.884,4.575-29.843,4.567-43.9-25.342Zm104.895,16.341,29.884-4.572,29.845-4.566,43.9,25.342-15.84009,34.478-59.809,9.152-43.835-25.309Zm60.6889-9.662,15.852-34.53,29.884-4.572,29.845-4.566,43.89294,25.342-15.83,34.483-59.806,9.152Zm120.846-18.074,59.809-9.152,43.835,25.309-15.852,34.53-29.884,4.575-29.843,4.564-43.9-25.342Zm104.895,16.341,29.886-4.572,29.843-4.566,44.04395,25.427-7.91,17.232-7.921,17.251-59.808,9.152-43.984-25.394Zm59.441-9.846-29.884,4.575-29.845,4.567-43.893-25.342,15.83-34.486,59.806-9.152,43.838,25.309Zm-28.452-60.645-59.806,9.149-43.83606-25.309,15.85-34.53,29.884-4.572,29.845-4.567,43.893,25.342Zm-27.1-60.352,15.853-34.53,29.884-4.572,29.843-4.566,43.9,25.342-15.83105,34.483-59.808,9.152Zm75.29-44.38-29.884,4.575-29.845,4.566-43.891-25.341,15.83106-34.486,59.806-9.152,43.838,25.309Zm-28.452-60.645-59.806,9.149-43.838-25.304,15.852-34.53,29.884-4.575,29.845-4.567,43.89295,25.342Zm-28.35-60.533-29.887,4.572-29.842,4.566-43.9-25.342,15.83-34.483,59.808-9.152,43.83593,25.309Zm-27.08106-60.4,15.83-34.483,59.806-9.152,43.838,25.309-15.852,34.53-29.884,4.572-29.845,4.567Zm-1.371-.252-59.809,9.152-43.835-25.309,15.852-34.53,29.884-4.572,29.845-4.569,43.89295,25.342Zm-28.353-60.533-29.884,4.572-29.845,4.569-43.948-25.375,15.83105-34.483,59.809-9.152,43.89,25.339Zm-104.994-16.447-59.809,9.152-43.89-25.342,15.852-34.53,29.884-4.572,29.845-4.566,43.948,25.372Zm-60.714,9.709-15.83,34.483-59.806,9.152-43.89-25.334,15.852-34.53,29.884-4.572,29.845-4.566Zm-76.541,44.192-15.83,34.483-59.808,9.152-43.888-25.339,15.85-34.53,29.884-4.572,29.845-4.566Zm-76.54395,44.192-15.83,34.483-59.806,9.152-43.89-25.339,15.852-34.53,29.884-4.572,29.845-4.569Zm-76.541,44.192-15.831,34.483-59.809,9.152-43.888-25.339,15.85-34.53,29.884-4.572,29.845-4.569Zm-76.544,44.192-15.835,34.483-59.8,9.15-43.89-25.339,15.852-34.53,29.884-4.572,29.845-4.569Zm-76.541,44.192-15.83,34.483-59.806,9.152-43.89-25.339,15.85-34.53,29.884-4.575,29.845-4.564Zm-76.544,44.192-15.83,34.483-59.806,9.152-43.89-25.339,15.852-34.53,29.884-4.572,29.843-4.569Zm-76.541,44.192-15.83,34.483-59.806,9.152-43.89-25.339,15.85-34.53,29.884-4.572,29.845-4.569Zm-76.544,44.192-15.83,34.483-59.806,9.152-43.89-25.339,15.852-34.53,29.884-4.575,29.843-4.567Zm-76.541,44.192-15.83194,34.48291-59.809,9.152-43.883-25.339,15.85-34.53,29.884-4.575,29.845-4.566Zm1.319.219,59.806-9.149,43.89,25.339-15.852,34.53-29.887,4.572-29.844,4.562-43.945-25.372Zm28.405,60.565,29.884-4.575,29.845-4.566,43.893,25.342L828.92977,885.002l-59.809,9.152-43.836-25.309Zm104.99207,16.45391,59.806-9.149,43.838,25.309-15.852,34.53-29.884,4.572-29.848,4.56592-43.89-25.342Zm104.895,16.341,29.884-4.572,29.845-4.566,43.893,25.342-15.83,34.483-59.806,9.152-43.835-25.306Zm105,16.456,59.806-9.152,43.835,25.309-15.852,34.53-29.884,4.575-29.843,4.567-43.9-25.345Zm60.711-9.706,15.83-34.486,59.806-9.149,43.838,25.306-15.852,34.53-29.884,4.575-29.84906,4.568Zm120.721-18.146,29.884-4.572,29.845-4.566,43.893,25.342-15.83,34.486-59.806,9.152-43.83808-25.312Zm104.993,16.456,59.808-9.152,43.83606,25.309-15.852,34.53-29.884,4.572-29.843,4.569-43.9-25.345Zm60.714-9.709,15.83-34.483,59.806-9.152,43.835,25.309-15.85,34.53-29.884,4.572-29.845,4.569Zm120.726-18.143,29.884-4.572,29.845-4.566,44.041,25.427-7.91,17.229-7.921,17.254-59.806,9.152-43.986-25.394Zm285.329-11.494-15.85205,34.53-29.884,4.572-29.845,4.569-44.041-25.427,7.91-17.235,7.921-17.251,59.806-9.152Zm-28.474-60.6-7.91,17.232-7.921,17.251-59.806,9.152-43.986-25.394,15.853-34.53,29.884-4.572,29.845-4.566Zm-44.332-26.135-29.884,4.575-29.845,4.566-43.89392-25.345,15.83105-34.481,59.809-9.152,43.835,25.309Zm92.4-78.722-15.852,34.53-29.884,4.572-29.845,4.569-43.89294-25.345,15.83105-34.483,59.806-9.152Zm-28.474-60.6-15.83,34.486-59.80993,9.151-43.838-25.309,15.852-34.527,29.884-4.575,29.845-4.567Zm-28.33106-60.576-15.852,34.53-29.884,4.572-29.845,4.566-43.89294-25.342,15.83-34.483,59.809-9.152Zm-44.3-26.118-59.808,9.152-43.835-25.309,15.852-34.53,29.884-4.575,29.845-4.566,43.89294,25.342Zm92.394-78.722-15.852,34.53-59.806,9.152-43.838-25.309,15.85206-34.53,29.884-4.575,29.925-4.578Zm-131.932-76.829,59.644-9.128,43.984,25.4-15.861,34.552-29.922,4.577-29.848,4.566-43.89294-25.342Zm-1.415-.159-15.852,34.53-59.806,9.152-43.838-25.309,15.85205-34.53,29.884-4.572,29.92505-4.58Zm-132.006-76.818,59.71314-9.141,43.984,25.4-15.86,34.552-29.925,4.577-29.845,4.569-43.945-25.375Zm-1.34094-.17-15.85791,34.529-59.806,9.152-43.89-25.339,15.852-34.53,29.884-4.572,29.922-4.58Zm-132.187-76.829,59.844-9.155,43.986,25.394-15.86084,34.549-29.925,4.577-29.845,4.569-44.041-25.43Zm-76.54395,44.195,59.767-9.147,44.014,25.41-15.85,34.53-29.88794,4.57-29.845,4.569-44.044-25.43Zm-76.541,44.189,59.767-9.144,44.014,25.41-15.852,34.53-29.884,4.572-29.85089,4.566-44.04-25.429Zm-76.5459,44.192,59.767-9.147,44.014,25.411-15.85,34.53-29.884,4.572-29.847,4.568-44.044-25.43Zm-76.545,44.192,59.767-9.147,44.014,25.41-15.85193,34.527-29.884,4.575-29.845,4.569-44.041-25.43Zm-76.544,44.19,59.767-9.144,44.014,25.41-15.85,34.53-29.884,4.572-29.845,4.569-44.044-25.43Zm-76.541,44.194,59.767-9.147,44.014,25.411-15.851,34.529-29.884,4.572-29.843,4.569-44.04505-25.428Zm-76.544,44.189,59.767-9.144,44.014,25.41-15.85,34.53-29.884,4.572-29.845,4.566-44.044-25.427Zm-76.541,44.192,59.767-9.144,44.014,25.41-15.852,34.53-29.884,4.572-29.843,4.566-44.044-25.427Zm-76.545,44.195,59.767-9.147,44.014,25.41-15.85,34.53-29.884,4.572-29.844,4.565-44.043-25.425Zm-76.54,44.189,59.767-9.144,44.014,25.41-15.852,34.53-29.884,4.572-29.845,4.567-44.044-25.427Zm-76.544,44.192,59.767-9.144,44.014,25.41-15.85,34.53-29.887,4.572-29.845,4.566-44.041-25.427Zm-92.4,78.744,15.863-34.552,59.767-9.144,44.014,25.411-15.852,34.53-29.884,4.572-29.922,4.58Zm132.144,76.905-59.718,9.138-43.984-25.4,15.863-34.552,29.922-4.577,29.845-4.569,43.945,25.375Zm1.341.167,15.852-34.53,59.809-9.149,43.888,25.339-15.85,34.53-29.88,4.57306-29.925,4.58Zm131.986,76.859-59.644,9.128-43.983-25.393,15.863-34.552,29.922-4.58,29.845-4.566,43.895,25.337Zm105.063,16.318-29.89,4.574-29.918,4.582-43.836-25.309,15.85-34.53,59.809-9.149,43.835,25.306Zm104.895,16.343-59.809,9.149-43.835-25.306,15.852-34.53,29.884-4.572,29.845-4.566,43.894,25.33795Zm104.993,16.45294-29.884,4.572-29.845,4.569-43.893-25.342,15.83-34.486,59.806-9.152,43.838,25.309Zm104.895,16.34-59.806,9.152-43.838-25.309,15.852-34.53,29.884-4.572,29.845-4.567,43.89007,25.34607Zm76.544-44.192-59.808,9.152-43.835-25.309,15.852-34.53,29.884-4.572,29.845-4.566,43.893,25.342Zm104.993,16.456-29.884,4.572-29.845,4.566-43.893-25.339,15.83-34.486,59.806-9.152,43.838,25.309Zm112.964-.828-7.921,17.254-59.806,9.152-43.986-25.394,15.852-34.53,29.887-4.572,29.845-4.567,44.041,25.427Zm68.623-26.938-59.809,9.152-43.984-25.394,15.852-34.53,29.881-4.572,29.845-4.566,44.04395,25.427-7.91,17.232Zm104.993,16.456-29.884,4.572-29.845,4.569-44.041-25.43,7.91-17.229,7.921-17.254,59.806-9.152,43.984,25.394Zm105.032,16.45-59.767,9.144-44.014-25.411,15.852-34.53,29.884-4.572,29.845-4.566,44.041,25.427Z" transform="translate(143.21505 -60.35635)" fill="url(#a47091db-75db-4280-b77c-91f2cdda77ba)"/><circle id="bd776d2f-f46c-4e94-9f16-8bcdcc233345" data-name="Ellipse 23" cx="1545.47479" cy="802.66072" r="25.873" fill="url(#fa1efd63-6201-4dc2-b94a-d95005ff466c)"/><circle id="a8102608-c97f-4858-a9de-fedd5f7ac9ac" data-name="Ellipse 24" cx="1250.25287" cy="588.04969" r="25.873" fill="url(#b67a0958-8393-448f-a6b3-68328f272cde)"/><circle id="a40d4f8c-304a-473c-bce8-03177987d799" data-name="Ellipse 25" cx="1629.39679" cy="497.23469" r="25.873" fill="url(#bc67808f-7f67-4f0e-98ef-76d458ec98db)"/><circle id="ae21c555-7de7-481b-9c6d-68ce959fb746" data-name="Ellipse 26" cx="1468.93182" cy="846.85273" r="25.873" fill="url(#bdd5f56a-6c5e-4ca7-8d70-6b0735116218)"/><circle id="b498fb90-427a-40eb-b3be-3dc90bf072e8" data-name="Ellipse 27" cx="1622.86928" cy="758.07295" r="25.872" fill="url(#ecbb413c-ee10-4de8-ad25-8891549210df)"/><circle id="fe87e69b-4a74-4774-a922-295fa6160850" data-name="Ellipse 28" cx="1686.52777" cy="618.16072" r="25.873" fill="url(#b2b8b178-7213-432f-9680-67b016623506)"/><circle id="a014d975-3d65-4373-a6a0-8e11fc6894ce" data-name="Ellipse 30" cx="1048.6878" cy="780.45173" r="18.326" fill="url(#aa909348-3a03-4c23-a612-233ead4f576c)"/><circle id="abd32e59-cb53-41e3-abae-3f0424be1ed3" data-name="Ellipse 31" cx="1694.9588" cy="844.50172" r="18.326" fill="url(#a061b688-ba0b-48e7-87c3-d7cb64afd78a)"/><circle id="b38dc88c-25d7-43fa-b544-eb37d36c5251" data-name="Ellipse 32" cx="1790.8648" cy="634.36268" r="18.326" fill="url(#abb8e096-84bf-4dda-b80f-c1253656cea3)"/><circle id="af3209ac-0ebc-4789-a243-9989ccbbe3c9" data-name="Ellipse 33" cx="1392.57977" cy="889.7057" r="18.326" fill="url(#a6380d4b-856b-4ec8-b9f9-4b8f059b6268)"/><circle id="ae200eda-c2f4-4878-8f1c-57c746e2febf" data-name="Ellipse 34" cx="1145.78985" cy="571.44373" r="18.326" fill="url(#b0af0a5b-318a-47ee-bf52-3bf8fc78eb55)"/><circle id="b1073b14-b386-4d81-a0ae-74d5297ec938" data-name="Ellipse 35" cx="1715.11688" cy="678.34571" r="18.326" fill="url(#f21cc686-d7bc-4e15-a979-e8d1a80ece29)"/><circle id="a2ed9816-a424-4b0e-9cb9-6c8335e25291" data-name="Ellipse 36" cx="1811.02276" cy="470.03968" r="18.326" fill="url(#ed04c6ee-7173-4cc6-932f-eacb5e02612b)"/><circle id="b475fefc-ae56-4a24-b8eb-d112b8f22407" data-name="Ellipse 38" cx="1097.8808" cy="675.71973" r="18.326" fill="url(#b2019bd1-63fc-41c1-bb1d-75a1b82375e2)"/><circle id="ee3b9acd-d769-44c2-a6f2-22cabb2e3ea9" data-name="Ellipse 40" cx="1772.09979" cy="800.41572" r="18.326" fill="url(#e8dfc9eb-d8e4-44b5-9ae6-fd55e04a891a)"/><circle id="b8cb53e9-ea25-4d15-b1f1-3e5ad80c5a33" data-name="Ellipse 41" cx="1133.66681" cy="475.97968" r="18.326" fill="url(#b6a8879e-ffe0-4c2c-8e8e-8612922a5bf2)"/></g><path id="e7944519-7664-4544-8ba4-28da0d63160d" data-name="Path 864" d="M1833.83874,901.895l-11.98,26.1-59.767,9.144-44.014-25.41,15.85-34.53,29.887-4.572,29.843-4.567,40.182,23.2v-1.078l-39.217-22.643,15.85-34.53,23.36694-3.576v-.749l-23.655,3.62-44.04394-25.43,7.91-17.229,7.921-17.254,51.869-7.937v-.771l-52.187,7.984-43.984-25.394,15.853-34.53,29.884-4.572,29.843-4.567,20.592,11.889v-1.081l-19.629-11.333,15.85205-34.53,3.777-.579v-.749l-4.067.623-43.897-25.34186,15.83105-34.486,32.13-4.915v-.88l-32.6,4.989-43.83215-25.308,15.85-34.527,29.884-4.575,29.848-4.566.85.491v-3.686l-1.141,2.49-29.884,4.572-29.845,4.567-43.89294-25.342,15.82995-34.486,59.806-9.149,29.127,16.815v-1.078l-28.222-16.294,15.9-34.623,12.325-1.887v-.751l-12.85706,1.966-43.83606-25.306,16.047-34.958-45.012-25.986-60.54394,9.265-43.838-25.309,16.047-34.955-45.012-25.989-60.546,9.265-43.88794-25.339,16.047-34.955-45.012-25.989-61.246,9.372-16.036,34.933-60.505,9.259-16.039,34.936-60.505,9.256-16.036,34.933-60.505,9.259-16.039,34.933-60.505,9.259-16.04,34.926-60.505,9.259-16.039,34.933-60.505,9.261-16.036,34.933-60.505,9.258-16.036,34.933-60.508,9.259-16.036,34.933-60.505,9.259-16.036,34.933-60.508,9.259-16.037,34.93311-60.505,9.259-16.036,34.933-60.508,9.259-16.231,35.361,44.5,25.69-16.054,34.955,45.012,25.989,60.546-9.265,43.89,25.339-16.048,34.955,45.012,25.989,60.548-9.264,43.84,25.309-16.047,34.955,24.815,14.328h1.769l-25.189-14.542,15.863-34.55005,29.922-4.58,29.845-4.567,43.893,25.342-15.1,32.9h1.486l14.986-32.646,59.808-9.152,43.836,25.303-7.57,16.489h1.336l7.487-16.3,29.884-4.572,29.845-4.566,43.893,25.342-.047.1h2.4l58.824-9,15.589,9h1.87l-16.555-9.558,15.83-34.483,59.811-9.152,43.835,25.309-12.8,27.884h1.336l12.718-27.7,29.884-4.572,29.845-4.569,44.041,25.43-5.238,11.412h1.30005l5.16394-11.245,59.806-9.152,35.328,20.4h1.87l-36.293-20.954,7.91-17.232,7.921-17.251,59.809-9.152,43.98,25.3919-15.852,34.53-29.884,4.572-.6.093h4.9l25.871-3.958,6.85706,3.958h1.868l-7.762-4.481,15.85-34.53,29.886-4.572,29.843-4.567,44.04394,25.427-10.433,22.723h1.30005l10.356-22.555,60.505-9.259,16.036-34.933,60.50806-9.259,10.951-23.861Zm-117.012,9.649-29.886,4.575-29.843,4.566-44.04395-25.43,7.91-17.229,7.921-17.254,59.80688-9.15192,43.984,25.394Zm-384.335-265.577-15.85,34.53-29.886,4.572-29.843,4.567-43.9-25.342,15.83-34.486,59.809-9.149Zm-42.934-25.865,15.834-34.484,59.806-9.152,43.838,25.309-15.852,34.53-29.884,4.572-29.845,4.566Zm-33.611,70.058-15.855,34.528-29.884,4.572-29.845,4.567-43.893-25.342,15.83-34.483,59.806-9.152Zm1.251.184,29.884-4.575,29.845-4.567,43.893,25.342-15.83,34.483-59.806,9.155L1241.34478,724.872Zm60.692-9.662,15.852-34.53,29.884-4.575,29.843-4.566,43.9,25.342-15.83,34.486-59.809,9.149Zm76.544-44.195,15.85-34.527,29.884-4.575,29.845-4.567,43.89294,25.342-15.83105,34.486-59.806,9.152Zm75.291-44.373-29.884,4.572-29.845,4.567-43.9-25.342,15.83-34.483,59.809-9.152,43.835,25.309Zm-28.452-60.648-59.808,9.152-43.835-25.309,15.852-34.53,29.884-4.572,29.843-4.569,43.9,25.345Zm-60.714,9.706-15.83,34.486-59.806,9.152-43.83594-25.308,15.85-34.53,29.883-4.57,29.845-4.569Zm-76.541,44.195-15.831,34.483-59.809,9.152-43.835-25.31,15.849-34.53,29.884-4.575,29.843-4.566Zm-76.544,44.189-15.831,34.486-59.806,9.152-43.838-25.309,15.852-34.53,29.884-4.572,29.845-4.569ZM1150.93175,673.747l-15.83,34.486-59.81,9.152-43.838-25.309,15.852-34.53,29.884-4.572,29.84906-4.5719Zm-76.54,44.194-15.83,34.483-59.806,9.152-43.838-25.309,15.852-34.53,29.884-4.575,29.845-4.567Zm-76.541,44.189-15.831,34.486-59.806,9.152-43.842-25.308,15.852-34.53,29.884-4.575,29.845-4.567Zm1.371.252,59.806-9.149,43.838,25.309-15.852,34.53-29.884,4.572-29.845,4.567-43.893-25.34211Zm60.711-9.706,15.83-34.483,59.809-9.152,43.835,25.309-15.85,34.53-29.884,4.572-29.845,4.566Zm120.728-18.142,29.884-4.575,29.845-4.567,43.893,25.342-15.83,34.486-59.809,9.152-43.835-25.312Zm104.993,16.453,59.806-9.152,43.83606,25.312-15.85,34.53-29.884,4.572-29.845,4.567-43.893-25.342Zm60.711-9.706,15.83105-34.486,59.808-9.152,43.835,25.309-15.852,34.53-29.884,4.575-29.843,4.566Zm120.725-18.145,29.887-4.572,29.843-4.567,43.9,25.342-15.83,34.486-59.809,9.149-43.83606-25.309Zm59.441-9.846-29.884,4.575-29.845,4.567-43.893-25.342,15.83106-34.486,59.806-9.152,43.838,25.309Zm-27.085-60.388,15.83106-34.486,59.809-9.152,43.835,25.312-15.853,34.526-29.884,4.575-29.845,4.567Zm75.173-44.444-59.809,9.152-43.835-25.309,15.85206-34.53,29.884-4.575,29.843-4.566,43.9,25.342Zm-28.353-60.533-29.884,4.572-29.845,4.566-43.89294-25.342,15.83105-34.483,59.806-9.152,43.838,25.309Zm-28.452-60.648-59.806,9.152-43.835-25.309,15.85-34.53,29.884-4.572,29.845-4.566,43.89294,25.342Zm-28.353-60.533-29.884,4.572-29.845,4.569-43.94592-25.383,15.83-34.483,59.806-9.152,43.891,25.339Zm-60.68994,9.658-15.852,34.53-29.884,4.572-29.845,4.566-43.94794-25.368,15.833-34.483,59.806-9.152Zm-76.54394,44.192-15.85,34.53-29.88507,4.572-29.845,4.567-43.948-25.372,15.83-34.483,59.806-9.152Zm-76.541,44.192-15.852,34.53-29.884,4.572-29.845,4.566-43.9491-25.372,15.836-34.48,59.806-9.152Zm-76.544,44.192-15.85,34.53-29.886,4.572-29.842,4.569-43.948-25.375,15.83-34.483,59.806-9.152Zm-76.541,44.192-15.853,34.532-29.884,4.572-29.845,4.566-43.948-25.372,15.831-34.483,59.809-9.152Zm-76.545,44.192-15.852,34.53-29.881,4.572-29.845,4.566-43.948-25.372,15.83-34.483,59.806-9.152Zm-76.541,44.192-15.852,34.53-29.884,4.572-29.845,4.567-43.94208-25.37305,15.83-34.483,59.806-9.152Zm-76.544,44.192-15.85,34.53-29.884,4.572-29.845,4.566-43.948-25.372,15.831-34.483,59.809-9.152Zm-75.291,44.37591,29.884-4.575,29.845-4.567,43.893,25.345-15.83,34.48309-59.806,9.152-43.836-25.308Zm104.993,16.453,59.809-9.152,43.835,25.312-15.85,34.53-29.884,4.572-29.84412,4.56494-43.9-25.342Zm104.9,16.343,29.884-4.575,29.845-4.566,43.89,25.342-15.829,34.483-59.809,9.152-43.835-25.306Zm60.689-9.662,15.852-34.53,29.87793-4.574,29.845-4.567,43.893,25.342-15.83,34.486-59.806,9.149Zm120.846-18.077,59.809-9.152,43.835,25.309-15.852,34.53-29.884,4.575-29.843,4.567-43.9-25.342Zm104.895,16.341,29.884-4.572,29.845-4.566,43.9,25.342-15.84009,34.478-59.809,9.152-43.835-25.309Zm60.6889-9.662,15.852-34.53,29.884-4.572,29.845-4.566,43.89294,25.342-15.83,34.483-59.806,9.152Zm120.846-18.074,59.809-9.152,43.835,25.309-15.852,34.53-29.884,4.575-29.843,4.564-43.9-25.342Zm104.895,16.341,29.886-4.572,29.843-4.566,44.04395,25.427-7.91,17.232-7.921,17.251-59.808,9.152-43.984-25.394Zm59.441-9.846-29.884,4.575-29.845,4.567-43.893-25.342,15.83-34.486,59.806-9.152,43.838,25.309Zm-28.452-60.645-59.806,9.149-43.83606-25.309,15.85-34.53,29.884-4.572,29.845-4.567,43.893,25.342Zm-27.1-60.352,15.853-34.53,29.884-4.572,29.843-4.566,43.9,25.342-15.83105,34.483-59.808,9.152Zm75.29-44.38-29.884,4.575-29.845,4.566-43.891-25.341,15.83106-34.486,59.806-9.152,43.838,25.309Zm-28.452-60.645-59.806,9.149-43.838-25.304,15.852-34.53,29.884-4.575,29.845-4.567,43.89295,25.342Zm-28.35-60.533-29.887,4.572-29.842,4.566-43.9-25.342,15.83-34.483,59.808-9.152,43.83593,25.309Zm-27.08106-60.4,15.83-34.483,59.806-9.152,43.838,25.309-15.852,34.53-29.884,4.572-29.845,4.567Zm-1.371-.252-59.809,9.152-43.835-25.309,15.852-34.53,29.884-4.572,29.845-4.569,43.89295,25.342Zm-28.353-60.533-29.884,4.572-29.845,4.569-43.948-25.375,15.83105-34.483,59.809-9.152,43.89,25.339Zm-104.994-16.447-59.809,9.152-43.89-25.342,15.852-34.53,29.884-4.572,29.845-4.566,43.948,25.372Zm-60.714,9.709-15.83,34.483-59.806,9.152-43.89-25.334,15.852-34.53,29.884-4.572,29.845-4.566Zm-76.541,44.192-15.83,34.483-59.808,9.152-43.888-25.339,15.85-34.53,29.884-4.572,29.845-4.566Zm-76.54395,44.192-15.83,34.483-59.806,9.152-43.89-25.339,15.852-34.53,29.884-4.572,29.845-4.569Zm-76.541,44.192-15.831,34.483-59.809,9.152-43.888-25.339,15.85-34.53,29.884-4.572,29.845-4.569Zm-76.544,44.192-15.835,34.483-59.8,9.15-43.89-25.339,15.852-34.53,29.884-4.572,29.845-4.569Zm-76.541,44.192-15.83,34.483-59.806,9.152-43.89-25.339,15.85-34.53,29.884-4.575,29.845-4.564Zm-76.544,44.192-15.83,34.483-59.806,9.152-43.89-25.339,15.852-34.53,29.884-4.572,29.843-4.569Zm-76.541,44.192-15.83,34.483-59.806,9.152-43.89-25.339,15.85-34.53,29.884-4.572,29.845-4.569Zm-76.544,44.192-15.83,34.483-59.806,9.152-43.89-25.339,15.852-34.53,29.884-4.575,29.843-4.567Zm-76.541,44.192-15.83194,34.48291-59.809,9.152-43.883-25.339,15.85-34.53,29.884-4.575,29.845-4.566Zm1.319.219,59.806-9.149,43.89,25.339-15.852,34.53-29.887,4.572-29.844,4.562-43.945-25.372Zm28.405,60.565,29.884-4.575,29.845-4.566,43.893,25.342L828.92977,885.002l-59.809,9.152-43.836-25.309Zm104.99207,16.45391,59.806-9.149,43.838,25.309-15.852,34.53-29.884,4.572-29.848,4.56592-43.89-25.342Zm104.895,16.341,29.884-4.572,29.845-4.566,43.893,25.342-15.83,34.483-59.806,9.152-43.835-25.306Zm105,16.456,59.806-9.152,43.835,25.309-15.852,34.53-29.884,4.575-29.843,4.567-43.9-25.345Zm60.711-9.706,15.83-34.486,59.806-9.149,43.838,25.306-15.852,34.53-29.884,4.575-29.84906,4.568Zm120.721-18.146,29.884-4.572,29.845-4.566,43.893,25.342-15.83,34.486-59.806,9.152-43.83808-25.312Zm104.993,16.456,59.808-9.152,43.83606,25.309-15.852,34.53-29.884,4.572-29.843,4.569-43.9-25.345Zm60.714-9.709,15.83-34.483,59.806-9.152,43.835,25.309-15.85,34.53-29.884,4.572-29.845,4.569Zm120.726-18.143,29.884-4.572,29.845-4.566,44.041,25.427-7.91,17.229-7.921,17.254-59.806,9.152-43.986-25.394Zm285.329-11.494-15.85205,34.53-29.884,4.572-29.845,4.569-44.041-25.427,7.91-17.235,7.921-17.251,59.806-9.152Zm-28.474-60.6-7.91,17.232-7.921,17.251-59.806,9.152-43.986-25.394,15.853-34.53,29.884-4.572,29.845-4.566Zm-44.332-26.135-29.884,4.575-29.845,4.566-43.89392-25.345,15.83105-34.481,59.809-9.152,43.835,25.309Zm92.4-78.722-15.852,34.53-29.884,4.572-29.845,4.569-43.89294-25.345,15.83105-34.483,59.806-9.152Zm-28.474-60.6-15.83,34.486-59.80993,9.151-43.838-25.309,15.852-34.527,29.884-4.575,29.845-4.567Zm-28.33106-60.576-15.852,34.53-29.884,4.572-29.845,4.566-43.89294-25.342,15.83-34.483,59.809-9.152Zm-44.3-26.118-59.808,9.152-43.835-25.309,15.852-34.53,29.884-4.575,29.845-4.566,43.89294,25.342Zm92.394-78.722-15.852,34.53-59.806,9.152-43.838-25.309,15.85206-34.53,29.884-4.575,29.925-4.578Zm-131.932-76.829,59.644-9.128,43.984,25.4-15.861,34.552-29.922,4.577-29.848,4.566-43.89294-25.342Zm-1.415-.159-15.852,34.53-59.806,9.152-43.838-25.309,15.85205-34.53,29.884-4.572,29.92505-4.58Zm-132.006-76.818,59.71314-9.141,43.984,25.4-15.86,34.552-29.925,4.577-29.845,4.569-43.945-25.375Zm-1.34094-.17-15.85791,34.529-59.806,9.152-43.89-25.339,15.852-34.53,29.884-4.572,29.922-4.58Zm-132.187-76.829,59.844-9.155,43.986,25.394-15.86084,34.549-29.925,4.577-29.845,4.569-44.041-25.43Zm-76.54395,44.195,59.767-9.147,44.014,25.41-15.85,34.53-29.88794,4.57-29.845,4.569-44.044-25.43Zm-76.541,44.189,59.767-9.144,44.014,25.41-15.852,34.53-29.884,4.572-29.85089,4.566-44.04-25.429Zm-76.5459,44.192,59.767-9.147,44.014,25.411-15.85,34.53-29.884,4.572-29.847,4.568-44.044-25.43Zm-76.545,44.192,59.767-9.147,44.014,25.41-15.85193,34.527-29.884,4.575-29.845,4.569-44.041-25.43Zm-76.544,44.19,59.767-9.144,44.014,25.41-15.85,34.53-29.884,4.572-29.845,4.569-44.044-25.43Zm-76.541,44.194,59.767-9.147,44.014,25.411-15.851,34.529-29.884,4.572-29.843,4.569-44.04505-25.428Zm-76.544,44.189,59.767-9.144,44.014,25.41-15.85,34.53-29.884,4.572-29.845,4.566-44.044-25.427Zm-76.541,44.192,59.767-9.144,44.014,25.41-15.852,34.53-29.884,4.572-29.843,4.566-44.044-25.427Zm-76.545,44.195,59.767-9.147,44.014,25.41-15.85,34.53-29.884,4.572-29.844,4.565-44.043-25.425Zm-76.54,44.189,59.767-9.144,44.014,25.41-15.852,34.53-29.884,4.572-29.845,4.567-44.044-25.427Zm-76.544,44.192,59.767-9.144,44.014,25.41-15.85,34.53-29.887,4.572-29.845,4.566-44.041-25.427Zm-92.4,78.744,15.863-34.552,59.767-9.144,44.014,25.411-15.852,34.53-29.884,4.572-29.922,4.58Zm132.144,76.905-59.718,9.138-43.984-25.4,15.863-34.552,29.922-4.577,29.845-4.569,43.945,25.375Zm1.341.167,15.852-34.53,59.809-9.149,43.888,25.339-15.85,34.53-29.88,4.57306-29.925,4.58Zm131.986,76.859-59.644,9.128-43.983-25.393,15.863-34.552,29.922-4.58,29.845-4.566,43.895,25.337Zm105.063,16.318-29.89,4.574-29.918,4.582-43.836-25.309,15.85-34.53,59.809-9.149,43.835,25.306Zm104.895,16.343-59.809,9.149-43.835-25.306,15.852-34.53,29.884-4.572,29.845-4.566,43.894,25.33795Zm104.993,16.45294-29.884,4.572-29.845,4.569-43.893-25.342,15.83-34.486,59.806-9.152,43.838,25.309Zm104.895,16.34-59.806,9.152-43.838-25.309,15.852-34.53,29.884-4.572,29.845-4.567,43.89007,25.34607Zm76.544-44.192-59.808,9.152-43.835-25.309,15.852-34.53,29.884-4.572,29.845-4.566,43.893,25.342Zm104.993,16.456-29.884,4.572-29.845,4.566-43.893-25.339,15.83-34.486,59.806-9.152,43.838,25.309Zm112.964-.828-7.921,17.254-59.806,9.152-43.986-25.394,15.852-34.53,29.887-4.572,29.845-4.567,44.041,25.427Zm68.623-26.938-59.809,9.152-43.984-25.394,15.852-34.53,29.881-4.572,29.845-4.566,44.04395,25.427-7.91,17.232Zm104.993,16.456-29.884,4.572-29.845,4.569-44.041-25.43,7.91-17.229,7.921-17.254,59.806-9.152,43.984,25.394Zm105.032,16.45-59.767,9.144-44.014-25.411,15.852-34.53,29.884-4.572,29.845-4.566,44.041,25.427Z" transform="translate(143.21505 -60.35635)" fill="url(#a9f7d920-129f-4c22-b0f9-c03aa9e94a11)"/><path d="M-143.215,60.35635h1920v652.2s-86.427,285.133-566.427,285.133-1353.573-285.133-1353.573-285.133Z" transform="translate(143.21505 -60.35635)" fill="none"/></svg>